<?xml version="1.0" encoding="utf-8"?>
<!-- Generator: Adobe Illustrator 25.2.0, SVG Export Plug-In . SVG Version: 6.00 Build 0)  -->
<svg version="1.1" id="Layer_1" xmlns="http://www.w3.org/2000/svg" xmlns:xlink="http://www.w3.org/1999/xlink" x="0px" y="0px"
	 width="600px" height="742px" viewBox="0 0 600 742" style="enable-background:new 0 0 600 742;" xml:space="preserve">
<style type="text/css">
	.st0{fill:#FFFFFF;}
</style>
<path class="st0" d="M599.7,518.9v-84.6c-12.4,0-24.8,1.7-36.6,4.8c-5.1-69.1-35.5-133.9-85.1-182.2c23.1-16.1,41.7-39.2,52.1-67.7
	c26.5-73-11-154-84.3-180.7c-73-26.5-153.9,11-180.7,84.3c-10.4,28.5-11,58.1-3.4,85.4c-107.4,7.6-205.5,77-244.7,185
	c-53.3,146.3,22.3,308.2,168.6,361.5c107.7,39.2,223.8,8.7,298.8-68.5c16.1,23.1,38.9,41.5,67.4,51.9c15.8,5.9,32.1,8.5,48.2,8.5
	V632c-6.5,0-13-1.1-19.2-3.4c-29.3-10.7-44.3-43.1-33.8-72.2C555.2,533.3,576.6,518.9,599.7,518.9z M344.6,121.9
	c10.7-29.3,43.1-44.3,72.2-33.8c29.3,10.7,44.3,43.1,33.8,72.2c-10.4,29-43.1,44.3-72.2,33.8C349.1,183.6,334.2,151.2,344.6,121.9z
	 M214.4,644.9C112.1,607.7,59.4,494.4,96.6,392c37.2-102.4,150.5-155.1,252.8-117.9c102.3,37.2,155,150.6,117.8,252.9
	C430,629.4,316.7,682.1,214.4,644.9z"/>
</svg>
