<?xml version="1.0" encoding="utf-8"?>
<!-- Generator: Adobe Illustrator 24.0.0, SVG Export Plug-In . SVG Version: 6.00 Build 0)  -->
<svg version="1.1" id="logo" xmlns="http://www.w3.org/2000/svg" xmlns:xlink="http://www.w3.org/1999/xlink" x="0px" y="0px"
	 viewBox="0 0 40 40" style="enable-background:new 0 0 40 40;" xml:space="preserve">
<style type="text/css">
	.st0{fill:url(#SVGID_1_);}
	.st1{fill:url(#SVGID_2_);}
	.st2{fill:#FFFFFF;}
</style>
<g id="_x23_20250E_1_">
	
		<radialGradient id="SVGID_1_" cx="28.8356" cy="28.2393" r="10" gradientTransform="matrix(1 0 0 -1 0 40)" gradientUnits="userSpaceOnUse">
		<stop  offset="0.5" style="stop-color:#20250E"/>
		<stop  offset="1" style="stop-color:#20250E;stop-opacity:0"/>
	</radialGradient>
	<circle class="st0" cx="28.8" cy="11.8" r="10"/>
</g>
<g id="_x23_A9CC38">
	
		<radialGradient id="SVGID_2_" cx="18.5" cy="18.5" r="17.5" gradientTransform="matrix(1 0 0 -1 0 40)" gradientUnits="userSpaceOnUse">
		<stop  offset="0.5" style="stop-color:#A9CC38"/>
		<stop  offset="1" style="stop-color:#A9CC38;stop-opacity:0"/>
	</radialGradient>
	<circle class="st1" cx="18.5" cy="21.5" r="17.5"/>
</g>
<path id="C" class="st2" d="M27.5,25.3c-1.6,2.2-4.2,3.6-7.1,3.6c-4.9,0-8.9-4-8.9-8.9s4-8.9,8.9-8.9c2.9,0,5.5,1.4,7.1,3.6
	c0.9-1.2,2.1-2.2,3.5-2.8c-2.4-3.2-6.3-5.3-10.6-5.3C13,6.6,7,12.6,7,20s6,13.4,13.4,13.4c4.3,0,8.2-2.1,10.6-5.3
	C29.6,27.5,28.4,26.5,27.5,25.3z"/>
</svg>
