<?xml version="1.0" encoding="utf-8"?>
<!-- Generator: Adobe Illustrator 25.2.0, SVG Export Plug-In . SVG Version: 6.00 Build 0)  -->
<svg version="1.1" xmlns="http://www.w3.org/2000/svg" xmlns:xlink="http://www.w3.org/1999/xlink" x="0px" y="0px"
	 viewBox="0 0 180 75" style="enable-background:new 0 0 180 75;" xml:space="preserve">
<style type="text/css">
	.st0{display:none;}
	.st1{display:inline;}
	.st2{fill:#FFFFFF;}
	.st3{display:inline;fill:none;stroke:#FFFFFF;stroke-miterlimit:10;}
	.st4{fill:#006C32;}
	.st5{clip-path:url(#SVGID_1_);}
	.st6{clip-path:url(#SVGID_2_);}
	.st7{fill-rule:evenodd;clip-rule:evenodd;fill:#FFFFFF;}
</style>
<g id="Layer_1" class="st0">
	<g id="logo" class="st1">
		<g id="Layer_1_1_" class="st0">
		</g>
		<g id="Layer_2_1_">
			<g>
				<path id="path35166" class="st2" d="M25,16.7L25,16.7h0.6V34H25V16.7z"/>
				<path id="path35176" class="st2" d="M30,16.7L30,16.7h5.2V34H30V16.7z"/>
				<path id="path35186" class="st2" d="M39.1,16.7L39.1,16.7h2.6V34h-2.6V16.7z"/>
				<path id="path35196" class="st2" d="M99.1,29.9L99.1,29.9c-3.7,0-5.1,1.6-5.6,2.2l-0.9-1.7h-6.9V34h1.6v24.3h5.4V49
					c1.1,1,2.9,1.7,5,1.7c7.1,0,10-5.2,10-10.9C107.7,33.9,104.1,29.9,99.1,29.9L99.1,29.9z M102.3,40L102.3,40c0,4.1-2,6.5-5.2,6.5
					s-4.6-2-4.6-6.2c0-4.4,1.5-6.3,4.8-6.3C100.3,34,102.3,36.4,102.3,40L102.3,40z M148.4,41.3L148.4,41.3v0.3
					c0,2.5-0.5,5.4-4.6,5.4c-2,0-3.2-1.1-3.2-2.9c0-1.5,0.6-2.9,4.9-2.9C145.5,41.3,148.4,41.3,148.4,41.3z M153.7,46.5L153.7,46.5
					V36.4c0-4.4-2.9-6.6-8.7-6.6c-1.5,0-3.9,0.2-4.6,0.3v4c0,0,2.9-0.2,4.4-0.2c2.4,0,3.5,0.9,3.5,2.7v1.3h-3.4
					c-6.5,0-9.9,2.3-9.9,6.7c0,3,1.8,6.2,7.1,6.2c4.2,0,5.8-1.3,6.3-1.9l0.8,1.6l5.7-0.1v-3.8C155,46.5,153.7,46.5,153.7,46.5z
					 M43.1,38.1L43.1,38.1c0,5.3,2.4,8.5,6.5,8.5c2.5,0,4.3-1,5.4-3.6h6c-1.1,3.8-4,7.9-11.5,7.9c-7.7,0-12.3-4.7-12.3-12.7
					c0-3.6,1.1-6.8,3.3-9.1c2.3-2.5,5.5-3.8,9.3-3.8c8.9,0,11.4,6.3,11.4,8.7h-5.9c-0.5-2.2-1.8-4.3-5.6-4.3
					C45.7,29.7,43.1,32.9,43.1,38.1z M76.4,41.3L76.4,41.3v0.3c0,2.5-0.5,5.4-4.6,5.4c-2,0-3.3-1.1-3.3-2.9c0-1.5,0.6-2.9,4.9-2.9
					C73.4,41.3,76.4,41.3,76.4,41.3z M81.7,46.5L81.7,46.5V36.4c0-4.4-2.9-6.6-8.7-6.6c-1.5,0-3.9,0.2-4.6,0.3v4
					c0,0,2.9-0.2,4.4-0.2c2.4,0,3.5,0.9,3.5,2.7v1.3h-3.4c-6.5,0-9.9,2.3-9.9,6.7c0,3,1.8,6.2,7.1,6.2c4.2,0,5.8-1.3,6.3-1.9
					l0.8,1.6l5.7-0.1v-3.8C83,46.5,81.7,46.5,81.7,46.5z M128.7,30.2L128.7,30.2h4.3V34h-4.3v10.3c0,1.6,0.3,2.4,2.3,2.4
					c0.7,0,1.1-0.1,1.4-0.1v3.6c-1,0.3-2.3,0.4-3.6,0.4c-3.8,0-5.4-1.7-5.4-5.7V34h-1.6v-3.8h1.6v-3.4h5.4L128.7,30.2L128.7,30.2z
					 M111.8,21.7L111.8,21.7h5.4v5.7h-5.4V21.7z M110.4,30.2L110.4,30.2h6.8v20.2h-5.4V34h-1.5L110.4,30.2L110.4,30.2z"/>
			</g>
		</g>
	</g>
	<g id="outline">
		<rect x="25" y="10.4" class="st3" width="130" height="54.2"/>
	</g>
</g>
<g id="Layer_2" class="st0">
	<g class="st1">
		<path class="st4" d="M5.2,75.3c2.9-3.9,5.1-8.2,6.7-12.7h5.4c-2.4,6.2-5.7,11.9-9.7,17.2v8.5H2.7v-8.5c-4-5.3-7.3-11.1-9.7-17.2
			h5.4C0,67.1,2.3,71.4,5.2,75.3"/>
		<path class="st4" d="M54.9,73.1c-1.6-0.4-3.1-1-4.6-1.7c-0.7-0.4-1.2-1.1-1.1-1.9c0-1,0.6-1.8,1.5-2.2c1-0.4,2.1-0.6,3.2-0.6
			c1.9,0,3.8,0.4,5.6,1l1.6-3.7c-2.2-1.1-4.7-1.6-7.2-1.6c-2.3-0.1-4.5,0.5-6.5,1.7c-1.9,1.2-3,3.3-3,5.5c0,4.4,3.7,6.1,7.4,7.3
			c1.4,0.4,2.8,0.9,4.2,1.6c1,0.5,1.6,1.4,1.6,2.5c0,1-0.6,2-1.5,2.5c-1.2,0.6-2.5,0.8-3.8,0.8c-2.7,0-5.4-0.9-7.6-2.5L43,85.6
			c2.8,1.9,6.2,3,9.6,2.9c5.6,0,10-3,10-7.8C62.6,76.5,59.2,74.4,54.9,73.1"/>
		<path class="st4" d="M28.4,83.8h-3.5V67.1H28c5.4,0,8.8,2.9,8.8,8.2C36.8,80.3,33.6,83.8,28.4,83.8 M27.9,62.6h-7.7v25.7h8.2
			c7.6,0,13.2-5.3,13.2-13S36.3,62.6,27.9,62.6"/>
		<path class="st4" d="M86.3,84.4h-4.1V77h4.3c3.7,0,5.6,1,5.6,3.6C92.1,84,88.8,84.4,86.3,84.4 M82.2,66.4h3.7
			c3.4,0,5.1,0.8,5.1,3.1S89.3,73,86.3,73h-4.1V66.4z M91.1,74.7L91.1,74.7c2.7-0.7,4.6-3.1,4.5-5.8c0-4.5-4-6.3-7.9-6.3h-10v25.7
			h9.3c4.8,0,9.7-2,9.7-7.3C96.7,77.4,94.4,75.2,91.1,74.7"/>
		<polygon class="st4" points="147.2,62.6 142.7,62.6 142.7,81.1 142.6,81.1 131.8,62.6 125.9,62.6 125.9,88.3 130.3,88.3 
			130.3,69.1 130.3,69.1 141.4,88.3 147.2,88.3 		"/>
		<polygon class="st4" points="162.1,74.9 174,62.6 167.9,62.6 157.2,74.1 157.1,74.1 157.1,62.6 152.6,62.6 152.6,88.3 157.1,88.3 
			157.1,75.8 157.2,75.8 168.6,88.3 175,88.3 		"/>
		<polygon class="st4" points="-49.6,88.3 -35.2,88.3 -33.6,83.7 -44.9,83.7 -44.9,62.6 -49.6,62.6 		"/>
		<polygon class="st4" points="-69.4,88.3 -55,88.3 -53.4,83.7 -64.7,83.7 -64.7,62.6 -69.4,62.6 		"/>
		<path class="st4" d="M-19.8,84.2c-5.2,0-8.2-3.8-8.2-8.7s3-8.7,8.2-8.7s8.3,4,8.3,8.8S-14.6,84.2-19.8,84.2 M-19.7,62.3
			c-7.9,0-13.1,5.8-13.1,13.2s5.1,13.1,13,13.1s13-5.8,13-13.2S-11.9,62.3-19.7,62.3"/>
		<path class="st4" d="M110.4,82.8c1.8,0,3.6-0.2,5.4-0.6l2.4,6.1h5.3l-11.1-25.7h-3.9L97.3,88.3h5.3l2.4-6.1
			C106.8,82.6,108.6,82.8,110.4,82.8 M110.4,78.9c-1.3,0-2.7-0.1-4-0.3l4-10.2l4,10.2C113.1,78.8,111.7,78.9,110.4,78.9"/>
		<g>
			<defs>
				<path id="SVGID_33_" d="M58.7-43c-0.1,0.5-0.2,1-0.1,1.5c0.1,0.3,0.1,0.7,0.1,1c0,0,0,0.8-0.1,0.7c-0.4-0.3-0.7-0.7-1-1.1
					c-0.2-0.2-0.4-0.4-0.6-0.5c-0.2-0.2-0.7-0.3-0.9,0.1c-0.2,0.6,0,1.3,0.4,1.8c0.6,0.7,0.9,1.1,0.6,1.9c-0.5,1-1.2,2-2.1,2.7
					c-1,1-0.8,1.8-0.7,1.9s0.5,0.8-0.6,1.9c-0.9,1-1.6,2.2-2.1,3.5c-0.5,1.1-1.1,2.1-2,3c-0.7,0.6-0.5,2.3-0.5,2.3
					c0.3,2.4,1.5,2.9,2.1,2.9s0.5,0.1,1.4,0.5c0.5,0.3,1.2,0.3,1.7,0c0.6-0.2,1.1-0.8,1.1-1.5c0-0.4,0.2-0.7,0.4-1
					c0.1-0.1,1.3-1,1.3-1s4.3-3.3,4.3-0.4c0-0.7-0.7-1.3-1.4-1.3c-0.7,0-1.3,0.7-1.3,1.4c0,0.7,0.7,1.3,1.4,1.3
					c0.7,0,1.2-0.6,1.3-1.3c0,0.5-0.1,1-0.2,1.5c-0.3,1.3-0.8,2.5-1.4,3.7c-1.3,2.7-3.2,5-5.5,6.9c-1.2,1-2.6,1.9-4,2.7
					c-1.6,0.9-3.2,1.5-5,1.8c-1.5,0.2-2.9,0.2-4.4,0.1c-1.4-0.1-2.6-0.4-4.2-0.6c-2.4-0.5-5-0.6-7.4-0.2c-1.9,0.4-3.8,1.1-5.4,2.2
					L24-4.5c-0.6,0.4-1.9-0.2-1.9-0.2H22c-0.7-0.3-1.4-0.7-2-1.1c-1.3-1.1-2.4-2.4-3.5-3.7c0,0-2.1-2.9-4.5-3.7
					c-2-0.8-4.1-0.7-6.1,0.1c-1.6,0.6-3,1.7-4,3.1C1.4-9.1,0.9-8.1,0.6-7C0.1-5.1,0-3.1,0.3-1.2c0.3,1.9,1.1,3.6,2.2,5.1
					c1,1.2,2.1,2.3,3.3,3.3c0.4,0.4,1.7,1.3,2.3,1.8s1.6,2.4-1,4S4.2,15.5,4,16.7c-0.1,1.5,1,2.9,2.5,3.2C8.3,20.1,8.7,19,8.7,19
					s-1-0.4-1-1.2s1-1.2,2.8-1.7c1.2-0.3,2.2-0.9,3.2-1.6c1.2-1,1.9-2.4,1.8-3.9c0.1-1.5-0.4-3-1.3-4.1c-0.8-0.9-1.6-1.8-2.5-2.5
					c-0.7-0.6-1.4-1.2-2-1.9C9,1.2,8.6-0.1,8.8-1.4c0.2-0.5,0.6-1,1-0.1s0.9,0.9,0.9,0.9l0.1-0.4c0.5-1.2,1.4-2.2,2.6-2.6
					c1.2-0.2,0.8,0.3,0.8,0.3c-0.5,0.5-0.8,1.2-0.8,1.9c0,0.6,0.3,1.2,0.8,1.5c0.6-1.2,1.9-1.8,3.2-1.5c0.7,0.2,1.5,0.3,2.2,0.3
					c0.7,0,0.4,0.5,0.4,0.5c-0.2,0.3-0.7,1.1-1.1,1.6c-0.6,1.1-1.1,2.3-1.3,3.6c-0.2,1.3-0.3,2.7-0.2,4c0.1,1,0.2,2,0.4,3
					c0.2,0.9,0.2,1.8,0.1,2.7c-0.2,0.6-0.4,1.2-0.6,1.8c-0.6,1.1-1.4,2.2-2.3,3.1c-0.7,0.7-1.5,1.3-2.3,1.9
					c-0.8,0.5-1.3,1.2-1.6,2.1c-0.1,0.5-0.2,1.1-0.1,1.6c0,0.2,0.1,1.1,0.2,1.8s0.1,2.3,0.2,3.8s-0.1,3.5-0.2,4.4s-0.3,3.6-0.4,4.4
					s-0.4,2-0.4,2.7c0,0.7,0.3,1.4,0.9,1.8c0.5,0.4,1,0.8,1.5,1.3c0.5,0.6,0.7,1.3,0.6,2.1c-0.1,0.5,0,1.1,0.2,1.6
					c0.2,0.5,0.7,0.8,1.2,0.8h4.6c0.4,0,0.7-0.2,0.8-0.5c0.1-0.7-0.1-1.5-0.5-2.1c-0.7-0.9-1.6-1.7-2.7-2.3c-0.9-0.6-1.6-1.5-2-2.6
					c-0.4-1.2-0.6-2.5-0.6-3.8c0-1.5,0.1-3.1,0.3-4.6c0.1-1.5,0.5-4.2,0.5-4.6c0.1-1.3,0.7-2.5,1.7-3.4c0.4-0.4,0.9-0.8,1.4-1.1
					c0.2-0.1,0.3-0.2,0.5-0.2l0.9-0.1c0.9-0.2,1.7-0.4,2.5-0.7c0.9-0.3,1.8-0.8,2.6-1.4c0.2-0.2,0.5-0.3,0.7-0.5c0,0.2,0,0.4,0,0.6
					c-0.1,0.4-0.2,0.8-0.4,1.1c-0.3,0.5-0.6,1-1,1.4c-0.4,0.4-0.7,0.8-0.9,1.3c-0.3,0.7-0.4,1.4-0.3,2.2c0.1,0.6,0.4,1.2,0.8,1.7
					c0.2,0.3,0.6,0.8,1.3,1.5c0.5,0.5,1,1.1,1.4,1.7l1.4,1.8l1.5,1.9l1.3,1.8c0,0,0.9,1.3,1.4,2.1c0.4,0.5,0.6,1.1,0.7,1.8
					c0,0.5,0.1,1.1,0.4,1.6c0.3,0.6,0.9,1,1.5,1.1c0.4,0.2,0.8,0.5,1,0.9c0.2,0.5,0.4,1.1,0.4,1.7c0.1,0.5,0.2,0.9,0.4,1.3
					c0.3,0.4,0.8,0.6,1.2,0.5h3.8c0.3,0,1.1,0.1,1.3-0.7c0.1-0.9-0.2-1.8-0.8-2.5c-0.7-0.8-1.6-1.5-2.5-2c-0.9-0.5-1.6-1.1-2.2-1.8
					c-1-1.2-1.9-2.5-2.7-3.9c-0.8-1.4-1.7-2.8-2.8-4.1c-0.8-1-1.5-2-2.1-3.1c-0.6-1-0.9-2.1-1-3.3c-0.2-1.4,0.6-2.7,2-3.2
					c0.9-0.3,1.7-0.8,2.5-1.4c1-0.9,1.9-1.9,2.7-3c0.8-1.1,1.5-2.3,2.1-3.5c0.4-0.8,1.1-2.7,1.1-2.7h0.3c0.2,0,0.9,0,1.5,0.1
					s2.4,0.3,4.6,0.6s4,0.5,5,0.5s2.5,0,4.1-0.1c1.7-0.1,3.3-0.3,4.9-0.7c1.4-0.4,2.9-0.9,4.2-1.5c1-0.5,2.1-0.7,3.2-0.5
					c0.5,0.1,0.8,0.2,1.3,0.3c0.6,0,1.3-0.1,1.9-0.3c0.5-0.2,2.2-0.9,2.8-1.1s1.9-1,2.5-1.3s2.1-1.2,2.8-1.7
					c0.8-0.5,2.1-1.2,2.1-1.2c1-0.6,2.1-1,3.2-1c0.8,0.1,1.5,0.5,2,1.2c0.5,0.6,1,1.2,1.4,1.8c0.2,0.2,0.4,0.7,0.6,1
					c1,2.5,1.9,5.1,2.7,7.7c0.1,0.5,0.4,0.9,0.9,1c0.3,0,0.6,0.3,0.6,0.6c0,0,0,0.1,0,0.1c-0.3,0.7-0.7,1.3-1.2,1.9
					c-0.2,0.3-0.4,0.8-0.4,1.2c-0.1,1.3,2.3,2.8,2.3,2.8c0.7,0.6,1.6,0.9,2.5,0.9c1.2-0.1,1.4-2.6,1.3-3.9c0-1.2-0.2-2.4-0.6-3.5
					c-0.4-0.8-0.8-1.6-1.4-2.3c-1.8-2.8-3.2-5.8-4.3-9c-0.1-0.3-0.2-0.6-0.3-0.7c-0.2-0.4-1.3-3-1.5-3.5c-0.3-0.8-0.9-1.5-1.5-2
					c-0.5-0.4-1.1-0.5-1.7-0.5h-0.1c-0.2,0-1,0-2.6,0.1S79.5,1,78.9,1l-2.2,0.1L77,0.7h0.3c0.5-0.1,1-0.3,1.5-0.5
					c1-0.4,2-0.8,2.9-1.4c0.3-0.2,1.1-0.6,1.3-0.8L84-2.5c0.8-0.5,1.7-0.7,2.6-0.6h0.2c1.2,0.1,3.7,2,3.7,2c2.6,2.3,5.2,5.5,5.7,7
					c0.4,1.1,1.5,1,1.9,1.2c0.6,0.2,0.8,0.9,0.5,1.5c-0.2,0.5-0.3,1.1-0.2,1.7c0.3,1.4,2.6,1.9,3.9,2s2.5,0.2,2.5-1.3
					c-0.2-1.3-0.8-2.6-1.8-3.5c-0.3-0.3-0.8-0.8-1.2-1.1c-0.2-0.1-0.3-0.3-0.4-0.5c-0.4-0.8-1-1.5-1.7-2.1c-1.5-1-7-7.5-7-7.5
					l-1.6-1.9c-0.8-1-1.9-1.8-3.2-2.2c-1-0.2-2.1-0.3-3.2-0.1c-1.3,0.2-2.6,0.3-3.9,0.2c-1.3-0.1-2.5,0.1-3.7,0.4
					c-0.4-0.3-0.7-0.7-0.9-1.1c-0.2-0.4-0.2-0.9,0.1-1.2c0.5-0.5,1.7,0.1,1.7,0.1c0.1-1.5-0.4-3-1.5-4c-0.3-0.3-0.5-0.6-0.6-1
					c0-0.5,0.3-0.9,0.8-0.9c0,0,0,0,0,0c1.4-0.1,2.6-0.9,3.2-2.2c0,0-2.9-1.8-3.4-3.5c1.9,0,3.4-1.4,3.6-3.2
					c-0.7,0.3-1.5-0.1-1.8-0.8c0,0,0-0.1,0-0.1c-0.4-1-1.2-1.8-2.1-2.4c-0.7-0.4-1.2-1-1.5-1.7c1.2-1.1,1.5-2.8,0.9-4.3
					c-0.7,0.7-1.8,0.9-2.7,0.4c-0.3-0.2-0.5-0.5-0.6-0.8c0,0-1.1-3.3-4.2-3.8c-0.5-0.1-0.9-0.5-1-1c-0.1-0.8-0.7-1.4-1.5-1.5
					c0,0,0.3,1.5-1.6,1.2c-0.4-0.1-0.8-0.3-1.1-0.7c-0.5-0.7-1.1-1.2-1.9-1.4c-0.6-0.2-1-0.6-1.2-1.1c-0.1-0.2-0.2-0.5-0.3-0.7
					c-0.1-0.1-0.2-0.2-0.4-0.2C59-43.3,58.9-43.3,58.7-43"/>
			</defs>
			<clipPath id="SVGID_1_">
				<use xlink:href="#SVGID_33_"  style="overflow:visible;"/>
			</clipPath>
			<g class="st5">
				<g>
					<defs>
						<rect id="SVGID_35_" x="-4.8" y="-52.3" width="112.9" height="112.9"/>
					</defs>
					<clipPath id="SVGID_2_">
						<use xlink:href="#SVGID_35_"  style="overflow:visible;"/>
					</clipPath>
					<g class="st6">
						
							<image style="overflow:visible;enable-background:new    ;" width="124" height="123" xlink:href="86FF32A5.jpg"  transform="matrix(0.9126 0 0 0.9126 -4.8309 -51.8687)">
						</image>
					</g>
				</g>
			</g>
		</g>
	</g>
</g>
<g id="Layer_3">
	<g>
		<g>
			<g>
				<g transform="translate(158.000000, 0.000000)">
					<path class="st7" d="M-30.1,18.9v37.1H7V18.9H-30.1z M1.2,39.2c-0.4,0-0.8-0.1-1-0.4c-0.2-0.2,0.1-0.5-0.1-0.7
						C0.1,38-0.2,38.1-0.3,38c-0.2-0.1-0.2-0.2-0.3-0.4c-0.1-0.3-0.6-0.8-1.1-1.4c-0.5-0.5-0.9-0.7-1.2-0.7c-0.2,0-0.2,0-0.4,0
						c-0.4,0-0.7,0.4-1.3,0.6c-0.4,0.2-0.6,0.3-0.9,0.3l-0.1,0.1l0.5,0c0.5,0,1.1-0.1,1.6-0.1s0.7,0.4,0.9,0.9
						c0.4,0.9,0.9,2.3,1.6,3.4c0.3,0.5,0.6,0.9,0.6,1.5c0,0.2,0,0.5-0.3,0.5c-0.4,0-1.3-0.4-1.3-0.8c0-0.3,0.3-0.5,0.3-0.8
						C-1.7,41-2,41-2,40.8c-0.2-1-0.5-2-1.1-2.6c-0.3-0.3-0.3-0.4-0.6-0.4c-0.2,0-0.3,0-0.4,0.1c-0.8,0.3-1.8,1.2-3.1,1.5
						c-0.5,0.2-0.6-0.1-1.1,0h0c-0.4,0.1-0.7,0.3-1.3,0.5c-0.8,0.2-2.1,0.3-3.2,0.2c-0.8-0.1-1.8-0.3-2.2-0.2c-0.3,0.9-1,2.2-2,2.7
						c-0.5,0.2-0.7,0.6-0.5,1.2c0.2,0.8,0.9,1.3,1.2,2c0.3,0.6,0.9,1.5,1.4,1.7c0.5,0.3,0.9,0.7,0.9,1.1c0,0.2-0.1,0.3-0.2,0.3h-1.1
						c-0.2,0-0.3-0.1-0.3-0.2c-0.2-0.3,0-0.6-0.3-0.8c-0.2-0.2-0.3-0.1-0.5-0.3c-0.3-0.3-0.1-0.5-0.3-0.9c-0.7-1.1-1-1.4-1.6-2.2
						c-0.3-0.4-0.7-0.6-0.7-1.2c0-0.7,0.7-0.8,0.7-1.5c-0.4,0.3-0.9,0.6-1.7,0.7c-0.1,0-0.4,0.2-0.5,0.4c-0.3,0.3-0.4,0.6-0.4,1
						c-0.1,0.9-0.3,1.9-0.2,2.8c0.2,0.6,0.3,0.8,0.7,1.1c0.3,0.2,0.7,0.5,0.7,0.9c0,0.1,0,0.3-0.2,0.3h-1.2c-0.1,0-0.2-0.1-0.3-0.2
						c-0.1-0.2,0-0.4-0.1-0.7c-0.1-0.6-0.7-0.5-0.7-1.1c0-0.2,0.1-0.4,0.1-0.8c0-0.8,0.3-2.1,0-3.6c-0.1-0.9,0.8-0.9,1.3-1.7
						c0.3-0.4,0.2-0.3,0.4-0.6c0.2-0.3,0.1-0.6,0.1-0.8c0-0.3-0.3-0.8-0.1-1.9c0.1-0.5,0.3-1,0.6-1.4c0,0,0-0.1-0.1-0.1
						c-0.5,0-0.5-0.1-0.8-0.1s-0.5,0.3-0.6,0.4c-0.2-0.1-0.2-0.2-0.2-0.3c0-0.2,0-0.3,0.2-0.5c0.1-0.1,0-0.1-0.1-0.1
						c-0.4,0-0.7,0.5-0.8,0.8c-0.2,0-0.2-0.3-0.3-0.3c-0.1,0-0.2,0.2-0.2,0.3c0,1.1,1.8,1.3,1.8,2.8c0,1.7-2,1.3-2,1.9
						c0,0.1,0.1,0.2,0.2,0.3c-0.1,0.2-0.2,0.2-0.4,0.2c-0.4,0-0.8-0.3-0.8-0.8c0-0.9,1.2-0.9,1.2-1.6c0-0.3-0.2-0.4-0.4-0.6
						c-1.1-0.8-1.8-1.6-1.8-3c0-1.5,1-2.6,2.3-2.6c1.9,0,1.9,2.2,3.7,2.4c0.6-0.4,1.4-0.7,2.1-0.7c1.1,0,1.6,0.3,2.8,0.3
						c0.5,0,1.3-0.1,2.2-0.8c0.4-0.2,0.5-0.3,0.8-0.6c0.7-0.6,1.4-1.9,1.4-2.8c0-0.3-0.1-0.4-0.2-0.4c-0.4,0-0.8,0.4-1.2,0.8
						c-0.3,0.3,0.1,0.4-0.4,0.7c-0.2,0.1-0.4-0.1-0.7-0.1c-0.5,0-0.7-0.6-0.7-1c0-0.2,0.2-0.3,0.3-0.5c0.2-0.5,0.2-0.6,0.4-1.1
						c0.1-0.3,0.4-0.5,0.4-0.7c0-0.1-0.1-0.1-0.1-0.2c0-0.5,0.6-0.8,0.6-1.2c0-0.3-0.3-0.4-0.4-0.6c-0.1-0.2,0-0.3,0-0.3
						c0,0,0,0,0.1,0c0.2,0,0.3,0.3,0.5,0.4c0-0.3-0.1-0.4-0.1-0.6c0-0.1,0-0.3,0.1-0.3c0.2,0,0.1,0.2,0.3,0.3
						c0.2,0.1,0.3,0.1,0.5,0.2c0.2,0.2,0.4,0.4,0.5,0.4c0.2,0,0.3-0.3,0.2-0.4c0.3,0,0.5,0.2,0.9,0.2c0.5,0,0.7,0.2,0.9,0.2
						c0.4,0.3,0.4,0.6,0.8,0.6c0.2,0,0.3-0.2,0.4-0.2c0.3,0.2,0.3,0.7,0,1.1c0.1,0.4,0.6,0.4,0.9,0.6c0.2,0.2,0.2,0.3,0.4,0.4
						c0.1,0.1,0.3,0.1,0.4,0c0.1,0.5-0.3,0.9-0.8,1c0,0.6,0.7,1,0.9,1.1c-0.2,0.4-0.5,0.5-0.7,0.6c0.1,0.4,0.5,0.9,0.3,1.4
						c-0.2-0.1-0.5,0-0.5,0.3c0,0.3,0.4,0.5,0,0.7c-0.2,0.1-0.2,0.4,0.1,0.6c0.4-0.1,0.9-0.1,1.4-0.1c0.3,0,0.7-0.1,1-0.1
						c0.5,0,0.8,0.2,1.2,0.6c0.9,1,1.8,2.1,2.8,2.8c0.5,0.4,1,0.6,1,1.2C1.9,39.1,1.7,39.2,1.2,39.2z"/>
					<path class="st2" d="M-24.2,34.9c0.2,0,0.6-1.1,1.3-1.1c0.2,0,0.3,0.1,0.3,0.2c0,0.2-0.3,0.3-0.3,0.5c0,0,0,0.1,0.1,0.1
						c0.2,0,0.3-0.4,1.1-0.4c0.2,0,0.4,0,0.5,0.1c0.1,0,0.3,0.1,0.2-0.1c-0.2-0.5-0.8-1-1.6-1c-0.8,0-1.7,0.7-1.8,1.6
						C-24.3,34.8-24.3,34.9-24.2,34.9"/>
					<path class="st2" d="M-10.2,27.9c-0.2-0.1-0.3-0.2-0.2-0.5c0-0.3,0.1-0.4-0.1-0.4c-0.1,0-0.3,0-0.4,0.2
						c-0.1,0.2-0.4,0.4-0.4,0.6c-0.1,0.2,0.2,0.2,0,0.6c-0.4,0.6-0.4,0.8-0.6,1.2c-0.2,0.5-0.3,0.6-0.4,0.7
						c-0.1,0.1,0.1,0.2,0.4,0.1c0.3-0.1,0.3,0.2,0.2,0.5c-0.1,0.2,0,0.2,0.2,0c0.2-0.2-0.1-0.3,0-0.9c0.1-0.5,0.2-0.8,0.5-1.3
						c0.3-0.4,0.5-0.7,0.9-0.6C-9.9,28.3-9.9,28-10.2,27.9"/>
					<path class="st2" d="M-0.8,42.4c0.1,0,0.1-0.1,0.1-0.2c0-0.2-0.1-0.6-0.3-0.8c0,0.4-0.2,0.6-0.2,0.8
						C-1.2,42.3-0.9,42.4-0.8,42.4"/>
					<path class="st2" d="M1.3,39c0.1,0,0.3,0,0.3-0.2c0-0.2-0.3-0.6-0.6-0.6C1.2,38.5,1.1,39,1.3,39"/>
					<path class="st2" d="M-8,34.3c1.9,0.9,1.8,2.5,1.9,2.1c0.1-0.2,0.3-1-0.4-1.7c-0.5-0.6-0.7-0.5-0.5-1c0.8-2,1.4-5.1-1.1-6.2
						c-0.3-0.1-0.5-0.1-0.5-0.1s0.3,0.1,0.6,0.4c1.7,1.1,1.1,4.1-0.4,5.6C-8.8,33.9-8.6,34-8,34.3"/>
					<path class="st2" d="M-14.5,48.4c0.1,0,0.1-0.2,0-0.3c-0.1-0.2-0.3-0.3-0.5-0.4c0,0.2,0.1,0.7,0.3,0.7H-14.5"/>
					<path class="st2" d="M-20.3,48.4c0.1,0,0-0.2,0-0.3c-0.1-0.2-0.4-0.3-0.5-0.4c0,0.2,0.1,0.7,0.3,0.7H-20.3"/>
					<path class="st2" d="M-13.3,36.9c1.1-0.1,1.2-0.4,1.4-1.1c0.1-0.4,0.4-0.8,0.6-1c0.2-0.2,0.3-0.3,0.5-0.6c0-0.1,0.1-0.2,0-0.2
						c-0.1,0.1-0.5,0.3-0.6,0.4c-0.7,0.5-1.9,0.8-2.3,0.8c-1,0-1.8-0.3-2.7-0.3c-2.6,0-3.6,2.1-3.5,3.3c0,0.2,0,0.2,0.1,0.2
						c0.2,0,0.4-0.7,1-1.3c1-0.9,2-1.5,3.5-1.5c1.1,0,1.5,0.4,1.5,0.5c0,0.3-0.5,0.3-0.4,0.6C-14.2,36.8-14,37-13.3,36.9"/>
				</g>
				<g transform="translate(0.000000, 19.000000)">
					<polygon class="st7" points="110.4,18.7 115.3,13.6 112.8,13.6 108.4,18.3 108.3,18.3 108.3,13.6 106.5,13.6 106.5,24.1 
						108.3,24.1 108.3,19 108.4,19 113.1,24.1 115.7,24.1 					"/>
					<polygon class="st7" points="104.2,13.6 102.4,13.6 102.4,21.2 102.3,21.2 97.9,13.6 95.4,13.6 95.4,24.1 97.2,24.1 97.2,16.3 
						97.3,16.3 101.9,24.1 104.2,24.1 					"/>
					<path class="st7" d="M89.1,20.3c-0.6,0-1.1,0-1.6-0.1l1.6-4.2l1.6,4.2C90.1,20.3,89.6,20.3,89.1,20.3 M89.1,21.9
						c0.8,0,1.5-0.1,2.2-0.3l1,2.5h2.2l-4.6-10.5h-1.6l-4.6,10.5h2.2l1-2.5C87.5,21.8,88.3,21.9,89.1,21.9"/>
					<path class="st7" d="M81.1,18.6L81.1,18.6c1.1-0.4,1.8-1.1,1.8-2.4c0-1.9-1.7-2.6-3.2-2.6h-4.1v10.5h3.8c2,0,4-0.8,4-3
						C83.4,19.7,82.5,18.8,81.1,18.6L81.1,18.6z M77.5,15.2H79c1.4,0,2.1,0.3,2.1,1.3c0,0.9-0.7,1.4-1.9,1.4h-1.7V15.2z M79.1,22.6
						h-1.7v-3.1h1.8c1.5,0,2.3,0.4,2.3,1.5C81.5,22.4,80.2,22.6,79.1,22.6L79.1,22.6z"/>
					<path class="st7" d="M66.2,17.9c-1-0.3-1.5-0.5-1.9-0.7c-0.4-0.2-0.5-0.5-0.5-0.8c0-0.4,0.3-0.7,0.6-0.9
						c0.4-0.2,0.9-0.2,1.3-0.2c0.7,0,1.5,0.2,2.3,0.4l0.7-1.5c-0.8-0.4-1.9-0.7-2.9-0.7c-1.1,0-2,0.3-2.7,0.7
						c-0.8,0.5-1.2,1.3-1.2,2.3c0,1.8,1.5,2.5,3,3c0.6,0.2,1.3,0.4,1.7,0.6c0.4,0.2,0.7,0.6,0.7,1c0,0.5-0.3,0.8-0.6,1
						c-0.4,0.2-1,0.3-1.6,0.3c-1.4,0-2.4-0.5-3.1-1l-0.7,1.6c0.9,0.7,2.4,1.2,4,1.2c2.3,0,4.1-1.2,4.1-3.2
						C69.4,19.3,67.9,18.5,66.2,17.9"/>
					<path class="st7" d="M55.1,13.6l-3.2,0v10.5h3.4c3.1,0,5.4-2.2,5.4-5.3C60.7,15.7,58.5,13.6,55.1,13.6 M55.3,22.3h-1.5v-6.8
						h1.3c2.2,0,3.6,1.2,3.6,3.4C58.7,20.9,57.5,22.3,55.3,22.3"/>
					<path class="st7" d="M45.7,18.8c1.2-1.7,2.1-3.1,2.8-5.2h2.2c-1,2.6-2.3,4.7-4,7v3.5h-2v-3.5c-1.7-2.4-3-4.4-4-7H43
						C43.7,15.7,44.5,17.1,45.7,18.8"/>
					<path class="st7" d="M35.5,13.5c-3.2,0-5.4,2.4-5.4,5.4c0,3,2.1,5.4,5.3,5.4c3.2,0,5.4-2.4,5.4-5.4
						C40.8,15.9,38.7,13.5,35.5,13.5 M35.5,22.4c-2.1,0-3.4-1.6-3.4-3.6c0-2,1.2-3.6,3.4-3.6c2.2,0,3.4,1.6,3.4,3.6
						C38.8,20.9,37.6,22.4,35.5,22.4"/>
					<polygon class="st7" points="23.2,24.1 29.1,24.1 29.8,22.3 25.1,22.3 25.1,13.6 23.2,13.6 					"/>
					<polygon class="st7" points="15,24.1 20.9,24.1 21.6,22.3 16.9,22.3 16.9,13.6 15,13.6 					"/>
				</g>
			</g>
		</g>
	</g>
</g>
</svg>
