<?xml version="1.0" encoding="utf-8"?>
<!-- Generator: Adobe Illustrator 25.2.0, SVG Export Plug-In . SVG Version: 6.00 Build 0)  -->
<svg version="1.1" id="Layer_2" xmlns="http://www.w3.org/2000/svg" xmlns:xlink="http://www.w3.org/1999/xlink" x="0px" y="0px"
	 viewBox="0 0 180 75" style="enable-background:new 0 0 180 75;" xml:space="preserve">
<style type="text/css">
	.st0{fill:#FFFFFF;}
</style>
<g>
	<path class="st0" d="M91.4,26.7c-2-1.2-4.2-1.8-6.6-1.8c-2,0-3.8,0.4-5.4,1.2c-1.6,0.8-3,1.9-4.1,3.4c-0.1,0.2-0.2,0.4-0.3,0.5
		v-4.5h-4v37.8h4V47.5c0.1,0.2,0.2,0.3,0.3,0.5c1,1.5,2.4,2.6,4,3.4c1.6,0.8,3.5,1.2,5.5,1.2c2.5,0,4.7-0.6,6.7-1.8
		c2-1.2,3.5-2.9,4.7-5c1.1-2.1,1.7-4.4,1.7-7c0-2.6-0.6-5-1.7-7.1C94.9,29.6,93.3,28,91.4,26.7z M92.4,44c-0.8,1.5-1.9,2.7-3.4,3.6
		c-1.4,0.8-3.1,1.3-5,1.3c-1.9,0-3.5-0.4-4.9-1.3c-1.4-0.9-2.5-2-3.3-3.6c-0.8-1.5-1.2-3.3-1.2-5.2c0-2,0.4-3.8,1.2-5.3
		c0.8-1.5,1.9-2.7,3.3-3.6c1.4-0.9,3-1.3,4.9-1.3c1.8,0,3.5,0.4,4.9,1.3c1.4,0.9,2.6,2.1,3.4,3.6c0.8,1.5,1.2,3.3,1.2,5.3
		C93.6,40.7,93.2,42.5,92.4,44z"/>
	<rect x="121.2" y="25.5" class="st0" width="4" height="26.6"/>
	<polygon class="st0" points="110.3,25.5 110.3,14.3 106.3,14.3 106.3,25.5 99.6,25.5 99.6,29 106.3,29 106.3,52.1 110.3,52.1 
		110.3,29 117,29 117,25.5 117,25.5 	"/>
	<polygon class="st0" points="155,52.1 144.7,38.3 154.5,25.5 149.8,25.5 142.3,35.6 134.6,25.5 129.7,25.5 139.7,38.4 129.2,52.1 
		133.9,52.1 142.1,41.2 150.1,52.1 	"/>
	<path class="st0" d="M123.1,14.1c-0.8,0-1.4,0.3-1.9,0.8c-0.5,0.5-0.8,1.2-0.8,2c0,0.8,0.3,1.4,0.8,2c0.5,0.5,1.2,0.8,1.9,0.8
		c0.8,0,1.5-0.3,2-0.8c0.5-0.5,0.8-1.2,0.8-2c0-0.8-0.3-1.5-0.8-2C124.6,14.4,124,14.1,123.1,14.1z"/>
	<path class="st0" d="M45.7,11.7c-3.7,0-7.2,0.9-10.4,2.8c-3.2,1.8-5.7,4.4-7.6,7.7c-1.9,3.3-2.8,6.8-2.8,10.6
		c0,5.7,2,10.6,6.1,14.7c4.1,4,9,6.1,15,6.1c5.8,0,10.8-2,14.8-6.1c4.1-4.1,6.1-9,6.1-14.8c0-5.9-2-10.8-6.1-14.9
		C56.8,13.7,51.8,11.7,45.7,11.7z M60.6,41.2c-1.5,2.6-3.5,4.7-6.2,6.2c-2.6,1.5-5.5,2.2-8.6,2.2c-4.6,0-8.6-1.6-11.9-4.9
		c-3.3-3.3-4.9-7.3-4.9-12c0-3.2,0.7-6.1,2.2-8.7c1.5-2.6,3.5-4.7,6.2-6.2c2.6-1.5,5.4-2.3,8.4-2.3c3,0,5.8,0.8,8.5,2.3
		c2.7,1.5,4.8,3.6,6.2,6.1c1.5,2.6,2.2,5.4,2.2,8.6C62.8,35.8,62.1,38.6,60.6,41.2z"/>
	<path class="st0" d="M46,24.4c-0.5,0-1,0.1-1.5,0.1l0,0.1c0,3.4-2.8,6.2-6.2,6.2c-0.1,0-0.2,0-0.3,0c-0.1,0.6-0.2,1.2-0.2,1.9
		c0,4.5,3.7,8.2,8.2,8.2c4.5,0,8.2-3.7,8.2-8.2C54.2,28.1,50.5,24.4,46,24.4z"/>
</g>
</svg>
