<?xml version="1.0" encoding="utf-8"?>
<!-- Generator: Adobe Illustrator 25.2.0, SVG Export Plug-In . SVG Version: 6.00 Build 0)  -->
<svg version="1.1" id="Layer_1" xmlns="http://www.w3.org/2000/svg" xmlns:xlink="http://www.w3.org/1999/xlink" x="0px" y="0px"
	 viewBox="0 0 180 75" style="enable-background:new 0 0 180 75;" xml:space="preserve">
<style type="text/css">
	.st0{fill:#FFFFFF;}
	.st1{display:none;}
	.st2{display:inline;fill:none;stroke:#FFFFFF;stroke-miterlimit:10;}
</style>
<g id="logo">
	<path class="st0" d="M45,18.8v37.6h90V18.8H45z M65.7,52.3l-6.1-20.2h-0.2l-4,20.2h-7.4l6.3-29.2h9.9L70,43.3h0.2l4-20.2h7.4
		l-6.3,29.2H65.7z M95.6,52.3l2.5-12.6h-9.2l-2.7,12.6h-7.6l5.9-29.2h8.1l-2.2,11h9l2.5-11h7.9l-6.1,29.2H95.6z M130.3,29.7
		c-1.6-0.7-3.6-1.4-6.5-1.4c-3.1,0-5.6,0.5-5.6,2.9c0,4,11.5,2.7,11.5,11.5c0,8.1-7.4,10.1-14.4,10.1c-2.9,0-6.5-0.7-9-1.6l1.8-6.1
		c1.6,0.9,4.7,1.6,7.2,1.6s6.3-0.5,6.3-3.4c0-4.7-11.5-2.9-11.5-11.3c0-7.6,6.5-9.9,13.1-9.9c3.6,0,7,0.4,9,1.3L130.3,29.7z"/>
</g>
<g id="outline" class="st1">
	<rect x="25" y="10.4" class="st2" width="130" height="54.2"/>
</g>
</svg>
