<?xml version="1.0" encoding="utf-8"?>
<!-- Generator: Adobe Illustrator 25.2.0, SVG Export Plug-In . SVG Version: 6.00 Build 0)  -->
<svg version="1.2" baseProfile="tiny" xmlns="http://www.w3.org/2000/svg" xmlns:xlink="http://www.w3.org/1999/xlink" x="0px"
	 y="0px" viewBox="0 0 180 75" overflow="visible" xml:space="preserve">
<g id="logo">
	<g id="Layer_1_1_" display="none">
	</g>
	<g>
		<path fill="#FFFFFF" d="M25,62c0-3.9,0-7.7,0-11.6c0.2,0,0.4,0,0.6,0c5.7,0,11.5,0,17.2,0c33.6,0,67.3,0,100.9,0
			c5.1,0,9.5-3.2,10.9-8.1c0.1-0.3,0.2-0.7,0.3-1c0,0.1,0,0.3,0,0.4c0,2.7,0,5.3,0,8c0,2.9-0.8,5.7-2.8,7.9c-1.8,2.1-4.3,3.3-7,3.9
			c-1.1,0.2-2.3,0.4-3.5,0.4c-38.7,0-77.4,0-116,0C25.5,62,25.3,62,25,62z M79.2,54c-0.1,1.1-0.2,2.2-0.4,3.3c0,0.1-0.2,0.3-0.3,0.3
			c-0.3,0.1-0.3,0.2-0.2,0.4c0.9,0,1.8,0,2.7,0c0.6,0,1-0.4,1.1-1c0.1-0.6,0-1.1-0.6-1.4c0.1-0.1,0.2-0.1,0.2-0.2
			c0.4-0.3,0.5-0.7,0.4-1.2c-0.1-0.5-0.5-0.7-0.9-0.7c-0.8-0.1-1.5,0-2.3,0c-0.1,0-0.2,0.1-0.2,0.2c0,0.1,0.1,0.2,0.2,0.2
			C79,54,79.1,54,79.2,54z M125.2,54.9c-0.8-0.5-1.5-0.4-1.9,0.2c-0.5,0.6-0.6,1.4-0.4,2.2c0.1,0.6,0.6,0.9,1.2,0.9
			c0.3,0,0.6-0.1,0.9-0.2c0.2,0.4,0.7,0.2,1,0.2c0.1,0,0.1-0.2,0.3-0.4c-0.5,0-0.6-0.2-0.5-0.6c0.1-0.7,0.2-1.5,0.2-2.2
			c0.1-0.6,0.1-1.1,0.2-1.7c-1.2-0.1-1.3-0.1-1.2,0.4c0.1,0,0.3,0.1,0.4,0.1C125.2,54.1,125.2,54.5,125.2,54.9z M61.6,54.9
			c-1.1-0.5-1.9-0.2-2.2,0.8c-0.1,0.4-0.2,0.9-0.1,1.4c0.1,0.9,0.9,1.3,1.7,1c0.1-0.1,0.2-0.1,0.3-0.2c0.3,0.5,0.7,0.2,1,0.2
			c0.1,0,0.2-0.2,0.3-0.4c-0.2-0.1-0.4-0.1-0.5-0.2c0.1-1.5,0.3-2.9,0.4-4.4c-0.4,0-0.8,0-1.2,0c0,0.1,0,0.3,0,0.4
			c0.2,0.1,0.3,0.1,0.5,0.1C61.7,54.1,61.6,54.5,61.6,54.9z M67.1,53.7c-0.2,1.5-0.3,2.9-0.5,4.5c0.3-0.1,0.5-0.2,0.8-0.3
			c0.8,0.6,1.9,0.2,2.2-0.8c0.1-0.2,0.1-0.4,0.1-0.6c0.1-0.6,0.1-1.3-0.5-1.7c-0.5-0.4-1.1-0.2-1.6,0.1c0.1-0.6,0.1-1.2,0.2-1.8
			c-0.4,0-0.7,0-1,0c-0.1,0-0.2,0.1-0.2,0.2c0,0.1,0.1,0.2,0.2,0.3C66.8,53.7,66.9,53.7,67.1,53.7z M132.5,55.2
			c-0.1,0.7-0.1,1.5-0.2,2.2c0,0.1-0.2,0.2-0.3,0.2c-0.3,0-0.3,0.2-0.2,0.5c0.4,0,0.9,0,1.3,0c0.3,0,0.4-0.1,0.3-0.4
			c-0.1-0.1-0.3-0.1-0.4-0.2c0.1-0.6,0.1-1.2,0.2-1.8c0.1-0.4,0.5-0.6,1-0.6c0.4,0.1,0.5,0.4,0.5,0.7c0,0.5-0.1,0.9-0.1,1.4
			c0,0.1-0.2,0.3-0.3,0.3c-0.3,0.1-0.3,0.2-0.2,0.5c0.4,0,0.9,0,1.3,0c0.3,0,0.4-0.1,0.3-0.4c-0.1,0-0.3-0.1-0.4-0.2
			c0.1-0.6,0.1-1.1,0.2-1.7c0.1-0.8-0.3-1.3-1.1-1.2c-0.3,0-0.7,0.2-1,0.3c-0.1-0.2-0.9-0.4-1.1-0.2c-0.1,0.1,0,0.3,0,0.4
			C132.2,55.2,132.4,55.2,132.5,55.2z M71.2,54.7c0,0.2,0,0.3,0.1,0.4c0.1,0.2,0.3,0.4,0.4,0.6c0.2,0.6,0.3,1.2,0.5,1.8
			c0.2,0.7-0.1,1.3-0.9,1.4c0,0.1-0.1,0.3-0.1,0.4c0.7,0.2,1.2,0,1.5-0.8c0.4-0.9,0.8-1.8,1.3-2.7c0.1-0.3,0.4-0.5,0.6-0.8
			c0.1-0.1,0.1-0.2,0.1-0.4c-0.4,0-0.7,0-1.1,0c-0.1,0-0.3,0.1-0.4,0.2c0.1,0.1,0.1,0.3,0.3,0.5c-0.2,0.5-0.5,1.1-0.8,1.8
			c-0.2-0.7-0.3-1.3-0.4-1.8c0.2-0.2,0.3-0.4,0.5-0.7C72.2,54.7,71.7,54.7,71.2,54.7z M100.1,59.4c0.7,0.2,1.1,0,1.5-0.8
			c0.5-1,0.9-1.9,1.4-2.9c0.1-0.2,0.3-0.4,0.5-0.6c0.1-0.1,0.1-0.2,0.1-0.4c-0.4,0-0.7,0-1.1,0c-0.1,0-0.3,0.1-0.4,0.2
			c0.1,0.1,0.2,0.3,0.3,0.5c-0.2,0.5-0.5,1.1-0.8,1.8c-0.2-0.7-0.3-1.3-0.4-1.8c0.2-0.3,0.3-0.4,0.5-0.7c-0.6,0-1,0-1.5,0
			c0,0.2,0,0.3,0.1,0.4c0.1,0.2,0.3,0.4,0.4,0.7c0.2,0.6,0.3,1.2,0.5,1.8c0.2,0.7-0.1,1.3-0.9,1.4C100.1,59.1,100.1,59.2,100.1,59.4
			z M91.4,57.7c0,0-0.1,0.1-0.1,0.1c-0.4-0.5-0.7-0.9-1.1-1.5c0.5-0.4,1-0.8,1.4-1.2c0.1-0.1,0.1-0.2,0.2-0.4c-0.4,0-0.7,0-1,0
			c-0.1,0-0.4,0-0.4,0.1c-0.1,0.1,0,0.3,0.1,0.5c-0.1,0.2-0.3,0.4-0.5,0.6c-0.2-0.2-0.3-0.4-0.4-0.6c0.1-0.2,0.2-0.4,0.3-0.6
			c-0.5,0-0.8,0-1.2,0c-0.1,0-0.2,0.1-0.2,0.2c0,0.1,0,0.2,0.1,0.3c0.4,0.4,0.7,0.8,1.2,1.2c-0.6,0.5-1,0.9-1.5,1.3
			c-0.1,0.1-0.1,0.2-0.2,0.4c0.5,0,0.9,0,1.4,0c0-0.2-0.1-0.4-0.1-0.6c0.2-0.2,0.4-0.4,0.6-0.6c0.2,0.3,0.3,0.5,0.4,0.6
			c-0.1,0.2-0.2,0.4-0.3,0.6c0.5,0,1,0,1.4,0C91.3,57.9,91.4,57.8,91.4,57.7z M42.4,54.7c0,0.2,0,0.4,0.1,0.4
			c0.3,0.1,0.2,0.3,0.2,0.5c0,0.4-0.1,0.9-0.1,1.3c0,0.9,0.7,1.4,1.5,1.1c0.2-0.1,0.3-0.2,0.5-0.3c0.1,0.3,0.7,0.4,1,0.3
			c0.1-0.1,0.1-0.4,0-0.4c-0.3-0.1-0.2-0.3-0.2-0.5c0-0.4,0.1-0.8,0.1-1.2c0-0.4,0.1-0.9,0.1-1.3c-0.4,0-0.7,0-1.2,0
			c0.2,0.2,0.3,0.3,0.3,0.5c0.1,0.1,0.2,0.2,0.2,0.3c0,0.5-0.1,1.1-0.2,1.6c-0.1,0.4-0.5,0.6-0.9,0.6c-0.5-0.1-0.5-0.4-0.5-0.8
			c0-0.2,0-0.5,0.1-0.7c0-0.5,0.1-1,0.1-1.5C43,54.7,42.7,54.7,42.4,54.7z M35.9,57.5c0.1-1.2,0.3-2.4,0.4-3.5c0.4,0,0.6,0,0.9,0
			c0,0.2,0,0.3,0.1,0.5c0.2,0,0.4,0,0.5,0c0-0.3,0.1-0.6,0.1-1c-1,0-2,0-2.9,0c-0.9,0-0.9,0-1,0.9c0,0,0,0.1,0,0.1
			c0.3,0.1,0.6,0.1,0.6-0.3c0-0.1,0.1-0.2,0.2-0.2c0.2,0,0.5,0,0.8,0c-0.1,1.2-0.2,2.3-0.3,3.4c0,0.1-0.2,0.2-0.3,0.2
			c-0.3,0-0.3,0.2-0.3,0.5c0.4,0,0.9,0,1.3,0c0.3,0,0.4-0.1,0.3-0.4C36.2,57.6,36.1,57.6,35.9,57.5z M55.5,56.5c0.6,0,1.2,0,1.8,0
			c0.1,0,0.3-0.1,0.4-0.2c0.1-0.5,0.1-1-0.3-1.4c-0.4-0.4-0.9-0.4-1.3-0.3c-0.7,0.2-1.2,0.9-1.2,1.8c0,0.6,0.1,1.2,0.7,1.5
			c0.4,0.2,1.5,0.2,1.9-0.3c-0.1-0.1-0.1-0.2-0.2-0.4C56,57.9,55.4,57.6,55.5,56.5z M130.4,56.6c0-0.3,0.1-0.4,0.1-0.6
			c0-0.5-0.1-0.9-0.5-1.2c-0.5-0.3-1-0.3-1.5,0c-0.6,0.4-0.9,0.9-1,1.6c-0.1,0.6,0,1.2,0.6,1.5c0.6,0.4,1.2,0.3,1.8,0
			c0.4-0.1,0.4-0.3,0.1-0.6c-1.2,0.5-1.8,0.2-1.7-0.8C129,56.6,129.7,56.6,130.4,56.6z M98.6,56.5c0-0.2,0-0.3,0.1-0.4
			c0-0.6,0-1.1-0.6-1.4c-0.5-0.3-1.2-0.2-1.7,0.3c-0.5,0.4-0.6,1-0.7,1.6c0,0.6,0.2,1.2,0.8,1.4c0.6,0.3,1.4,0.1,1.9-0.3
			c-0.1-0.1-0.1-0.2-0.2-0.4c-0.8,0.3-1.2,0.4-1.5,0.1c-0.3-0.2-0.4-0.5-0.3-0.9C97.2,56.5,97.9,56.5,98.6,56.5z M84.4,56.5
			c0.6,0,1.2,0,1.8,0c0.1,0,0.3,0,0.4-0.1c0.3-0.6-0.1-1.6-0.7-1.7c-1.1-0.3-2,0.5-2.2,1.8c-0.1,0.8,0.2,1.3,0.7,1.6
			c0.6,0.3,1.4,0.1,1.9-0.3c-0.1-0.1-0.1-0.2-0.2-0.4C85,57.9,84.4,57.6,84.4,56.5z M113.7,57.7c-0.1-0.2-0.2-0.3-0.2-0.4
			c-0.5,0.2-1,0.5-1.4,0.2c-0.3-0.2-0.4-0.5-0.3-0.9c0.6,0,1.2,0,1.8,0c0.1,0,0.3-0.1,0.4-0.2c0.1-0.5,0.1-1-0.2-1.4
			c-0.3-0.4-0.8-0.5-1.3-0.4c-0.8,0.2-1.3,0.9-1.4,1.9c0,0.6,0.1,1.2,0.7,1.5C112.4,58.3,113,58.2,113.7,57.7z M50,55.8
			c-0.1-0.3,0-0.7-0.2-0.9c-0.5-0.4-1.5-0.4-2,0.1c-0.6,0.5-0.5,1.2,0.2,1.5c0.3,0.1,0.6,0.2,0.9,0.3c0.1,0.1,0.3,0.2,0.3,0.3
			c0,0.1-0.1,0.3-0.3,0.4c-0.5,0.3-1,0.1-1.2-0.5c-0.1,0-0.3,0-0.5,0c0.1,0.3,0,0.7,0.2,0.9c0.5,0.4,1.6,0.3,2.1-0.1
			c0.6-0.5,0.5-1.3-0.2-1.6c-0.3-0.1-0.6-0.1-0.9-0.3c-0.1-0.1-0.4-0.3-0.3-0.4c0-0.2,0.2-0.4,0.4-0.4c0.5-0.2,0.8,0,1,0.6
			C49.6,55.8,49.7,55.8,50,55.8z M118.2,55.7c-0.1-0.3-0.1-0.7-0.3-0.9c-0.5-0.4-1.5-0.3-2,0.1c-0.6,0.5-0.5,1.2,0.2,1.5
			c0.3,0.1,0.6,0.2,0.9,0.3c0.1,0.1,0.3,0.3,0.3,0.4c0,0.2-0.2,0.4-0.3,0.4c-0.5,0.3-0.9,0.1-1.1-0.5c-0.1,0-0.3,0-0.5,0
			c0.1,0.3,0,0.7,0.2,0.9c0.5,0.5,1.7,0.3,2.2-0.1c0.5-0.5,0.4-1.2-0.3-1.5c-0.3-0.1-0.6-0.1-0.9-0.3c-0.2-0.1-0.2-0.3-0.4-0.5
			c0.2-0.1,0.4-0.3,0.6-0.4c0.3-0.1,0.6,0,0.7,0.3C117.6,55.8,117.8,55.8,118.2,55.7z M140.4,57.1c0.1,0.3,0,0.7,0.2,0.8
			c0.5,0.4,1.7,0.3,2.1-0.1c0.6-0.5,0.5-1.2-0.2-1.5c-0.3-0.1-0.6-0.2-0.9-0.3c-0.1-0.1-0.3-0.4-0.3-0.4c0.2-0.2,0.4-0.4,0.6-0.4
			c0.2,0,0.6,0.1,0.7,0.3c0.1,0.4,0.3,0.4,0.7,0.3c-0.1-0.3-0.1-0.7-0.2-0.8c-0.5-0.5-1.6-0.3-2.1,0.1c-0.5,0.5-0.4,1.2,0.2,1.4
			c0.3,0.1,0.6,0.2,0.9,0.3c0.2,0.1,0.2,0.3,0.4,0.5c-0.2,0.1-0.4,0.3-0.6,0.4c-0.3,0.1-0.6,0.1-0.7-0.3C141,57,140.8,57,140.4,57.1
			z M93.6,53.7c-0.1,1.2-0.3,2.3-0.4,3.4c0,0.4-0.1,0.5-0.5,0.5c0,0,0,0-0.1,0.1c0,0.1,0,0.2,0,0.4c0.5,0,0.9,0,1.3,0
			c0.3,0,0.4-0.1,0.3-0.4c-0.1,0-0.3-0.1-0.4-0.1c0.1-1.5,0.3-2.9,0.4-4.4c-0.4,0-0.8,0-1.1,0C93,53.6,93.2,53.6,93.6,53.7z
			 M138.5,53.8c-0.2,0-0.4,0-0.6,0c0,0.3-0.1,0.5-0.1,0.8c-0.2,0-0.4,0.1-0.5,0.1c0,0.2,0,0.3,0,0.4c0.2,0,0.3,0,0.5,0
			c-0.1,0.6-0.1,1.3-0.2,1.9c0,0.2,0,0.5,0.1,0.7c0.1,0.4,0.6,0.5,1.1,0.3c0.1-0.1,0.2-0.3,0.3-0.5c-0.3-0.1-0.8,0.1-0.7-0.4
			c0-0.7,0.1-1.4,0.2-2.1c0.3,0,0.4,0,0.6-0.1c0-0.2,0-0.3,0-0.4c-0.2,0-0.4,0-0.6-0.1C138.5,54.4,138.5,54.1,138.5,53.8z M52,55.2
			c-0.1,0.7-0.2,1.4-0.2,2c0,0.8,0.3,1.1,1.1,0.9c0.1,0,0.2-0.2,0.3-0.3c-0.1-0.1-0.2-0.2-0.3-0.2c-0.3,0-0.4-0.1-0.4-0.4
			c0.1-0.7,0.1-1.3,0.2-2c0.7-0.1,0.7-0.1,0.6-0.5c-0.2,0-0.4,0-0.6-0.1c0-0.3,0-0.5,0.1-0.8c-0.2,0-0.4,0-0.6,0
			c0,0.3-0.1,0.5-0.1,0.8c-0.2,0-0.3,0-0.5,0.1c0,0.2,0,0.3,0,0.4C51.7,55.1,51.8,55.2,52,55.2z M38.6,58.1c0.4,0,0.8,0,1.3,0
			c0.3,0,0.4-0.1,0.3-0.4c-0.2-0.1-0.4-0.3-0.4-0.4c0-0.5,0.1-1,0.1-1.5c0-0.4,0.3-0.6,0.6-0.6c0.5,0,0.5-0.2,0.5-0.6
			c-0.4-0.2-0.8,0.1-1.1,0.3c-0.1-0.4-0.4-0.4-1.1-0.3c-0.2,0.4,0.2,0.4,0.4,0.5c-0.1,0.7-0.1,1.4-0.2,2.1c0,0.1-0.2,0.3-0.3,0.3
			C38.5,57.7,38.5,57.8,38.6,58.1z M108.1,55.2c-0.1,0.8-0.1,1.5-0.2,2.2c0,0.1-0.2,0.2-0.3,0.2c-0.1,0.1-0.2,0.2-0.4,0.3
			c0,0.1,0.1,0.1,0.1,0.2c0.4,0,0.9,0,1.3,0c0.3,0,0.4-0.1,0.3-0.4c-0.1,0-0.3-0.1-0.5-0.2c0.1-0.6,0.1-1.2,0.2-1.8
			c0.1-0.3,0.3-0.5,0.7-0.5c0.5,0,0.5-0.3,0.5-0.7c-0.4,0.1-0.7,0.3-1.1,0.4c-0.3-0.5-0.7-0.1-1.1-0.2
			C107.5,55.1,107.7,55.1,108.1,55.2z M121,54.7c-0.4,0-0.7,0-0.9,0c-0.1,0-0.2,0.1-0.2,0.2c0,0.1,0.1,0.2,0.2,0.3
			c0.1,0.1,0.2,0.1,0.3,0.1c-0.1,0.7-0.1,1.4-0.2,2.1c0,0.1-0.2,0.3-0.3,0.3c-0.3,0.1-0.3,0.2-0.2,0.5c0.4,0,0.9,0,1.3,0
			c0.3,0,0.4-0.1,0.3-0.4c-0.1-0.1-0.3-0.1-0.4-0.2C120.8,56.6,120.9,55.7,121,54.7z M120.5,53.8c0.2,0,0.4,0,0.7,0
			c0-0.2,0-0.4,0.1-0.6c-0.2,0-0.4,0-0.7,0C120.5,53.4,120.5,53.6,120.5,53.8z"/>
		<path fill="#FFFFFF" d="M58.2,26.1c0.1,0.7-0.3,1.1-0.9,1.3c0.1,0.6,0.2,1.1,0.1,1.7c0,0.4-0.2,0.8-0.4,1.2
			c-0.6,1.1-0.7,2.1-0.3,3.2c0.4,1,0.9,2,1.4,2.9c0.1,0.1,0.4,0.3,0.5,0.3c0.8-0.1,1.2,0.2,1.3,1c0,0.1,0.1,0.2,0.2,0.3
			c0.2,0.3,0,0.4-0.2,0.4c-0.2,0.1-0.4,0-0.8,0c-0.4,0.3-0.4,0.3-0.6-0.3c0-0.1-0.2-0.1-0.3-0.2c-0.1,0.6-0.1,1.1-0.2,1.6
			c0,0.4,0.1,0.7,0.5,0.9c0.3,0.2,0.4,0.5,0.3,0.8c-0.1,0.5-0.1,1.1-0.2,1.6c0,0.1,0,0.1,0,0.2c0.2,0.7-0.4,1-0.8,1.4
			c-0.1,0.1-0.4,0.1-0.6,0c-0.1,0-0.1-0.3-0.1-0.5c0-0.1,0.1-0.3,0.2-0.4c0.5-0.3,0.4-0.9,0.4-1.4c0-0.5-0.2-0.9-0.6-1.3
			c-1-0.8-1.4-1.3-1.7-2.2c-0.4,0.1-0.7,0.3-0.7,0.8c0,0.4,0.1,0.9-0.1,1.2c-0.2,0.2-0.7,0.2-1.1,0.3c-0.4,0.2-0.7,0.5-1.1,0.7
			c-0.4,0.2-0.7,0.5-1.1,0.7c-0.1,0-0.3,0-0.4-0.1c-0.1-0.1-0.1-0.3-0.1-0.5c0.1-0.7,0.7-0.9,1.2-1.2c1.4-0.6,1.4-0.7,1.3-2.2
			c0-0.6,0-1.2,0.1-1.8c0.1-0.3,0.3-0.6,0.5-0.9c-0.4-0.4-1-0.8-1.1-1.6c-0.2,0-0.5,0-0.7,0.1c-0.3,0.1-0.7,0.2-0.8,0.4
			c-0.1,0.4,0,0.8,0.3,1.1c0.2,0.2,0.4,0.4,0.5,0.6c0.2,0.2,0.2,0.7,0,0.9c-0.3,0.3-0.5,0-0.7-0.2c-0.8-0.7-0.8-0.7-1-1.5
			c-0.3,3.8-2.6,6.4-5.4,8.7c-2.7-2.3-5.2-4.7-5.6-8.5c0,0.7-0.6,0.9-0.9,1.3c-0.2,0.2-0.4,0.4-0.7,0.1c-0.2-0.3-0.2-0.6,0-0.8
			c0.2-0.2,0.4-0.4,0.5-0.6c0.2-0.3,0.3-0.6,0.4-0.9c0-0.1-0.1-0.3-0.3-0.4c-0.3-0.1-0.7-0.2-1-0.3c-0.5,0.6-0.9,1.2-1.3,1.7
			c0.5,0.3,0.6,0.8,0.6,1.4c0,0.6,0,1.2,0,1.8c0,0.6,0.1,0.9,0.7,1.2c0.4,0.2,0.9,0.4,1.4,0.7c0.4,0.2,0.7,0.9,0.5,1.2
			c-0.1,0.1-0.3,0.2-0.4,0.1c-0.4-0.2-0.8-0.3-1-0.6c-0.5-0.5-1-0.8-1.7-0.8c-0.6-0.1-0.6-0.1-0.6-0.7c0-0.2,0-0.4,0-0.6
			c0-0.4-0.2-0.7-0.7-0.8c-0.3,1-1,1.7-1.8,2.3c-0.2,0.2-0.4,0.6-0.5,0.9c-0.1,0.3-0.1,0.6,0,0.8c0,0.2,0.2,0.4,0.3,0.7
			c0.1,0.2,0.3,0.4,0.3,0.7c0.1,0.3-0.2,0.6-0.5,0.4c-0.5-0.3-1-0.6-1-1.4c0-0.7-0.1-1.3-0.2-2c0-0.3,0-0.5,0.3-0.6
			c0.4-0.2,0.5-0.6,0.5-1c-0.1-0.5-0.1-0.9-0.3-1.5c-0.1,0.1-0.1,0.2-0.2,0.3c-0.1,0.1-0.1,0.3-0.2,0.3c-0.2,0-0.4-0.1-0.6-0.1
			c-0.5,0.2-0.6,0.2-0.8-0.2c0.1-0.3,0.2-0.5,0.2-0.7c0.1-0.7,0.6-1,1.3-0.8c0.3,0.1,0.5-0.1,0.6-0.3c0.4-0.8,0.8-1.6,1.2-2.4
			c0.5-1,0.5-2,0.2-3.1c-0.1-0.3-0.3-0.5-0.4-0.8c-0.4-0.7-0.3-1.5-0.2-2.3c0-0.1,0-0.2,0-0.4c-0.6-0.3-1-0.6-0.8-1.3
			c-0.8-0.3-1.5-0.5-2.3-0.8c-0.6-0.2-1-0.7-0.9-1.6c0.2,0.3,0.4,0.5,0.5,0.7c0.2,0.2,0.4,0.3,0.6,0.5c0,0,0.1-0.1,0.1-0.1
			c-0.2-0.5-0.3-1.1-0.6-1.6c-0.3-0.6-0.1-1.1,0-1.8c0.2,0.6,0.3,1.1,0.4,1.6c0.1,0,0.1,0,0.2,0c0.2-0.5,0.4-0.9,0.5-1.4
			c0.2,0.4,0.2,0.8,0,1.3c-0.2,0.4-0.2,0.9-0.2,1.3c0,0.5,0.3,0.9,0.8,1.1c0.3-0.8,0.2-1-0.5-1.4c0.3,0,0.5,0,0.8,0
			c-0.2-0.6-0.7-1.2-0.3-1.9c0.2,0.6,0.5,1.1,0.7,1.6c0,0,0.1,0,0.1,0c0-0.4,0-0.9,0-1.3c0.4,0.2,0.5,0.7,0.5,1.3
			c0,0.2,0,0.4-0.1,0.6c-0.1,0.5,0.1,0.8,0.6,1.1c0.1-0.6,0.1-1.1,0.2-1.6c0,0,0.1,0,0.1,0c0.1,0.4,0.1,0.9,0.2,1.3
			c0,0.2-0.1,0.3,0,0.5c0,0.1,0.1,0.3,0.2,0.4c0.1-0.1,0.3-0.2,0.4-0.3c0.1-0.3,0.1-0.6,0.2-0.9c0-0.1,0.1-0.2,0.2-0.2
			c0,0.5,0.1,0.9,0.1,1.5c0.3-0.3,0.6-0.6,0.9-0.9c0,0.3-0.1,0.6-0.1,1c0.4-0.3,0.7-0.5,0.9-0.7c0.1,0.7-0.2,0.9-1.6,1.3
			c0.6,0.3,1,0.6,1.5,0.8c0.3,0.2,0.6,0.4,0.5,0.8c-0.1,0.4-0.5,0.6-1,0.5c-0.1,0-0.3,0-0.4,0c1.2,0.2,1.6,1.1,1.9,2.1
			c0,0,0.1,0,0.1,0c0.1-0.3,0.2-0.6,0.3-0.9c0.3-0.8,0.6-1,1.4-0.7c0.2,0.1,0.4,0.1,0.6,0.2c0.3,0.1,0.6,0.3,0.9,0.5
			c0.2,0.2,0.5,0.4,0.8,0.2c0-0.7,0-1.4,0-2.1c-0.4,0-0.8,0.1-1.2,0.1c0,0.2,0.1,0.4,0.1,0.7c0.4-0.3,0.5-0.8,1-0.6
			c-0.2,0.9-0.3,0.9-1.3,0.9c-0.7,0-0.9-0.2-1.1-1c-0.5,0-1.1-0.1-1.7-0.1c0.4-0.5,0.7-0.9,1.1-1.3c-0.8-0.6-0.9-1.5-0.8-2.4
			c0-0.3-0.1-0.5-0.2-0.8c-0.5,0.1-0.3,0.5-0.4,0.7c-0.5-0.1-0.6-0.4-0.6-0.9c-0.9-0.1-1.3-0.7-1.4-1.5c-0.2-0.9-0.2-0.9,0.4-1.3
			c0,0.7,0.4,1.1,1,1.4c0.1-0.4,0.2-0.7,0.3-1c-0.1-0.2-0.3-0.5-0.4-0.7c-0.9,0.3-1,0.2-1.8-0.5c-0.3-0.3-0.8-0.5-1.2-0.8
			c-0.1-0.1-0.2-0.2-0.2-0.2c-0.1-0.6,0.7-1.3,1.3-1.1c0,0,0.1,0,0.1,0.1c-0.1,0.6,0.7,0.8,0.6,1.4c0,0.1,0.2,0.2,0.3,0.3
			c0.1,0,0.2,0,0.3-0.1c0.8-0.7,1.6-0.5,2.3,0c0.8,0.5,1.3,1.2,1.1,2.2c0,0,0,0,0,0c0.2-0.1,0.4-0.3,0.7-0.5c0,0.4,0.1,0.7,0.1,1.1
			c0.4-0.2,0.5-0.4,0.2-0.8c-0.2-0.4-0.5-0.7-0.5-1.2c0.3,0.1,0.6,0.2,0.9,0.3c0.1,0.1,0.3,0.2,0.3,0.3c0,0.6,0,1.1-0.1,1.7
			c0,0.2-0.2,0.3-0.3,0.4c0.1,0.4,0.2,0.9,0.2,1.3c0,0-0.1,0.1-0.1,0.1c-0.3-0.2-0.5-0.4-0.8-0.6c0,0,0,0-0.1,0.1
			c0.2,0.3,0.4,0.5,0.6,0.8c0.3,0,0.5-0.1,0.8-0.2c0,0.3-0.6,0.7,0.2,0.9c-0.1-0.5,0.2-0.5,0.6-0.5c0-1,0.1-2,0-2.9
			c-0.1-0.8,0-0.9,1-1c0,0.1,0.1,0.3,0.1,0.5c0-0.2,0-0.3,0-0.5c0.3,0.1,0.5,0.1,0.8,0.2c0.5,0.2,1.3,0,1.5-0.6
			c0.1-0.2,0-0.4-0.1-0.5c-0.2-0.3-0.4-0.6-0.6-0.9c-0.1-0.1-0.2-0.1-0.3-0.2c0.1,0.6,0.1,0.6-0.5,0.6c-0.3,0-0.7-0.1-1,0.2
			c-0.1,0.1-0.5,0.1-0.8,0.1c0.2-0.9,1-0.8,1.6-0.8c-0.1-0.5-0.4-1.1,0.4-1.4c-0.3-0.3-0.6-0.5-0.9-0.7c-0.4-0.1-0.8,0.1-0.8,0.6
			c0,0.5-0.4,0.6-0.8,0.8c0.1-0.3,0.1-0.6,0.2-1c0.1-0.2,0.2-0.3,0.3-0.5c0.2-0.4,0.3-0.8,0.9-0.6c-0.1-0.3-0.2-0.6-0.3-0.8
			c-0.1-0.2-0.4-0.3-0.5-0.1c-0.2,0.4-0.5,0.3-0.9,0.2c0.2-0.3,0.4-0.7,0.7-0.7c0.5-0.1,1.2-0.1,1.3,0.7c0.4-0.3,0.7-0.6,1-0.8
			c-0.1-0.1-0.2-0.2-0.3-0.2c-0.2-0.2-0.2-0.4,0.1-0.5c0.3-0.1,0.7-0.3,0.7-0.8c0-0.2,0.5-0.2,0.6,0c0.2,0.4,0.3,0.8,0.4,1.2
			c0.1,0.6-0.1,1.1-0.6,1.4c-0.5,0.3-0.3,0.8-0.1,1.2c0.1,0.4,0.3,0.8,0.5,1.1c0.1,0.1,0.3,0.2,0.4,0.3c0.1-0.1,0.2-0.2,0.2-0.4
			c0-0.4,0-0.7,0.1-1.1c0-0.5,0.3-0.9,0.7-1.2c0,0.1,0,0.2,0.1,0.3c0.1,0,0.2-0.1,0.2-0.1c0.1,0.3,0.2,0.6,0.2,0.9
			c0,0.1,0,0.2,0,0.3c0,0.3,0,0.7-0.2,0.9c-0.1,0.3-0.4,0.5-0.6,0.7c-0.1,0.1-0.2,0.3-0.3,0.4c-0.2-0.1-0.4-0.2-0.7-0.3
			c-0.2,0.3-0.5,0.6-0.1,1c0,0,0,0.2,0,0.3c-0.1,0.2-0.1,0.3-0.2,0.5c0.3,0,0.6-0.1,0.8-0.1c0.7-0.1,0.7,0,0.9,0.7
			c0-0.2,0-0.4,0.1-0.5c0.3,0,0.5,0.1,0.4,0.4c-0.2,1.1-0.1,2.2-0.1,3.3c0,0.3,0.2,0.6,0.3,0.8c0.4-0.3,0.1-0.5-0.1-0.8
			c0.4,0.1,0.6,0.1,0.9,0.1c0.2-0.2,0.4-0.5,0.6-0.7c0,0,0-0.1-0.1-0.1c-0.2,0.2-0.5,0.4-0.7,0.6c-0.1,0-0.1,0-0.2-0.1
			c0.1-0.4,0.1-0.8,0.2-1.3c-0.5-0.4-0.3-1.1-0.4-1.7c-0.1-1,0.9-0.7,1.2-1.2c0.1,0.5-0.2,0.9-0.4,1.2c-0.2,0.3-0.2,0.6,0.2,0.9
			c0-0.4,0-0.7,0.1-1.1c0.2,0.2,0.4,0.3,0.6,0.4c0-0.4,0-0.7,0.2-1.1c0.4-0.9,1.1-1.3,1.9-1.6c0.4-0.1,0.8,0,1.2,0.2
			c0.1,0.1,0.3,0.2,0.4,0.2c0.3,0.1,0.5,0,0.4-0.4c0-0.3,0-0.5,0.3-0.6c0.1,0,0.1-0.1,0.1-0.2c0.1-0.2,0.2-0.5,0.3-0.5
			c0.4,0,0.8-0.1,1,0.4c0.1,0.2,0.2,0.4,0.2,0.7c0,0.1-0.1,0.3-0.2,0.3c-0.3,0-0.5,0.2-0.7,0.5c-0.3,0.4-0.8,0.7-1.2,0.9
			c-0.3,0.1-0.7,0-1,0c0,0,0-0.1,0-0.1c-0.2,0.2-0.3,0.5-0.5,0.7c0.1,0.3,0.2,0.7,0.3,1.1c0.2-0.1,0.5-0.2,0.7-0.4
			c0.2-0.1,0.3-0.3,0.2-0.5c-0.1-0.1,0-0.3,0-0.4c0.1-0.1,0.3-0.1,0.5-0.1c0.4,0.1,0.5,0.5,0.4,0.9c-0.3,0.9-0.7,1.7-1.9,1.9
			c0,0.4-0.1,0.8-0.6,0.9c-0.1-0.3-0.1-0.5-0.2-0.7c-0.1,0-0.1,0-0.2,0c-0.1,0.2-0.1,0.4-0.1,0.6c0,0.4,0,0.7,0,1.1
			c0,0.7-0.3,1.2-0.8,1.6c0.3,0.4,0.7,0.8,1.1,1.3c-0.6,0.1-1.2,0.1-1.7,0.1c-0.3,1.1-0.5,1.1-2.2,0.9c0,0.4,0.1,0.7,0.1,1.2
			c0.5-0.9,1.3-0.9,2-1.1c0.6-0.2,0.9,0,1.1,0.5c0.2,0.4,0.3,0.8,0.5,1.1c0.3-1,0.7-1.9,2-2c0-0.1,0-0.1-0.1-0.2
			c-0.2,0-0.4,0-0.5,0.1c-0.4,0.1-0.6-0.1-0.8-0.4c-0.1-0.1,0-0.4,0.1-0.6c0-0.1,0.2-0.2,0.3-0.3c0.5-0.3,1-0.6,1.5-0.9
			c-0.8-0.1-1.5-0.2-1.6-1.3c0.3,0.3,0.6,0.5,1,0.8c-0.1-0.4-0.1-0.7-0.1-0.9c0.3,0.3,0.5,0.5,0.8,0.8c0,0,0.1-0.1,0.1-0.1
			c0-0.5,0.1-1,0.1-1.4c0,0,0.1,0,0.1,0c0.1,0.2,0.1,0.5,0.2,0.7c0,0.1,0,0.3,0.1,0.4c0.1,0.1,0.2,0.2,0.4,0.3
			c0.1-0.1,0.2-0.3,0.2-0.4c0-0.6-0.1-1.2,0.3-1.8c0.1,0.5,0.1,1,0.2,1.5c0.5-0.2,0.7-0.5,0.6-1c0-0.4-0.1-0.9,0-1.3
			c0-0.2,0.2-0.4,0.3-0.7c0,0,0.1,0,0.1,0c0,0.5,0,0.9,0,1.4c0,0,0.1,0,0.1,0c0.2-0.5,0.5-1.1,0.7-1.6c0.3,0.7-0.1,1.2-0.4,1.8
			c0.3,0,0.5,0,0.9,0c-0.6,0.4-0.6,0.4-0.5,1.5c0.5-0.2,0.8-0.5,0.9-1c0.1-0.5,0.1-1-0.2-1.4c-0.2-0.4-0.2-0.8,0-1.3
			c0.2,0.5,0.4,0.9,0.6,1.4c0.5-0.5,0.4-1.1,0.6-1.6c0.2,0.7,0.3,1.2,0,1.8c-0.3,0.5-0.3,1-0.5,1.6c0.7-0.1,0.8-0.7,1.2-1.1
			c0.1,0.9-0.3,1.4-1.2,1.6c-0.3,0.1-0.7,0.3-1,0.4C58.9,25.9,58.6,26,58.2,26.1z M47.5,27.1c0.1,0.5-0.1,0.9-0.5,1.1
			c0.1,0,0.3,0.1,0.4,0C47.8,28,47.8,27.8,47.5,27.1c-0.3-0.4-0.3-1-1-1c0-0.1,0.1-0.2,0.1-0.3c-0.2,0.1-0.4,0.2-0.6,0.2
			c-0.6,0.1-0.6,0.1-0.6,0.7c0,0.3,0,0.6,0,0.9c0,0.5,0,0.9,0,1.5c0.4-0.1,0.8-0.2,1.2-0.3c-0.5-0.5-0.6-1-0.2-1.3
			C46.7,27.2,47.1,26.9,47.5,27.1z M45.6,43.9c0.1,0,0.2,0,0.3-0.1c0.9-0.9,1.9-1.9,2.8-2.8c-1.1-1.2-2-2.3-3-3.4
			c-1,1.1-2,2.1-3,3.3C43.7,41.9,44.7,42.9,45.6,43.9z M45.7,35.1c1.2-1.4,2.4-2.7,3.6-4c-0.2-0.2-0.3-0.4-0.5-0.7
			c-0.7,0-1.5,0-2.3,0c-0.6,0-1.2,0-1.8,0.1c-0.7,0.1-1.4,0.3-2.1-0.1c-0.1,0.2-0.3,0.4-0.4,0.6C43.3,32.4,44.5,33.8,45.7,35.1z
			 M47.9,16.2c0,0.6-0.1,1.1-0.1,1.6c0,0.3,0,0.6-0.4,0.6c-0.4,0.1-0.6-0.2-0.7-0.5c-0.2-0.4-0.3-0.7-0.5-1.1c-0.2,0-0.4,0-0.5,0
			c0-0.2,0-0.3,0-0.4c0-0.2-0.1-0.4,0-0.6c0.1-0.3,0.3-0.5,0.5-0.7c0.6-0.5,0.7-0.8,0.4-1.5c0-0.1,0-0.2-0.1-0.2
			c-0.4,0.2-0.8,0.5-1.3,0.7c0.5,0.3,0.9,0.1,1.3,0c-0.1,0.2-0.2,0.2-0.3,0.3c-0.4,0.3-0.9,0.5-1.3,0.8c-0.3,0.2-0.5,0.5-0.2,0.9
			c-0.3,0.1-0.5,0.2-0.7,0.2c-0.5,0-0.6,0.3-0.7,0.7c0.3-0.6,0.7-0.4,1.1-0.4c0.2,0,0.5,0,0.8,0c-0.2,0.2-0.4,0.3-0.6,0.4
			c0.3,0.3,0.5,0.6,0.8,1c0,0,0-0.1,0.1-0.1c0,0,0.1,0,0.1,0c0,0.4-0.1,0.9,0,1.2c0.1,0.4,0.5,0.7,0.8,1.1c-0.1-0.3-0.2-0.6-0.2-0.9
			c0-0.3,0.2-0.6,0.3-1c0.1,0.1,0.1,0.3,0.2,0.3c0.4,0.3,1,0.1,1.1-0.3c0.1-0.4,0.3-0.8,0.4-1.2c0,0,0-0.1,0-0.1
			c-0.1,0-0.2,0.1-0.3,0.1c0-0.3,0-0.5,0-0.8C48.3,16.3,48.2,16.3,47.9,16.2z M52.6,22.9C52,22,51.7,21.1,52,20
			c-0.1,0.2-0.3,0.3-0.3,0.5c0,0.7,0.1,1.4,0.2,2.3c-0.3-0.4-0.7-0.8-1-1.3c0,0.4,0,0.7,0,1.2c-0.4-0.3-0.6-0.5-0.9-0.7
			c-0.2,0.7,0.8,0.6,0.8,1.2c-0.6,0-0.6,0-0.7,0.4c0.8-0.4,1.5-0.2,2.1,0.4c0.2-0.3,0.3-0.6,0.6-0.7c0.2-0.1,0.5,0.1,0.8,0.1
			c0-0.1-0.1-0.3-0.2-0.6c1,0.3,1.5,0,1.6-1.1c-0.5,0.3-1,0.5-1.5,0.8c0-0.5,0.3-1-0.2-1.5C53.1,21.7,52.8,22.3,52.6,22.9z
			 M39.5,20.1c0.2,1-0.1,1.9-0.6,2.8c-0.3-0.7-0.5-1.3-0.8-1.9c-0.1,0-0.1,0-0.2,0c0,0.5,0,0.9,0,1.4c-0.5-0.2-1-0.4-1.4-0.5
			c0,0-0.1,0.1-0.1,0.1c0.2,0.2,0.3,0.6,0.6,0.7c0.3,0.1,0.7,0.1,1,0.1c0,0.1-0.1,0.3-0.2,0.6c0.8-0.6,1-0.4,1.2,0.8
			c0.8-0.9,1.3-1,2.4-0.7c0-0.5-0.5-0.2-0.7-0.4c0.2-0.5,1.1-0.5,0.9-1.2c-0.3,0.2-0.6,0.5-1,0.8c0-0.5-0.1-0.8-0.1-1.1
			c-0.3,0.4-0.7,0.8-1,1.2C39.6,21.8,40.3,21,39.5,20.1z M44.6,36.5c-0.3-0.5-0.6-0.5-1.1-0.2c-0.6,0.3-1.1,0.3-1.7,0
			c-0.2-0.1-0.4-0.2-0.7-0.2c-0.6-0.1-0.6,0-0.5,0.6c0,0.2,0.1,0.3,0.1,0.4c0.4,0.1,0.8,0.1,1.1,0.3c0.6,0.3,1.1,0.4,1.7,0
			C43.9,37.1,44.3,36.8,44.6,36.5z M46.9,36.4c0.4,0.7,1.1,1,1.8,1.2c0.2,0.1,0.6,0,0.8,0c0.3-0.1,0.7-0.2,1-0.3
			c0.1,0,0.2-0.1,0.2-0.2c0.1-0.3,0.1-0.6,0.2-1c-0.4,0.1-0.7,0-0.9,0.2c-0.7,0.4-1.3,0.4-1.9,0C47.5,35.9,47.2,36,46.9,36.4z
			 M47.1,24.7c0.5,0,1,0,1.5,0c0-0.8,0-1.6,0-2.4c0-0.1-0.1-0.2-0.1-0.2c-0.4,0-0.8,0-1.2,0c-0.1,0-0.2,0.2-0.2,0.3
			C47.1,23.1,47.1,23.9,47.1,24.7z M44,27.8C44,27.8,44,27.8,44,27.8c0-0.4,0-0.8,0-1.3c0,0,0-0.1,0-0.1c-0.1-0.1-0.1-0.3-0.2-0.4
			c-0.4-0.1-1.1,0.6-1.1,1c0.1,0.7,0.1,1.3,0.1,2c0,0.4,0.2,0.5,0.5,0.4c0.3,0,0.7,0.1,0.7-0.4C44,28.7,44,28.3,44,27.8z M43.2,24.7
			c0.4,0,0.8,0,1.1,0c0.3,0,0.4-0.1,0.4-0.4c0-0.6,0-1.1,0-1.7c0-0.4-0.2-0.5-0.5-0.5c-0.2,0-0.4,0-0.6,0.1c-0.1,0-0.2,0.1-0.2,0.2
			C43.3,23.2,43.2,23.9,43.2,24.7z M43.3,35c-0.9-1.3-2.3-1.8-2.9-1.2c0.1,0.3,0.1,0.6,0.2,1c0.5-0.1,1,0,1.5,0.3
			C42.4,35.2,42.9,35.2,43.3,35z M48.2,34.9c0.4,0.3,0.8,0.3,1.3,0.1c0.5-0.2,0.9-0.3,1.4-0.4c0-0.2,0-0.4,0.1-0.6
			c0.1-0.3,0-0.4-0.2-0.4c-0.1,0-0.3-0.1-0.4,0C49.5,33.9,48.7,34,48.2,34.9z M49,29.4c0-0.8,0-0.9-0.9-0.8
			c-0.8,0.2-1.5,0.5-2.3,0.7c-0.4,0.1-0.4,0.4-0.3,0.8c0.6-0.2,1.1-0.4,1.7-0.5C47.8,29.4,48.4,29.4,49,29.4z M34.9,26.7
			c0.5-0.3,1-0.7,1.5-0.9c-0.4,0.1-0.8,0.3-1.3,0.3c-0.3,0-0.7-0.1-1.1-0.1c-0.7-0.1-1.3-0.3-1.3-1.2c0,0.2,0,0.5,0.1,0.7
			c-0.9-0.2-1.3-0.7-1.3-1.5c0-0.4,0.1-0.8,0.2-1.3c0-0.2,0.1-0.3,0.2-0.5c-0.2,0.2-0.3,0.4-0.4,0.6c-0.2,0.3-0.4,0.3-0.6,0
			c-0.1-0.2-0.2-0.4-0.2-0.5c0,0,0,0-0.1,0c0.3,0.9,0.6,1.7,0.8,2.6c-0.6,0.1-0.9-0.3-1.2-0.6c0.1,0.4,0.3,0.7,0.7,0.8
			c0.5,0.2,1,0.3,1.4,0.5c0.6,0.2,1.2,0.4,1.8,0.5C34.5,26.3,34.9,26.3,34.9,26.7z M59.6,22.4c0.1,0.6,0.3,1.2,0.3,1.9
			c0,0.7-0.6,1.2-1.3,1.3c0-0.2,0-0.4,0-0.6c0,0.6-0.4,0.9-0.9,1c-0.9,0.2-1.9,0.5-2.7-0.1c0.5,0.3,1,0.6,1.4,0.9
			c0.2-0.1,0.4-0.3,0.6-0.4c0.5-0.2,1-0.3,1.5-0.4c0.7-0.2,1.4-0.5,2-0.7c0.4-0.1,0.6-0.4,0.7-0.9c-0.4,0.4-0.7,0.8-1.3,0.7
			c0.3-0.9,0.6-1.7,0.8-2.6c-0.1,0.1-0.2,0.2-0.2,0.3c-0.1,0.1-0.2,0.3-0.4,0.4c-0.1,0-0.3-0.2-0.4-0.3
			C59.7,22.6,59.7,22.4,59.6,22.4z M52.9,32.5c-0.1,0-0.1-0.1-0.2-0.1c-0.5,0-0.7-0.4-0.8-0.8c-0.1-0.4-0.2-0.8-0.3-1.3
			c-0.1-0.4-0.2-0.4-0.4-0.3c0.1,0.1,0.2,0.3,0.2,0.4c0,0.5,0,1-0.1,1.6c0,0.6-0.1,1.1-0.1,1.7C51.9,33.3,52.4,32.9,52.9,32.5z
			 M38.5,32.6c0.5,0.4,1,0.7,1.5,1.1c-0.1-1.2-0.1-2.3-0.2-3.5c0.2,0,0.3-0.1,0.4-0.1c-0.4-0.2-0.5-0.1-0.6,0.2
			c0,0.3-0.1,0.6-0.2,0.9c-0.1,0.5-0.2,1.2-0.9,1.2C38.6,32.4,38.5,32.5,38.5,32.6z M47.5,20.8c-0.1,0.3,0.1,0.8-0.5,0.7
			c0-0.1,0-0.2,0-0.3c0-0.1,0-0.2-0.1-0.4c-0.1,0.8-0.1,0.8-0.5,0.8c0-0.2-0.1-0.3-0.1-0.5c0,0-0.1,0-0.1,0c0,0.2,0,0.4-0.1,0.6
			c-0.1,0-0.3,0-0.4,0.1c0-0.2,0-0.3-0.1-0.5c0,0,0,0-0.1,0c0,0.2-0.1,0.3-0.1,0.7c-0.2-0.2-0.3-0.4-0.4-0.5c0,0.2-0.1,0.4-0.2,0.7
			c0.4,0,0.8,0,1.1-0.1c0.8-0.1,1.5-0.5,2.3-0.3c0.1,0,0.2-0.1,0.2-0.2c-0.6,0-0.4-0.6-0.7-0.9c0,0.2,0,0.3,0,0.4c0,0.1,0,0.2,0,0.3
			C47.6,21.4,47.6,21.4,47.5,20.8z M53.5,20.3c-0.1-0.1-0.2-0.3-0.4-0.4c-0.4-0.3-0.6-0.2-0.8,0.2c-0.2,0.7-0.2,1.4,0.2,2.1
			C52.8,21.6,53.1,21,53.5,20.3z M39,22.2c0.3-0.5,0.4-1,0.3-1.6c-0.1-0.3-0.3-0.6-0.4-0.9c-0.3,0.2-0.6,0.3-0.9,0.5
			C38.3,20.9,38.6,21.5,39,22.2z M40.4,23.7c-0.6,0.1-1.2,0.6-1.1,1.1c0,0.3,0.6,0.8,1,0.8C40.3,25,40.4,24.4,40.4,23.7z M51.1,23.7
			c0.1,0.6,0.1,1.2,0.2,1.9c0.5-0.3,0.8-0.7,0.8-1.2C52.1,24.1,51.6,23.8,51.1,23.7z M56.8,25.9c0.6-0.3,1.8-1.6,1.8-1.9
			c-0.1-0.1-0.2-0.2-0.3-0.2C58.3,23.9,58.2,24,58,24c0-0.4-0.1-0.8-0.1-1.1c-0.1,0.4,0,0.8,0,1.3c0,0.3,0,0.6-0.2,0.8
			c-0.1,0.2-0.3,0.2-0.5,0.4c-0.1-0.2-0.2-0.4-0.3-0.5c0-0.1,0-0.1-0.1-0.2c0,0,0,0-0.1,0C56.8,25.1,56.8,25.5,56.8,25.9z M34.5,26
			c0-0.6,0-1.1,0-1.5c-0.1,0.2-0.1,0.4-0.1,0.6c-0.1,0.3-0.3,0.4-0.5,0.2c-0.3-0.3-0.5-0.6-0.4-1.1c0.1-0.3,0.1-0.7,0.1-1.1
			c0,0-0.1,0-0.1,0c-0.1,0.3-0.1,0.6-0.2,0.9c0,0-0.1,0-0.1,0c-0.1-0.1-0.1-0.2-0.2-0.3c-0.1,0.1-0.2,0.2-0.2,0.3
			c0.2,0.4,0.4,0.8,0.7,1.1C33.8,25.4,34.1,25.7,34.5,26z M45.6,24.8c0.2,0,0.4,0,0.6,0c0.1,0,0.2-0.1,0.3-0.2
			c0.2-0.4-0.1-1-0.4-1.3C45.4,23.6,45.4,24.2,45.6,24.8z M35.4,17.8c-0.7-0.1-0.8,0-0.9,0.7c0.3,0.1,0.5,0.2,0.8,0.3
			c0,0.1,0,0.2-0.1,0.3c0.5,0.1,0.6,0,0.5-0.6c-0.1,0-0.2,0-0.4,0C35.4,18.3,35.4,18.1,35.4,17.8z M57,18.5c0-0.5-0.2-0.7-0.6-0.7
			c-0.6,0.1-0.2,0.5-0.3,0.8c-0.1,0-0.3,0-0.4,0c0,0.6,0.1,0.6,0.6,0.6c0-0.1,0-0.2,0-0.3C56.5,18.7,56.7,18.6,57,18.5z M42.9,29.7
			c-0.2,0.8-0.1,0.9,0.7,0.8c0,0,0.1,0,0.1,0c0.1-0.1,0.3-0.3,0.3-0.4c0-0.1-0.2-0.3-0.3-0.3C43.4,29.7,43.1,29.7,42.9,29.7z
			 M45.8,22.9c0.9,0.4,0.8,1.2,0.9,1.9c0.1,0,0.1,0,0.2,0c0-0.7,0-1.3,0-2C46.5,22.8,46.2,22.8,45.8,22.9z M45.3,19.2
			c-0.3-0.6,0.1-0.6,0.5-0.6c-0.1-0.3-0.2-0.5-0.3-0.7c-0.1-0.2-0.5-0.1-0.6,0.2c0,0.2,0,0.4,0,0.7c0,0.1-0.1,0.3-0.1,0.4
			c0,0,0,0,0,0.1C45,19.2,45.1,19.2,45.3,19.2z M44.8,22.4c0.2,0.1,0.3,0.3,0.4,0.3c0.5,0,1-0.1,1.5-0.1c0.1,0,0.1-0.2,0.2-0.4
			C46.2,22.2,45.6,22.3,44.8,22.4z M49.1,30.6c0.3,0.4,0.6,0.3,0.9,0.2c0.1,0,0.3-0.3,0.3-0.3c-0.1-0.2-0.3-0.3-0.4-0.5
			C49.5,30.2,49.3,30.4,49.1,30.6z M41.6,29.9c-0.2,0.2-0.3,0.4-0.4,0.5c0,0.1,0.2,0.3,0.4,0.3c0.2,0.1,0.5,0.1,0.7-0.2
			C42.1,30.4,41.9,30.2,41.6,29.9z M52,41c-0.3,0.3-0.5,0.6-0.7,0.8c0.2,0.4,0.5,0.3,0.7,0.1C52.4,41.7,52.2,41.4,52,41z M49.8,27.3
			c0.3-0.3,0.3-2.1,0-2.4C49.8,25.7,49.8,26.5,49.8,27.3z M43.2,22c0.3,0,0.6-0.1,0.9-0.1c0.6,0,0.6,0,0.6-0.1
			c-0.2-0.2-0.3-0.4-0.4-0.5c0,0,0,0.1,0,0.3c-0.2,0-0.3,0-0.5,0c0-0.2-0.1-0.3-0.1-0.5C44,21.6,43.1,21.6,43.2,22z M39.4,41
			c-0.1,0.3-0.2,0.5-0.2,0.6c0,0.1,0.1,0.3,0.2,0.4c0.1,0.1,0.3,0.1,0.4,0.1c0.1,0,0.2-0.2,0.1-0.3C39.9,41.5,39.7,41.3,39.4,41z
			 M40.8,28.7c0,0,0.1,0,0.1-0.1c-0.2-0.6-0.2-1.2-0.6-1.8c-0.1,0-0.1,0-0.1,0c-0.3,0.6,0.5,0.9,0.3,1.5
			C40.6,28.5,40.8,28.6,40.8,28.7z M48.3,28.4c0.3,0,0.5,0,0.7,0.1c-0.1-0.3-0.1-0.6,0-0.9c0.2-0.5,0-0.9-0.6-1.1
			c0.2,0.3,0.3,0.6,0.4,0.9c0,0.1,0,0.3,0,0.4C48.6,28,48.5,28.1,48.3,28.4z M45,24.7c0,0,0.1,0,0.1,0c0-0.7,0-1.3,0.5-1.8
			c-0.2,0-0.5,0-0.7,0C45,23.5,45,24.1,45,24.7z M38.9,37.1c0.1-0.3,0.6-0.3,0.4-0.7c-0.1-0.3-0.4-0.1-0.6,0
			C38.5,36.7,38.6,36.9,38.9,37.1z M52,36.4c0,0.1,0,0.1,0,0.2c0.1,0.1,0.2,0.2,0.4,0.3c0.2,0.2,0.4,0.2,0.4-0.1
			c0-0.2-0.1-0.4-0.3-0.5C52.3,36.3,52.1,36.4,52,36.4z M33.5,43.4c-0.2,0.2-0.3,0.4-0.3,0.5c0.2,0.2,0.4,0.3,0.5,0.5
			c0,0,0.2-0.2,0.2-0.2C33.8,43.9,33.7,43.7,33.5,43.4z M44.4,25.8c0.5,0,1,0,1.5,0C45.3,25.5,44.6,25.5,44.4,25.8z M58.4,43.8
			c-0.2-0.1-0.4-0.3-0.5-0.2c-0.2,0.1-0.3,0.3-0.4,0.4c0,0,0.1,0.2,0.2,0.3C57.9,44.2,58.1,44,58.4,43.8z M42.2,39
			c-0.3-0.1-0.6-0.3-0.9-0.4c0,0,0,0.1-0.1,0.1c0.2,0.3,0.3,0.6,0.5,0.9C41.9,39.3,42.1,39.2,42.2,39z M56.2,27.4
			c-0.6-0.3-0.8-0.3-1,0.3C55.6,27.9,55.9,27.8,56.2,27.4z M35.2,27.4c0.4,0.5,0.6,0.5,1.1,0.3C35.9,27.2,35.9,27.1,35.2,27.4z
			 M58.5,24.7c0.1,0.1,0.1,0.2,0.2,0.2c-0.4,0.3-0.8,0.6-1,0.8C58.3,25.7,58.5,25.5,58.5,24.7z M40.9,32.2c-0.2-0.3-0.4-0.5-0.7-0.7
			c0,0.4,0,0.6,0,0.9C40.4,32.3,40.6,32.3,40.9,32.2z M33,25c-0.1,0.4,0.2,0.7,0.8,0.7C33.5,25.6,33.2,25.3,33,25z M49.7,39.6
			c0.2-0.3,0.3-0.6,0.5-0.9c-0.4,0.2-0.6,0.3-0.9,0.4C49.4,39.2,49.5,39.3,49.7,39.6z M34.7,29.6c0.5,0.5,0.9-0.1,1.4-0.2
			c-0.3-0.2-0.4,0-0.7,0.1C35.2,29.5,35,29.5,34.7,29.6z M55.3,29.2c0,0,0,0.1,0,0.1c0.5,0.1,0.9,0.7,1.4,0.2
			C56.2,29.5,55.8,29.3,55.3,29.2z M50.1,28.1c-0.3,0-0.5,0-0.8,0c0.2,0.2,0.4,0.4,0.7,0.7C50,28.5,50,28.3,50.1,28.1z M50.6,32.2
			c0.2,0.1,0.4,0.1,0.6,0.1c0-0.3,0-0.5,0-0.8C51,31.8,50.8,32,50.6,32.2z M39.8,26c0.2,0.3,0.3,0.4,0.4,0.7
			C40.4,26.2,40.3,26,39.8,26z M35.1,30.3c0.5,0.4,0.8-0.3,1.3-0.2C35.9,29.7,35.6,30.5,35.1,30.3z M56.2,30.4
			c-0.2-0.1-0.5-0.1-0.6-0.3c-0.2-0.1-0.4-0.2-0.6,0C55.5,30,55.8,30.7,56.2,30.4z M54.6,30.3c-0.3-0.1-0.7-0.2-1-0.4
			C54,30.4,54.3,30.5,54.6,30.3z M36.8,30.3c0.3,0.2,0.8,0,1-0.4C37.5,30.1,37.1,30.2,36.8,30.3z M44,14.9C44,14.9,43.9,15,44,14.9
			c0.1,0.4,0.2,0.7,0.4,1c0.1,0,0.1-0.1,0.2-0.1C44.4,15.5,44.2,15.2,44,14.9z M54.1,29.2c0,0,0,0.1,0,0.1c0.4,0.4,0.5,0.4,0.8,0.2
			C54.6,29.4,54.3,29.3,54.1,29.2z"/>
		<path fill="#FFFFFF" d="M64.2,25.6c0.3,0,0.5,0,0.7,0c2.1-0.1,4.2-0.2,6.2-0.3c1.6-0.1,3.1,0.3,4.4,1.3c1.5,1.1,2.1,3,1.5,4.7
			c-0.4,1.2-1.4,1.9-2.5,2.5c-0.2,0.1-0.3,0.1-0.6,0.3c1.1,0.3,1.9,0.7,2.7,1.3c2.4,2.1,2.1,5.8-0.5,7.7c-1.4,1-3.1,1.4-4.8,1.4
			c-2.2,0-4.4-0.1-6.6-0.1c-0.1,0-0.1,0-0.2,0c0-1,0-1.9,0-2.8c0-4,0-8,0-12c0-1.1-0.2-2.2-0.4-3.3C64.2,26,64.2,25.9,64.2,25.6z
			 M68.7,35.5c0,0.1,0,0.1,0,0.2c0,1.9,0,3.8,0,5.7c0,0.3,0.2,0.3,0.4,0.4c0.9,0.2,1.9,0.2,2.8,0c1-0.3,1.9-0.8,2.3-1.8
			c0.8-1.9-0.1-3.7-2.2-4.3C70.9,35.3,69.8,35.3,68.7,35.5z M68.6,30.6c0,0.7,0,1.4,0,2.1c0,0.3,0.1,0.4,0.4,0.4
			c0.6,0,1.3,0,1.9-0.1c1-0.2,1.9-0.6,2.3-1.7c0.4-1.4-0.4-2.8-1.8-3.1c-0.8-0.2-1.6-0.1-2.4-0.1c-0.3,0-0.4,0.1-0.4,0.4
			C68.6,29.2,68.6,29.9,68.6,30.6z"/>
		<path fill="#FFFFFF" d="M131.7,25.7c0.1,1,0.1,2,0.2,2.9c-2.2,0-4.3,0-6.4,0c0,0.1,0,0.2,0,0.4c0,1.2,0,2.4,0,3.6
			c0,0.4,0.1,0.5,0.5,0.5c1.8,0,3.6-0.1,5.4-0.1c0.1,0,0.2,0,0.3,0c0,1,0,2,0,3c-0.5,0-0.9,0-1.3,0c-1.5,0-3,0-4.4-0.1
			c-0.3,0-0.4,0-0.4,0.4c0,1.6,0,3.3,0,4.9c0,0.1,0,0.1,0.1,0.3c2.2-0.1,4.5-0.2,6.7-0.4c-0.1,1-0.1,2-0.2,3.1c-3.5,0-7.1,0-10.6,0
			c-0.1-6.2,0.4-12.4-0.4-18.7C124.5,25.7,128.1,25.7,131.7,25.7z"/>
		<path fill="#FFFFFF" d="M90.4,28.6c-2.2,0-4.3,0-6.4,0c0,1.5,0,2.9,0,4.5c0.2,0,0.4,0,0.5,0c1.8,0,3.5-0.1,5.3-0.1
			c0.2,0,0.4-0.1,0.4,0.3c0,0.9-0.1,1.9-0.1,2.8C88,36,86,36,84,36c0,1.8,0,3.6,0,5.4c2.2,0.1,4.5,0,6.8-0.4
			c-0.1,1.1-0.1,2.1-0.2,3.2c-3.6,0-7.1,0-10.6,0c0-0.9,0-1.7,0-2.5c0-1.8,0-3.5,0-5.3c0-2.4,0-4.9-0.1-7.3c0-1.2-0.2-2.3-0.4-3.5
			c3.5,0,7.1,0,10.7,0C90.3,26.7,90.3,27.6,90.4,28.6z"/>
		<path fill="#FFFFFF" d="M91.2,44.3c1.9-2.9,3.8-5.7,5.7-8.5c0.6-0.8,0.6-1.4,0.1-2.2c-1.4-2.1-2.8-4.3-4.2-6.5
			c-0.3-0.4-0.7-0.8-1.1-1.3c0.3,0,0.6-0.1,0.8-0.1c1-0.1,2-0.1,3-0.2c0.3,0,0.5,0.1,0.6,0.3c1.1,1.8,2.1,3.6,3.2,5.4
			c0.1,0.1,0.2,0.2,0.3,0.5c0.6-1,1.2-2,1.8-3c0.4-0.8,0.8-1.7,1.2-2.5c0.1-0.3,0.3-0.4,0.6-0.4c1.2-0.1,2.5-0.2,3.8-0.3
			c-0.7,1.1-1.4,2.2-2.1,3.3c-1.2,1.8-2.4,3.5-3.5,5.3c-0.1,0.2-0.2,0.4-0.1,0.6c1.7,2.7,3.5,5.5,5.2,8.2c0.3,0.5,0.7,0.9,1.1,1.5
			c-0.2,0-0.3,0-0.4,0c-1.1,0-2.2,0-3.3,0c-0.3,0-0.5-0.1-0.6-0.4c-1.2-2-2.5-4-3.7-6c-0.1-0.1-0.2-0.3-0.3-0.5
			c-0.9,1.6-1.8,3-2.6,4.5c-0.4,0.7-0.7,1.4-1.1,2c-0.1,0.1-0.3,0.3-0.4,0.3c-1.3,0-2.5,0-3.8,0C91.3,44.4,91.2,44.3,91.2,44.3z"/>
		<path fill="#FFFFFF" d="M132.6,25.8c1.1-0.1,2.1-0.1,3.2-0.3c0.9-0.2,1.4,0.2,1.7,1c1.1,2.2,2.2,4.3,3.3,6.5
			c0.1,0.2,0.2,0.4,0.3,0.6c0.1-0.1,0.1-0.2,0.2-0.2c1-2.4,2-4.8,3.1-7.1c0.1-0.3,0.3-0.4,0.6-0.4c1.2-0.1,2.4-0.2,3.7-0.3
			c-0.4,0.9-0.9,1.7-1.3,2.5c-1.4,2.7-2.8,5.4-4.2,8.2c-0.1,0.2-0.2,0.5-0.2,0.7c0.1,2.4,0.2,4.8,0.2,7.3c0,0.1,0,0.1,0,0.2
			c-1.5,0-2.9,0-4.4,0c0.1-0.8,0.2-1.6,0.2-2.3c0-1.7,0-3.4,0-5.2c0-0.2-0.1-0.4-0.2-0.6c-1.8-3.5-3.6-7-6-10.2
			C132.7,26,132.6,25.9,132.6,25.8z"/>
		<path fill="#FFFFFF" d="M108.8,44.4c0-1,0-1.9,0-2.8c0-4,0-8.1,0-12.1c0-1.1-0.2-2.2-0.4-3.3c0-0.1,0-0.3-0.1-0.5c1.5,0,3,0,4.5,0
			c0,5.3,0,10.5,0,15.8c2.4,0.1,4.7,0,7.1-0.4c0,0.2,0,0.3,0,0.5c0,0.8-0.1,1.6-0.1,2.3c0,0.4-0.1,0.5-0.5,0.5c-1.7,0-3.3,0-5,0
			c-1.7,0-3.4,0-5,0C109.1,44.4,108.9,44.4,108.8,44.4z"/>
		<path fill="#FFFFFF" d="M78.8,22.5c-0.3,0.1-0.5,0.1-0.7,0.1c-0.1,0-0.3-0.2-0.4-0.3c-0.9-1.5-1.8-3.1-2.7-4.6
			c0-0.1-0.1-0.1-0.2-0.2c0,1.7,0,3.3,0,5c-0.2,0-0.5,0-0.8,0c0-2,0-4,0-6.1c0.8-0.2,0.9-0.1,1.4,0.6c0.8,1.3,1.6,2.7,2.4,4
			c0.1,0.1,0.1,0.2,0.2,0.4c0-1.7,0-3.3,0-5c0.2,0,0.5,0,0.8,0C78.8,18.4,78.8,20.4,78.8,22.5z"/>
		<path fill="#FFFFFF" d="M92,17.5c0,1.7,0,3.3,0,5c-0.2,0-0.5,0-0.8,0c0-2,0-4,0-6.1c0.7-0.2,0.9-0.1,1.3,0.5
			c0.8,1.3,1.6,2.7,2.4,4c0.1,0.1,0.1,0.3,0.3,0.4c0-1.7,0-3.3,0-5c0.2,0,0.5,0,0.8,0c0,2,0,4,0,6.1c-0.2,0-0.4,0.1-0.5,0.1
			c-0.3,0.1-0.4,0-0.6-0.3c-0.9-1.5-1.8-3.1-2.6-4.6C92.1,17.7,92,17.6,92,17.5z"/>
		<path fill="#FFFFFF" d="M102.3,19.1c0.5,0.3,0.9,0.7,1,1.3c0.2,1.1-0.6,2.1-1.8,2.1c-0.6,0-1.2,0-1.9,0c0-2.1,0-4.1,0-6.1
			c0.7,0,1.5-0.1,2.3,0c0.6,0.1,1,0.5,1.1,1.1c0.1,0.6-0.1,1.1-0.5,1.4C102.4,19,102.3,19.1,102.3,19.1z M100.4,19.4
			c0,0.8,0,1.5,0,2.2c0,0.1,0.1,0.3,0.2,0.3c0.3,0,0.7,0,1-0.1c0.5-0.1,0.7-0.4,0.8-0.9c0.1-0.5-0.1-1-0.6-1.2
			C101.5,19.5,101,19.5,100.4,19.4z M100.4,18.9c0.5-0.1,0.9-0.1,1.2-0.2c0.4-0.1,0.6-0.4,0.6-0.8c0-0.4-0.2-0.6-0.6-0.7
			c-0.3-0.1-0.6-0.1-0.9-0.1c-0.1,0-0.3,0.2-0.3,0.2C100.4,17.7,100.4,18.3,100.4,18.9z"/>
		<path fill="#FFFFFF" d="M80.1,22.5c0-2.1,0-4.1,0-6.2c0.8,0.1,1.6,0,2.5,0.2c1.1,0.2,1.9,1,2.1,2.2c0.1,0.5,0.1,1.1,0.1,1.6
			c-0.1,1.2-0.9,2-2.1,2.2C81.8,22.6,81,22.5,80.1,22.5z M81,21.8c1.9,0.3,2.8-0.4,3-2.1c0.1-1.6-0.9-2.8-2.5-2.8
			c-0.3,0-0.5,0.1-0.4,0.4c0,0.3,0,0.7,0,1C81,19.6,81,20.7,81,21.8z"/>
		<path fill="#FFFFFF" d="M119.1,19.3c-0.1,0.9-0.3,1.6-0.8,2.3c-0.9,1.3-2.7,1.4-3.7,0.2c-1-1.1-1.2-3-0.4-4.3
			c0.5-0.9,1.3-1.3,2.3-1.3c1,0,1.7,0.4,2.1,1.3C118.8,18.1,118.9,18.7,119.1,19.3z M118.2,19.1c-0.1-0.3-0.2-0.9-0.5-1.4
			c-0.6-1.1-2-1.1-2.7-0.1c-0.8,1.1-0.6,3.1,0.5,4c0.6,0.5,1.3,0.5,1.9-0.1C118,20.9,118.1,20.2,118.2,19.1z"/>
		<path fill="#FFFFFF" d="M143.3,19.2c0,1-0.2,1.8-0.7,2.5c-0.8,1.1-2.4,1.3-3.4,0.3c-1.2-1.1-1.5-3.4-0.5-4.8
			c0.6-0.9,1.5-1.2,2.6-1c1.2,0.2,1.7,1,2,2.1C143.3,18.7,143.3,19,143.3,19.2z M138.9,19.2c0,0.8,0.2,1.6,0.8,2.3
			c0.7,0.7,1.6,0.7,2.2-0.1c0.7-1,0.8-2.6,0.1-3.7c-0.6-1-1.9-1-2.6-0.1C139,18,138.9,18.6,138.9,19.2z"/>
		<path fill="#FFFFFF" d="M90.4,19.3c0,0.9-0.2,1.7-0.7,2.4c-0.8,1.1-2.3,1.3-3.3,0.4c-1.4-1.1-1.7-3.6-0.6-5
			c1.1-1.4,3.3-1.3,4.1,0.3c0.3,0.5,0.4,1.2,0.6,1.8C90.4,19.3,90.4,19.3,90.4,19.3z M89.5,19.1c-0.1-0.3-0.2-0.8-0.4-1.3
			c-0.2-0.6-0.7-0.9-1.4-0.9c-0.7,0-1.2,0.3-1.5,0.9c-0.6,1.1-0.4,2.8,0.5,3.7c0.6,0.7,1.5,0.6,2.1-0.1
			C89.3,20.8,89.5,20.1,89.5,19.1z"/>
		<path fill="#FFFFFF" d="M103.6,19.2c0-1,0.3-1.9,1.3-2.6c1.4-0.9,3.1-0.3,3.7,1.3c0.5,1.3,0.4,2.5-0.4,3.7
			c-0.9,1.4-2.8,1.5-3.8,0.2C103.9,21,103.7,20.2,103.6,19.2z M108.1,19.1c-0.1-0.2-0.1-0.7-0.3-1.1c-0.3-0.6-0.7-1.1-1.4-1.1
			c-0.7,0-1.2,0.4-1.6,1c-0.6,1.1-0.3,2.8,0.5,3.6c0.7,0.7,1.5,0.6,2.1-0.1C107.9,20.8,108.1,20.1,108.1,19.1z"/>
		<path fill="#FFFFFF" d="M67.9,19.2c0.2-0.6,0.3-1.1,0.5-1.7c0.4-0.9,1.2-1.3,2.2-1.4c1,0,1.7,0.4,2.2,1.2c0.8,1.3,0.6,3.3-0.3,4.4
			c-0.9,1.1-2.6,1.1-3.5,0C68.3,21.2,68,20.3,67.9,19.2z M72.5,19.1c-0.1-0.3-0.2-0.9-0.5-1.4c-0.6-1.1-2-1.1-2.7-0.1
			c-0.8,1.1-0.6,3.1,0.5,4c0.6,0.5,1.3,0.5,1.8,0C72.3,21,72.4,20.2,72.5,19.1z"/>
		<path fill="#FFFFFF" d="M110.5,19.8c0,0.9,0,1.7,0,2.7c-0.2,0-0.5,0-0.9,0c0-2,0-4,0-6.1c0.7,0,1.6-0.1,2.4,0
			c0.6,0.1,1.1,0.5,1.2,1.2c0.1,0.7-0.2,1.3-0.8,1.7c-0.1,0.1-0.3,0.2-0.5,0.3c0.6,1,1.3,1.9,1.9,2.8c-0.7,0.2-0.9,0.1-1.3-0.4
			c-0.4-0.6-0.7-1.1-1-1.7C111.3,19.8,111,19.7,110.5,19.8z M111.1,17c-0.3,0.1-0.6-0.1-0.6,0.4c0,0.5,0,1,0,1.5
			c0,0.1,0.2,0.3,0.2,0.3c0.5,0,1-0.1,1.4-0.4c0.6-0.5,0.5-1.3-0.3-1.6C111.6,17,111.3,17,111.1,17z"/>
		<path fill="#FFFFFF" d="M130.2,16.4c0.2,0,0.5,0,0.9,0c0,0.8,0,1.6,0,2.5c1,0,1.9,0,3,0c0-0.8-0.1-1.6-0.1-2.4c0.3,0,0.6,0,0.9,0
			c0,2,0,4,0,6.1c-0.2,0-0.5,0-0.8,0c0-0.9,0-1.9,0-2.9c-1,0-1.9,0-2.9,0c0,1,0,1.9,0,2.9c-0.3,0-0.5,0-0.9,0
			C130.2,20.5,130.2,18.4,130.2,16.4z"/>
		<path fill="#FFFFFF" d="M124.1,22.5c-0.2,0-0.4,0-0.6,0c0-0.2-0.1-0.4-0.1-0.6c-0.4,0.2-0.7,0.5-1.1,0.7c-1.2,0.4-2.2-0.2-2.4-1.5
			c-0.1-0.5-0.1-1-0.1-1.4c0-0.5,0-1.1,0-1.6c0-0.5-0.1-1-0.1-1.6c0.3,0,0.6,0,0.9,0c0,1.1,0,2.2,0,3.3c0,0.4,0,0.8,0.1,1.2
			c0.1,0.7,0.4,1,0.9,1.1c0.7,0.1,1.3-0.2,1.5-0.8c0.1-0.4,0.2-0.9,0.2-1.4c0-1.1,0-2.2-0.1-3.4c0.2,0,0.5,0,0.9,0
			C124.1,18.4,124.1,20.4,124.1,22.5z"/>
		<path fill="#FFFFFF" d="M128.7,20.2c-0.4,0-0.8,0-1.2,0c0-0.2,0-0.4,0-0.6c0.6,0,1.2,0,1.9,0c0,0.7,0,1.5,0,2.2
			c0,0.9,0,0.9-0.9,0.9c-2.6,0.1-4.3-1.9-3.6-4.4c0.3-1.3,1.4-2,2.8-2c0.3,0,0.6,0,0.9,0.1c0.6,0.1,0.6,0.1,0.5,0.7
			c-0.3,0-0.5-0.1-0.8-0.1c-2-0.2-3,0.9-2.7,2.8c0.2,1.4,1.3,2.3,2.7,2.3c0.3,0,0.5-0.1,0.5-0.5C128.7,21.1,128.7,20.7,128.7,20.2z"
			/>
		<path fill="#FFFFFF" d="M143.9,16.4c1,0,2,0,3.1,0c0,0.2,0.1,0.4,0.1,0.7c-0.8,0-1.5,0-2.3,0c0,0.6,0,1.3,0,1.9c0.7,0,1.4,0,2.1,0
			c0,0.2,0,0.4,0,0.7c-0.7,0-1.4,0-2.1,0c0,1,0,1.9,0,2.8c-0.3,0-0.6,0-0.9,0C143.9,20.5,143.9,18.4,143.9,16.4z"/>
		<path fill="#FFFFFF" d="M35.9,44.5c0.5-0.1,0.9-0.2,1.2-0.4c1.9-0.9,3.8-0.7,5.6,0c2,0.8,3.8,0.7,5.8,0c1.4-0.5,3-0.8,4.5-0.3
			c0.6,0.2,1.1,0.4,1.7,0.6c0.2,0.1,0.4,0.1,0.6,0.2c0-0.2,0-0.4,0-0.5c0-0.4,0.2-0.5,0.5-0.5c0.3-0.1,0.5,0.1,0.6,0.4
			c0,0.7,0.1,1.4,0,2.1c0,0.4-0.5,0.7-1,0.6c-0.5-0.1-0.9-0.2-1.4-0.4c-1.8-0.9-3.7-0.7-5.5-0.1c-0.8,0.2-1.5,0.5-2.3,0.6
			c-1.1,0.2-2.1-0.1-3.1-0.5c-1.3-0.5-2.6-0.8-4-0.7c-0.7,0.1-1.3,0.4-2,0.6c-0.4,0.1-0.9,0.3-1.3,0.4c-0.6,0.1-1-0.2-1-0.8
			c0-0.5,0-1.1,0-1.6c0-0.3,0.1-0.6,0.5-0.6c0.4,0,0.6,0.2,0.5,0.6C35.9,44.1,35.9,44.3,35.9,44.5z M55.3,44.8
			c-0.7-0.3-1.4-0.5-2.1-0.7c-0.8-0.3-1.5-0.4-2.3-0.3c-0.9,0.2-1.8,0.4-2.8,0.6c-0.9,0.2-1.8,0.5-2.6,0.5c-0.9,0-1.8-0.3-2.7-0.6
			c-1.3-0.4-2.6-0.8-4-0.5c-0.7,0.1-1.4,0.5-2.1,0.6c-0.6,0.1-1,0.4-0.9,1.1c0,0,0,0,0,0.1c-0.6-0.3-0.8-0.2-0.8,0.3
			c0,0.3,0.3,0.6,0.8,0.5c0.5-0.1,1-0.2,1.5-0.4c1.9-0.8,3.7-0.6,5.6,0c0.7,0.2,1.3,0.4,2,0.6c1.2,0.2,2.4-0.1,3.6-0.5
			c1.6-0.5,3.2-0.9,4.9-0.3c0.6,0.2,1.2,0.4,1.8,0.6c0.3,0.1,0.6,0.1,0.8,0c0.3-0.1,0.4-0.3,0.3-0.6c-0.1-0.3-0.3-0.3-0.6-0.2
			c-0.1,0-0.2,0.1-0.3,0.1C55.3,45.3,55.3,45.1,55.3,44.8z M35.7,45.3c0-0.4,0-0.8,0-1.2c0-0.3-0.1-0.5-0.4-0.4
			c-0.2,0-0.4,0.3-0.4,0.4c-0.1,0.4,0,0.8,0,1.2C35.2,45.2,35.5,45.2,35.7,45.3z M56.2,45.3c0-0.5,0-0.9,0-1.4
			c0-0.1-0.3-0.3-0.3-0.3c-0.1,0-0.3,0.2-0.4,0.4c0,0.4,0,0.9,0,1.3C55.8,45.3,56,45.3,56.2,45.3z"/>
		<path fill="#FFFFFF" d="M64.7,22.5c0-2.1,0-4.1,0-6.1c0,0,0.1,0,0.2,0c0.2,0,0.4,0,0.7,0c0,1.8,0,3.6,0,5.5c0.8,0,1.6,0,2.4,0
			c0,0.2,0,0.4,0,0.7C66.9,22.5,65.8,22.5,64.7,22.5z"/>
		<path fill="#FFFFFF" d="M57,18.5c-0.3,0.1-0.5,0.2-0.8,0.4c0,0.1,0,0.2,0,0.3c-0.5,0.1-0.5,0-0.6-0.6c0.1,0,0.3,0,0.4,0
			c0.2-0.3-0.2-0.7,0.3-0.8C56.8,17.8,56.9,18,57,18.5z"/>
		<path fill="#FFFFFF" d="M44,14.9c0.2,0.3,0.4,0.6,0.6,0.9c-0.1,0-0.1,0.1-0.2,0.1C44.2,15.6,44.1,15.3,44,14.9
			C43.9,15,44,14.9,44,14.9z"/>
		<path fill="#FFFFFF" d="M79.7,56c0.4,0,0.7,0,1,0c0.6,0,0.8,0.2,0.8,0.6c0,0.5-0.2,0.9-0.7,1c-0.4,0-0.8,0-1.3,0
			C79.6,57,79.7,56.5,79.7,56z"/>
		<path fill="#FFFFFF" d="M79.8,55.4c0-0.5,0.1-0.9,0.1-1.4c0.4,0,0.7,0,1,0c0.4,0,0.6,0.2,0.6,0.6c0,0.4-0.3,0.7-0.7,0.7
			C80.6,55.4,80.2,55.4,79.8,55.4z"/>
		<path fill="#FFFFFF" d="M125.1,55.9c0,0.3-0.1,0.6-0.1,0.9c0,0.5-0.4,0.8-0.8,0.8c-0.4,0-0.7-0.3-0.7-0.8c0-0.4,0.1-0.8,0.2-1.2
			c0.1-0.3,0.4-0.5,0.8-0.5C124.9,55.2,125.1,55.4,125.1,55.9z"/>
		<path fill="#FFFFFF" d="M59.8,56.7c0.1-0.4,0.2-0.7,0.3-1.1c0.2-0.4,0.6-0.6,1-0.4c0.4,0.1,0.5,0.4,0.4,0.8
			c-0.1,0.2-0.1,0.5-0.1,0.8c-0.1,0.6-0.4,0.9-0.9,0.8C60.1,57.6,59.8,57.3,59.8,56.7z"/>
		<path fill="#FFFFFF" d="M67.4,56.6c0-0.2,0-0.5,0.1-0.8c0-0.4,0.4-0.7,0.8-0.7c0.4,0,0.7,0.2,0.7,0.6c0,0.4,0,0.9-0.1,1.3
			c-0.1,0.3-0.4,0.5-0.7,0.6C67.7,57.7,67.4,57.3,67.4,56.6z"/>
		<path fill="#FFFFFF" d="M55.6,56c0.2-0.6,0.5-0.9,0.9-0.8c0.4,0,0.5,0.2,0.6,0.8C56.6,56,56.1,56,55.6,56z"/>
		<path fill="#FFFFFF" d="M129.8,56c-0.5,0-0.9,0-1.4,0c0-0.5,0.4-0.9,0.8-0.8C129.7,55.2,129.8,55.4,129.8,56z"/>
		<path fill="#FFFFFF" d="M97.9,56c-0.5,0-0.9,0-1.4,0c0-0.5,0.4-0.9,0.9-0.8C97.9,55.2,98,55.5,97.9,56z"/>
		<path fill="#FFFFFF" d="M84.5,56c0.2-0.7,0.6-0.9,1-0.8c0.4,0.1,0.5,0.4,0.4,0.8C85.5,56,85,56,84.5,56z"/>
		<path fill="#FFFFFF" d="M113.2,56c-0.5,0-0.9,0-1.4,0c0-0.5,0.4-0.9,0.9-0.8C113.1,55.2,113.3,55.4,113.2,56z"/>
		<path fill="#FFFFFF" d="M46.8,42.2c-0.1,0.1-0.2,0.1-0.4,0.2c-0.1-0.1-0.2-0.2-0.4-0.3c-0.1,0.2-0.1,0.3-0.2,0.4
			c-0.1,0-0.3,0-0.4,0c-0.1-0.1-0.1-0.3-0.2-0.4c-0.2,0-0.4,0.2-0.5,0.1c-0.1-0.1-0.1-0.3-0.2-0.5c-0.2-0.1-0.4-0.2-0.7-0.3
			c0.2-0.2,0.3-0.3,0.3-0.4c-0.1-0.1-0.4-0.3-0.4-0.4c0-0.2,0.2-0.3,0.4-0.5c0-0.1-0.1-0.2-0.2-0.3c0.1-0.1,0.1-0.2,0.2-0.4
			c0.1,0,0.2,0.1,0.4,0.1c0-0.6,0.1-0.9,0.6-0.5c0.2-0.1,0.3-0.3,0.5-0.3c0.1,0,0.2,0.2,0.4,0.3c0.2-0.1,0.4-0.4,0.7,0
			c0,0.1-0.1,0.2-0.1,0.4c0.2,0,0.3-0.1,0.5-0.1c0.1,0.1,0.1,0.2,0.2,0.4c-0.1,0.1-0.2,0.2-0.3,0.3c0.2,0.1,0.3,0.1,0.4,0.2
			c0.1,0.3-0.1,0.5-0.4,0.5c0.2,0.2,0.2,0.3,0.3,0.4c-0.1,0.1-0.1,0.2-0.2,0.4c-0.1,0-0.3-0.1-0.5-0.1
			C46.7,41.9,46.7,42.1,46.8,42.2z M46,40.8c-0.2-0.1-0.3-0.3-0.3-0.3c-0.1,0-0.2,0.2-0.3,0.3c0.1,0.1,0.2,0.2,0.3,0.2
			C45.8,41,45.9,40.9,46,40.8z"/>
		<path fill="#FFFFFF" d="M45.5,32.9c-0.5-0.1-0.8-0.1-1.1-0.2c-0.1,0-0.3-0.2-0.3-0.3c-0.1-0.4-0.3-0.7-0.4-1.1
			c0-0.1,0.1-0.2,0.1-0.2c1-0.6,2.1-0.7,3.3-0.2c0.4,0.2,0.7,0.8,0.6,1.2c-0.1,0.2-0.2,0.3-0.4,0.5c0,0-0.2,0-0.2,0.1
			c-0.2,0.3-0.4,0.3-0.7,0.2c-0.1,0-0.2,0-0.2,0c-0.4,0.6,0.3,0.8,0.4,1.1c-0.1,0.1-0.2,0.1-0.3,0.2c-0.2,0.1-0.3,0.4-0.4,0.5
			c-0.3,0.2-0.3-0.1-0.4-0.3c0,0-0.1,0.1-0.2,0c-0.3-0.2-0.3-0.5-0.1-0.7C45.3,33.4,45.4,33.2,45.5,32.9z"/>
		<path fill="#FFFFFF" d="M47.8,24.3c-0.3-0.2,0.2-0.8-0.3-0.8c0.1-0.3,0.2-0.5,0.3-0.8c0.2,0.2-0.1,0.8,0.5,0.7
			C47.6,23.5,48,24,47.8,24.3z"/>
		<path fill="#FFFFFF" d="M43.8,23.4c0.1-0.2,0.2-0.5,0.2-0.7c0.1,0.3,0.3,0.5,0.4,0.8c-0.1,0-0.2,0-0.3,0c0,0.2,0,0.5,0,0.7
			c0,0,0,0-0.1,0C44,23.9,43.9,23.6,43.8,23.4z"/>
		<path fill="#FFFFFF" d="M45.3,45.6c0-0.1,0-0.3,0-0.4c0.2,0,0.5,0,0.7-0.1c0.4,0,0.7,0.2,0.7,0.5c0,0.4-0.2,0.6-0.6,0.6
			c-0.1,0-0.2,0-0.3,0c0-0.3-0.1-0.6-0.1-0.9c0,0-0.1,0-0.1,0c0,0.1-0.1,0.3-0.1,0.4c0,0.2,0,0.3-0.1,0.5c0,0-0.1,0-0.1,0
			c-0.1-0.2-0.3-0.4-0.5-0.7c0,0.2,0,0.4-0.1,0.6c-0.2,0-0.2,0-0.1-1.1C44.9,45.3,45.1,45.4,45.3,45.6z M46.1,45.3
			c0,0-0.1,0.1-0.1,0.1c0,0.2,0,0.4,0,0.6c0,0,0.1,0,0.1,0.1c0.1-0.1,0.2-0.3,0.2-0.4C46.3,45.6,46.2,45.5,46.1,45.3z"/>
		<path fill="#FFFFFF" d="M48.9,45.5c-0.4,0-0.7,0.1-1,0.1c0,0,0,0.1,0.1,0.2c-0.1,0-0.2,0.1-0.3,0.1c-0.1-0.3-0.2-0.6-0.4-1
			c0.3,0,0.6-0.1,0.8-0.1c0,0,0.1,0.3,0.1,0.6c0,0,0.1,0.1,0.4,0.2c-0.1-0.4-0.2-0.7-0.3-1c0.1,0,0.2-0.1,0.3-0.1
			C48.7,44.8,48.8,45.1,48.9,45.5z"/>
		<path fill="#FFFFFF" d="M40.2,44.9c0-0.3,0-0.6,0-0.9c0.1,0,0.3,0,0.4,0c0.3,0,0.6,0.1,0.6,0.5c0,0.4-0.2,0.5-0.6,0.5
			c-0.4,0-0.8,0-1.3,0c0-0.3,0-0.7-0.1-1c0.1,0,0.2,0,0.3,0c0,0.2,0,0.5,0.1,0.7C39.6,44.9,39.9,44.9,40.2,44.9z M40.6,44.2
			c0,0-0.1,0-0.1,0c0,0.2,0,0.4-0.1,0.6c0,0,0.1,0,0.1,0.1c0.1-0.1,0.3-0.2,0.3-0.3C40.9,44.5,40.7,44.4,40.6,44.2z"/>
		<path fill="#FFFFFF" d="M37.2,45.7c-0.1-0.4-0.2-0.7-0.3-1.1c0.2,0,0.6-0.2,0.7,0c0.2,0.1,0.4,0.5,0.3,0.7
			C37.8,45.4,37.4,45.5,37.2,45.7z"/>
		<path fill="#FFFFFF" d="M50.1,44.1c0.1,0,0.2,0,0.2,0c0.1,0.1,0.2,0.3,0.3,0.4c0.1-0.3,0.2-0.4,0.3-0.5c0,0,0.1,0,0.1,0.1
			c0,0.3,0.1,0.6,0.1,1c-0.1,0-0.2,0-0.3,0c0-0.1,0-0.3-0.1-0.4c0,0-0.1,0-0.1,0c-0.1,0.2-0.2,0.4-0.3,0.5c0,0-0.1,0-0.1-0.1
			C50.2,44.8,50.1,44.5,50.1,44.1z"/>
		<path fill="#FFFFFF" d="M39.1,44.7c0,0.4-0.2,0.5-0.5,0.6c-0.3,0-0.5-0.3-0.5-0.6c0-0.4,0.2-0.5,0.5-0.5
			C38.9,44.2,39,44.4,39.1,44.7z M38.9,44.8c-0.2-0.2-0.3-0.3-0.4-0.4c-0.1,0.1-0.2,0.2-0.2,0.3c0.1,0.1,0.2,0.3,0.3,0.4
			C38.7,45,38.7,44.9,38.9,44.8z"/>
		<path fill="#FFFFFF" d="M49.7,45.1c-0.2-0.4-0.1-0.4,0.2-0.4c0,0.1,0,0.3,0,0.4c-0.6,0.3-0.8,0.2-1-0.1c-0.1-0.3-0.1-0.6,0.3-0.7
			c0.2-0.1,0.5-0.2,0.5,0.1c-0.2,0.1-0.5,0.2-0.5,0.3c0,0.1,0.2,0.3,0.2,0.5C49.5,45.1,49.6,45.1,49.7,45.1z"/>
		<path fill="#FFFFFF" d="M43.4,45.9c0.2-0.3,0.4-0.6,0.6-0.9c0.5,0.3,0.1,0.8,0.4,1.1c0,0-0.1,0.1-0.1,0.1
			c-0.1-0.1-0.2-0.2-0.3-0.3c-0.1-0.2-0.2-0.3-0.3-0.1c0,0.1-0.2,0.1-0.2,0.1C43.4,45.9,43.4,45.9,43.4,45.9z"/>
		<path fill="#FFFFFF" d="M53.4,45.5c0,0-0.1,0-0.2,0c0-0.4,0-0.7,0-1.2c0.2,0.2,0.3,0.3,0.4,0.5c0.1,0,0.2-0.1,0.3-0.2
			c0,0,0,0.1,0.1,0.1C53.8,44.9,53.6,45.2,53.4,45.5z"/>
		<path fill="#FFFFFF" d="M42.7,44.8c0.1,0,0.2-0.1,0.5-0.2c-0.3,0.4-0.5,0.7-0.8,0.9c0,0-0.1,0-0.2-0.1c0-0.4,0.1-0.7,0.1-1.1
			C42.4,44.5,42.6,44.6,42.7,44.8z"/>
		<path fill="#FFFFFF" d="M51.3,44.1c0.2,0,0.5,0,0.7,0c0.1,0,0.1,0.1,0.1,0.3c-0.1,0-0.1,0-0.3-0.1c0,0.3-0.1,0.6-0.1,0.9
			c-0.1,0-0.2,0-0.3,0c0-0.3,0.1-0.5,0.1-0.8c-0.1,0-0.2,0-0.3,0C51.3,44.2,51.3,44.2,51.3,44.1z"/>
		<path fill="#FFFFFF" d="M41.6,45.1c0.2,0,0.3,0,0.4,0c-0.1,0.2-0.1,0.2-0.8,0c0.1-0.3,0.2-0.6,0.2-1c0.1,0,0.2,0.1,0.3,0.1
			C41.7,44.5,41.7,44.8,41.6,45.1z"/>
		<path fill="#FFFFFF" d="M53,45.2c-0.2,0.3-0.5-0.1-0.8,0c0.1-0.4,0.2-0.7,0.3-1.1c0.1,0,0.2,0.1,0.3,0.1c-0.1,0.2-0.2,0.4-0.2,0.6
			C52.7,45,52.9,45.1,53,45.2z"/>
	</g>
</g>
<g id="outline" display="none">
	
		<rect x="25" y="10.4" display="inline" fill-rule="evenodd" fill="none" stroke="#FFFFFF" stroke-miterlimit="10" width="130" height="54.2"/>
</g>
</svg>
