<?xml version="1.0" encoding="utf-8"?>
<!-- Generator: Adobe Illustrator 25.2.0, SVG Export Plug-In . SVG Version: 6.00 Build 0)  -->
<svg version="1.1" xmlns="http://www.w3.org/2000/svg" xmlns:xlink="http://www.w3.org/1999/xlink" x="0px" y="0px"
	 viewBox="0 0 180 75" style="enable-background:new 0 0 180 75;" xml:space="preserve">
<style type="text/css">
	.st0{fill:#FFFFFF;}
	.st1{display:none;}
	.st2{display:inline;fill-rule:evenodd;clip-rule:evenodd;fill:none;stroke:#FFFFFF;stroke-miterlimit:10;}
	.st3{display:inline;}
	.st4{fill:#1E70B8;}
	.st5{fill:#FBFCFD;}
	.st6{fill:#FAFCFD;}
	.st7{fill:#1F71B8;}
	.st8{display:inline;fill:none;}
	.st9{font-family:'TransportHeavy';}
	.st10{font-size:26px;}
</style>
<g id="crown" focusable="false">
</g>
<g id="text">
	<g>
		<path class="st0" d="M33.2,31.4c1.2,0.5,2.6-0.1,3.1-1.3c0.5-1.2-0.1-2.7-1.3-3.1c-1.2-0.5-2.6,0.1-3.1,1.3
			C31.4,29.5,32,30.9,33.2,31.4z"/>
		<path class="st0" d="M27.8,34.6c1.2,0.5,2.7-0.1,3.1-1.3c0.5-1.2-0.1-2.7-1.3-3.1c-1.2-0.5-2.6,0.1-3.1,1.3
			C26,32.7,26.6,34.1,27.8,34.6z"/>
		<path class="st0" d="M66.8,34.6c1.2-0.5,1.8-1.9,1.3-3.1c-0.5-1.2-1.9-1.8-3.1-1.3c-1.2,0.4-1.8,1.9-1.3,3.1
			C64.1,34.5,65.5,35.1,66.8,34.6z"/>
		<path class="st0" d="M29.3,39.3c0.5-1.2-0.1-2.6-1.3-3.1c-1.2-0.5-2.6,0.1-3.1,1.3c-0.5,1.2,0.1,2.6,1.3,3.1
			C27.4,41.2,28.8,40.6,29.3,39.3z"/>
		<path class="st0" d="M61.3,31.4c1.2-0.5,1.8-1.9,1.3-3.1c-0.5-1.2-1.9-1.8-3.1-1.3s-1.8,1.9-1.3,3.1
			C58.7,31.3,60.1,31.9,61.3,31.4z"/>
		<path class="st0" d="M55.2,33.3c1.2-0.5,1.8-1.9,1.3-3.1c-0.5-1.2-1.9-1.8-3.1-1.3c-1.3,0.5-1.8,1.9-1.3,3.1
			C52.6,33.3,54,33.8,55.2,33.3z"/>
		<path class="st0" d="M46.3,27.4l-1.7,5.3v0c-0.1,0.3-0.1,0.5-0.1,0.8c0,1.4,1.1,2.6,2.4,2.8h0.1c0.1,0,0.2,0,0.3,0
			c0.1,0,0.2,0,0.3,0h0.1c1.4-0.2,2.4-1.4,2.4-2.8c0-0.3,0-0.6-0.1-0.8v0l-1.7-5.3c0.1-0.1,0.2-0.2,0.3-0.3l3,1.6v-4.5l-3,1
			c-0.1-0.1-0.2-0.2-0.3-0.3l1.2-3.8h-4.4l1.2,3.8c-0.1,0.1-0.2,0.2-0.3,0.3l-3-1v4.5l3-1.6C46.1,27.2,46.2,27.4,46.3,27.4z"/>
		<path class="st0" d="M39.3,33.3c1.2,0.5,2.6-0.1,3.1-1.3c0.5-1.2-0.1-2.6-1.3-3.1c-1.2-0.5-2.6,0.1-3.1,1.3
			C37.5,31.4,38.1,32.8,39.3,33.3z"/>
		<path class="st0" d="M66.6,36.2c-1.3,0.5-1.8,1.9-1.3,3.1c0.5,1.2,1.9,1.8,3.1,1.3c1.2-0.5,1.8-1.9,1.3-3.1
			C69.2,36.3,67.8,35.7,66.6,36.2z"/>
		<path class="st0" d="M64.9,44.8c-0.5-0.5-1-1.5-1.4-3l-1.6,5.3c1-0.7,1.7-1.1,2.6-1.1c-1.5,3.2-3.4,4.1-4.7,3.8
			c-1.5-0.3-2.2-1.6-1.9-2.7c0.3-1.6,1.9-2,2.7-0.2c1.5-3-1-3.9-2.6-3c2.4-2.5,2.7-4.6,0.7-7.2c-2.7,2.1-2.8,4.2-1.5,7.1
			c-1.6-1.8-4.1-0.9-3.2,2.1c1.2-1.8,2.7-0.7,2.5,1.1c-0.2,1.5-2.2,2.7-4.6,2.5c-3.5-0.3-3.7-2.7-3.8-4.7c0.9-0.2,2.4,0.6,3.8,2.5
			l0.4-5.6c-1.4,1.5-2.7,1.8-4.2,1.8c0.5-1.5,2.7-4,2.7-4h-7c0,0,2.2,2.5,2.7,4c-1.4,0-2.7-0.3-4.2-1.8l0.5,5.6
			c1.3-1.9,2.9-2.6,3.7-2.5c-0.1,2-0.3,4.4-3.8,4.7c-2.5,0.2-4.4-1-4.6-2.5c-0.2-1.7,1.3-2.8,2.4-1.1c0.9-3-1.6-4-3.2-2.1
			c1.3-2.9,1.2-5-1.6-7.1c-2,2.6-1.7,4.8,0.8,7.2c-1.6-0.9-4.1,0-2.6,3c0.8-1.9,2.4-1.4,2.8,0.2c0.2,1.1-0.4,2.4-1.9,2.7
			c-1.2,0.2-3.1-0.6-4.6-3.8c0.9,0,1.6,0.4,2.6,1.1l-1.6-5.3c-0.4,1.5-0.9,2.5-1.5,3c-0.4-1-0.3-1.8,0-3.5l-3.2,1.2
			c1.7,2.4,3.4,5.7,4.8,11.5c5.1-0.7,10.5-1.1,16.3-1.1c5.8,0,11.2,0.4,16.1,1.1c1.4-5.8,3-9.1,4.8-11.5l-3.3-1.2
			C65.2,43,65.3,43.8,64.9,44.8z"/>
		<path class="st0" d="M86.9,39.8h-0.6h-0.2h-0.5h-0.2H85h-0.5h-0.1h-0.6h-0.2h-0.5h-0.5h-0.1h-0.6h-0.7h-0.2v0.5v0.1V41v0.2v0.4
			v0.6v0.2h0.8H82h0.2h0.1h0.2h0.1h0.5h1.2h0.5c0,0.2,0,0.5-0.1,0.8c-0.3,1.2-1.2,2-2.6,2.4c-2.1,0.2-3.5-0.7-4-2.7
			c-0.5-1.6-0.3-3.2,0.3-4.9l0.3-0.3l0.1-0.1c0.8-0.9,1.8-1.4,3.2-1.2c1.2,0.2,2.1,0.8,2.7,2c0.1-0.1,0.3-0.2,0.5-0.2l0.2-0.2l0.1,0
			l0.5-0.2l0.1-0.1c0.1,0,0.3-0.1,0.4-0.2l0.2-0.1c0.2,0,0.3-0.1,0.5-0.2l0.2-0.1l0.2-0.1c-1.2-2.5-3.4-3.7-6.5-3.6
			c-1.9,0.1-3.5,1-4.8,2.6c-1.4,1.9-1.8,4.1-1.4,6.7c0.4,2.5,1.8,4.3,4.2,5.3c0.6,0.3,1.3,0.4,2.1,0.5l0.1,0
			c1.3,0.1,2.5-0.3,3.5-1.2v0.7V48v0.1h0.5h0.1h0.6H86h0.4h0.6h0.2h0.2v-8.3H87H86.9z"/>
		<path class="st0" d="M97,33.3c-3,0.2-5,1.8-6,4.9c-1,3.2-0.4,6,1.8,8.4c2,1.9,4.5,2.3,7.4,1.2c3-1.4,4.4-4.1,4.1-8
			C103.7,35.5,101.2,33.4,97,33.3z M101.1,41.5c-0.1,2.7-1.5,4-4.1,4.1l-0.5-0.1l-0.1,0c-0.1,0-0.2,0-0.3-0.1H96
			c-1.4-0.8-2.1-2-2.2-3.8c-0.2-3.1,0.9-4.8,3.3-5.3C100,36.3,101.3,38.1,101.1,41.5z"/>
		<path class="st0" d="M117.5,33.7h-0.2h-0.1h-0.2H117h-0.5h-1.2c0,0.2-0.1,0.4-0.2,0.6l0,0.2l0,0.1v0.2l0,0.1l0,0.1l0,0.1l-0.2,0.5
			l0,0.2l-0.1,0.2v0.2c-0.1,0.1-0.1,0.3-0.2,0.5l0,0.2l0,0.2l-0.1,0.2l0,0.2l-0.1,0.2l0,0.2l-0.1,0.2l0,0.2l-0.2,0.5l0,0.1v0.1
			l0,0.1l-0.1,0.2l0,0.1v0.1l-0.1,0.2l-0.2,0.7l0,0.1l0,0.1l-0.1,0.3l0,0.2l0,0.1l0,0.2l-0.2,0.7l0,0.1l0,0.1l-0.1,0.3l0,0.2l0,0.1
			c0,0.2-0.1,0.4-0.2,0.6l0,0.2l0,0.1c0,0.1-0.1,0.3-0.1,0.4l0,0.2l-0.1,0.3l-0.1,0.2v0.2l-0.2-0.6c0,0,0-0.1,0-0.1
			c0-0.2-0.1-0.3-0.1-0.4c0,0,0-0.1,0-0.1v-0.2l0-0.1l0-0.1l-0.1-0.2l0-0.2l-0.1-0.2l-0.2-0.6c0-0.2-0.1-0.3-0.2-0.5l-0.1-0.5
			l-0.3-0.9l-0.1-0.3l0-0.1c0-0.1-0.1-0.2-0.1-0.3l0-0.2l-0.1-0.3l0-0.1c0-0.1-0.1-0.3-0.2-0.5l-0.1-0.3l-0.1-0.3c0,0,0-0.1,0-0.1
			c0,0,0-0.1,0-0.1v-0.2l-0.3-0.9c0,0,0-0.1,0-0.1c0,0,0-0.1,0-0.1c0-0.2-0.1-0.3-0.1-0.4v-0.1l-0.1-0.3l0-0.3l-0.1-0.3
			c0-0.2-0.1-0.5-0.2-0.9h-1.2h-0.1h-0.7H107h-0.8h-0.1H106c0,0.3,0.1,0.6,0.3,0.9l0,0.3l0.1,0.2l0,0.2c0,0,0,0.1,0,0.1v0.1l0,0.1
			l0.1,0.2v0.2l0.3,0.9c0,0,0,0.1,0,0.1l0,0.2v0.1l0.1,0.1l0,0.2l0.1,0.2l0,0.3l0.3,0.9c0,0,0,0.1,0,0.1c0,0,0,0.1,0,0.1l0.1,0.3
			l0,0.2l0.1,0.3l0.1,0.3l0.1,0.3l0.1,0.3c0,0.2,0.1,0.4,0.2,0.6l0.1,0.3l0,0.1v0.1l0,0.1l0.1,0.3l0,0.3l0.3,0.9l0.1,0.3l0,0.1
			c0,0.1,0.1,0.2,0.1,0.3l0,0.2l0.1,0.3l0,0.1c0,0.1,0,0.1,0.1,0.2v0.2l0.1,0.3c0,0.1,0,0.2,0.1,0.3c0,0.1,0,0.2,0.1,0.3
			c0,0.1,0,0.2,0.1,0.4c0,0.1,0,0.3,0.1,0.5c0,0.1,0.1,0.2,0.1,0.4v0.1l0.2,0.6l0,0.1l0,0.2l0.1,0.3h0.5h0.1h0.6h0.2h0.2h0.2h0.2
			h0.4h0.7h0.2h0.2h0.2h0.2h0.3l0.2,0l0.1-0.3l0.1-0.3l0.2-0.6l0-0.1l0-0.2l0-0.1l0-0.2c0.1-0.1,0.1-0.3,0.2-0.5l0.1-0.2l0-0.2
			l0.1-0.2l0-0.2l0.1-0.2l0-0.2l0.1-0.2c0-0.1,0.1-0.2,0.1-0.4l0.1-0.3l0.1-0.3l0.1-0.3l0.2-0.5l0-0.1l0-0.1l0-0.2
			c0-0.1,0.1-0.2,0.1-0.4l0.1-0.3l0.1-0.3l0.1-0.3l0.1-0.3c0.1-0.2,0.2-0.4,0.2-0.7l0-0.1l0.1-0.3c0.1-0.1,0.1-0.3,0.2-0.5l0-0.1
			l0-0.1l0-0.1l0-0.2l0.1-0.4l0-0.2l0.1-0.2l0.1-0.3l0.2-0.9l0-0.1l0.1-0.5l0.2-0.6l0.1-0.3c0-0.2,0.1-0.4,0.2-0.6l0-0.3l0.1-0.3
			l0.1-0.3l0.1-0.3h-0.8H117.5z"/>
		<path class="st0" d="M121.9,45.5c-0.9,0.2-1.4,0.7-1.5,1.8c0.3,1.1,1,1.5,2.2,1.2c0.7-0.3,1-0.9,0.9-1.7
			C123.3,46,122.8,45.6,121.9,45.5z"/>
		<path class="st0" d="M138.1,33.8h-0.6h-0.2h-0.5h-0.7H136h-0.2h-0.2v0.5v0.1V35v0.2v0.5v0.2v0.4v0.5v0.1v0.6v0.2v0.5v0.5v0.1v0.6
			V40v0.1v0.2v0.1v0.2v0.1v0.5v0.3v0.3c0,0.2,0,0.5,0,0.8c0,0.4-0.1,0.7-0.3,1.1v0.1c-0.6,1-1.5,1.5-2.7,1.6c-1.2-0.1-2-0.7-2.7-1.8
			l-0.2-0.8l0-9.1h-0.3h-0.3h-0.6h-0.2H128h-0.6h-0.2H127l-0.2,0v0.8v0.1v0.2v0.1v0.2v0.1v0.5v1.2v0.5v0.3v0.2v0.3v0.2v0.8v0.1v0.2
			v0.1v0.2v0.4v0.5c-0.4,3.8,1,6.3,4.1,7.5c1.6,0.5,3.1,0.4,4.8-0.5c1.3-0.7,2.3-1.9,2.8-3.4c0.1-0.2,0.1-0.5,0.2-0.8l0-0.1
			c0-0.1,0-0.2,0-0.3v-9.3h-0.5H138.1z"/>
		<path class="st0" d="M154.2,47.4C154.3,47.4,154.2,47.3,154.2,47.4l-0.1-0.2l-0.1,0l-0.2-0.3c-0.1-0.2-0.2-0.3-0.3-0.5l-0.1-0.1
			c0,0,0-0.1-0.1-0.1l-0.1-0.2l-0.1-0.2l-0.3-0.5l-0.3-0.5c0,0,0-0.1-0.1-0.1c-0.1-0.2-0.2-0.3-0.3-0.5l-0.7-1.1l-0.2-0.2
			c0-0.1-0.1-0.2-0.2-0.4l-0.2-0.3l-0.1-0.1l-0.3-0.6l-0.1,0l0-0.1l-0.2-0.2c-0.1-0.2-0.2-0.4-0.4-0.6l0-0.1
			c-0.1-0.1-0.1-0.2-0.2-0.2c0-0.1-0.1-0.1-0.1-0.2l-0.2-0.2l-0.1-0.3c-0.1-0.1-0.1-0.2-0.2-0.3l0.6-0.6l0.1-0.1l0.1-0.1l0.1-0.1
			l0.1-0.1l0.1-0.1l0-0.1c0,0,0.1,0,0.1-0.1c0.1-0.1,0.2-0.2,0.3-0.3l0.1-0.1l0.2-0.1l0.1-0.2l0.2-0.2l0.4-0.5l0.1-0.1l0.1-0.2
			l0.2-0.2l0.1-0.2l0.2-0.2l0.5-0.6l0.2-0.2c0.1-0.1,0.3-0.3,0.5-0.6l0.1,0l0-0.1c0.1-0.1,0.2-0.2,0.2-0.3c0.1-0.1,0.2-0.2,0.3-0.3
			l0.1-0.1l0.1-0.1l0.1-0.1l0.1-0.1H154h-0.1h-0.6h-0.2h-0.2h-0.2h-0.7h-0.2h-0.5h-0.8h-0.1h-0.2c-0.1,0.1-0.3,0.3-0.4,0.5
			c-0.2,0.1-0.4,0.3-0.5,0.6c-0.1,0.1-0.2,0.2-0.3,0.3l0,0.1l-0.1,0.1c0,0-0.1,0-0.1,0.1l-0.1,0.2l-0.2,0.1l-0.1,0.2l-0.1,0.2
			l-0.2,0.1l-0.5,0.6l-0.1,0l-0.1,0.1l-0.1,0.1l-0.1,0.1l-0.1,0.1l-0.1,0.1l-0.1,0.2l-0.2,0.2l-0.5,0.6l0,0.1c0,0-0.1,0-0.1,0.1
			l-0.3,0.2l0,0.1l-0.2,0.2v-4.9h-0.5h-0.1h-0.6h-0.2h-0.2h-0.2h-0.7h-0.2H143v0.5v0.1V35v0.2v0.2v0.2v0.2V36v0.7v0.2V37v0.2v0.2
			v0.3v0.2v0.3v1.2v0.1v0.1v0.3v0.3v0.3v0.3v0.5v0.1V42v0.2v0.5v0.2v0.2v0.5v0.1v0.6v0.2v0.5V45v0.2v0.2v0.2v0.8v0.1v0.3v0.3v0.7
			v0.2v0.1V48v0.1h0.5h0.1h0.6h0.2h0.2h0.2h0.7h0.2h0.5v-5l0.3-0.3c0.1-0.1,0.2-0.2,0.3-0.3l0-0.1l0.1-0.1l0.1-0.1l0.1-0.1l0.1-0.1
			L147,42l0.1-0.2l0.2,0.1c0.1,0.2,0.2,0.4,0.3,0.5l0.2,0.3l0,0.1l0.1,0l0,0.2l0.1,0.1l0.2,0.2c0,0,0,0.1,0.1,0.1l0.3,0.5l0.1,0.1
			c0.1,0.2,0.2,0.3,0.3,0.5l0,0.1l0.1,0.2l0.1,0.2l0.3,0.5c0,0,0,0.1,0.1,0.1c0,0.1,0.1,0.1,0.1,0.2l0.4,0.6l0,0.1l0.3,0.4l0,0.1
			c0,0,0,0.1,0.1,0.1c0,0.1,0.1,0.2,0.2,0.3c0,0,0,0.1,0.1,0.1l0,0.1c0,0,0,0.1,0.1,0.1c0,0,0,0.1,0.1,0.1l0.1,0.2h0.5h0.1h0.6h0.2
			h0.2h0.2h0.7h0.2h0.5h0.5C154.6,47.9,154.5,47.6,154.2,47.4z"/>
	</g>
</g>
<g id="outline" class="st1">
	<rect x="25" y="10.4" class="st2" width="130" height="54.2"/>
</g>
<g id="Layer_2" class="st1">
	<g class="st3">
		<g>
			<path class="st4" d="M42-57.6c-102.1,0-204.3,0-306.4,0.1c-3.4,0-4.1-0.7-4.1-4.1c0.1-50.1,0.1-100.2,0-150.3
				c0-3,0.6-3.6,3.6-3.6c204.6,0.1,409.2,0.1,613.8,0c3,0,3.6,0.6,3.6,3.6c-0.1,50.1-0.1,100.2,0,150.3c0,3.4-0.7,4.1-4.1,4.1
				C246.3-57.6,144.1-57.6,42-57.6z M-163.7-94.7c0,3.1,0.2,5.2,0,7.3c-0.3,3.1,0.9,4.1,3.9,3.9c4.1-0.2,8.3-0.3,12.5,0
				c3.5,0.2,4.1-1.2,4.1-4.3c-0.1-17.6-0.2-35.3,0-52.9c0-4-1.4-4.7-4.9-4.6c-11,0.2-22,0.1-33,0.1c-13.9,0-13.8,0-13.5,13.9
				c0.1,3.2,1.2,3.9,4.1,3.8c7-0.2,14,0.1,21-0.1c2.9-0.1,3.7,0.9,3.4,3.7c-0.8,9.4-7.6,17.8-16.7,20.2
				c-16.9,4.5-31.7-3.8-36.6-20.5c-3.1-10.5-3.1-21.1,0.2-31.5c3.1-9.7,9-17,19.3-19.8c13.3-3.6,24.6,0.8,32.3,12.6
				c1.7,2.6,2.9,3,5.4,1.4c3.6-2.3,7.5-4.3,11.3-6.4c6.1-3.4,6-3.4,1.9-9.3c-18.1-26-68.1-29.4-88.2,5.5
				c-8.9,15.5-10.4,32.2-6.4,49.3C-234.5-83.4-194.3-69.1-163.7-94.7z M-22.2-137.1c-0.1-7.5-0.5-12.6-1.6-17.7
				c-4.7-21.9-20.5-38-40.9-41.6c-23.7-4.2-44.7,4.5-56.3,23.3c-6.8,11.1-9.2,23.4-8.7,36.4c1.8,47.8,44.1,64.5,76.4,50.1
				C-30.6-96.6-23-116.2-22.2-137.1z M267.4-149c-0.3-0.1-0.7-0.3-1-0.4c0-1.6,0-3.3,0-4.9c0-12-0.3-24,0.1-35.9
				c0.2-4.6-1.4-5.7-5.6-5.3c-3.8,0.3-7.7,0.4-11.5,0c-4.9-0.5-6.4,0.9-6.4,6.1c0.3,33.3,0.3,66.6,0,99.8c0,5.2,1.4,6.7,6.3,6.1
				c5.4-0.6,12.7,2.2,15.9-1c3.4-3.4,1.6-10.8,0.9-16.3c-1.4-11.8,1.8-21.3,11-29c2.9-2.4,3.7-3.2,5.8,0.5
				c8.1,14.2,16.5,28.1,24.8,42.1c0.8,1.3,1.1,3.4,3.2,3.5c8.3,0.1,16.7,0,25.7,0c-1.3-2.3-2.2-3.7-3-5.1
				c-12-19.6-24-39.2-36.1-58.6c-1.7-2.7-1.6-4.3,0.6-6.8c11.3-12.7,22.4-25.5,33.5-38.3c0.7-0.8,2.1-1.3,1.2-3
				c-6.4,0-12.9,0.4-19.4-0.1c-5.5-0.4-9.1,1.4-12.6,5.8C290-175.9,278.6-162.5,267.4-149z M129.6-155.8
				C129.6-155.8,129.6-155.8,129.6-155.8c0,11.5-0.2,23,0.1,34.5c0.5,17.1,9.1,28.9,24.6,35.5c10,4.3,20.5,4.8,31.3,3.3
				c20.2-2.9,35.3-18.6,35.6-38.3c0.3-23.6,0-47.3,0.1-70.9c0-3-0.8-4.2-3.9-4c-4.8,0.2-9.7,0.3-14.5,0c-3.8-0.3-4.7,1.2-4.7,4.8
				c0.2,21.5-0.1,42.9,0.1,64.4c0.2,21.3-17.4,27.1-31.5,22.7c-9.1-2.8-14.2-10.8-14.2-22.3c-0.1-21.5-0.1-42.9,0.1-64.4
				c0-4.3-1.3-5.5-5.3-5.2c-4.5,0.3-9,0.3-13.5,0c-3.6-0.2-4.4,1.2-4.4,4.6C129.7-179.4,129.6-167.6,129.6-155.8z M34-112.7
				c-1.9-2.3-2-4.6-2.5-6.6c-6.2-24-12.4-48-18.4-72c-0.8-3-1.8-4.5-5.2-4.3c-6,0.3-12,0.3-18,0c-3.5-0.2-3.8,1.1-2.9,4
				c9.9,34.9,19.8,69.7,29.6,104.6c0.7,2.6,1.8,3.4,4.4,3.4c7.7-0.2,15.3-0.3,23,0c3.9,0.2,5.4-1.1,6.4-4.8c7.7-28,15.8-56,23.7-84
				c2.1-7.6,4.2-15.1,6.4-23.1c-7.7,0-14.7,0.2-21.7-0.1c-3.2-0.1-4.3,1.1-5,4c-2.3,9.7-4.8,19.4-7.2,29
				C42.5-146.1,38.3-129.7,34-112.7z M112.3-96.1c0-7.6-6.6-14.2-14.3-14.4c-8-0.1-14.8,6.5-14.8,14.4c0,7.7,6.5,14.2,14.3,14.4
				C105.3-81.5,112.3-88.3,112.3-96.1z"/>
			<path class="st5" d="M-163.7-94.7c-30.6,25.6-70.8,11.3-80-27.8c-4-17.1-2.6-33.8,6.4-49.3c20.1-34.9,70.2-31.5,88.2-5.5
				c4.1,5.9,4.2,5.8-1.9,9.3c-3.8,2.1-7.6,4.1-11.3,6.4c-2.6,1.7-3.8,1.2-5.4-1.4c-7.6-11.8-19-16.2-32.3-12.6
				c-10.3,2.8-16.2,10.1-19.3,19.8c-3.3,10.4-3.3,21-0.2,31.5c4.9,16.7,19.8,25,36.6,20.5c9.2-2.4,16-10.8,16.7-20.2
				c0.2-2.8-0.5-3.8-3.4-3.7c-7,0.2-14-0.1-21,0.1c-2.9,0.1-4-0.5-4.1-3.8c-0.3-13.9-0.4-13.9,13.5-13.9c11,0,22,0.1,33-0.1
				c3.5-0.1,5,0.6,4.9,4.6c-0.2,17.6-0.2,35.3,0,52.9c0,3.1-0.6,4.5-4.1,4.3c-4.1-0.3-8.3-0.2-12.5,0c-3,0.2-4.3-0.8-3.9-3.9
				C-163.5-89.5-163.7-91.6-163.7-94.7z"/>
			<path class="st5" d="M-22.2-137.1c-0.9,20.8-8.4,40.4-30.9,50.5c-32.3,14.4-74.6-2.3-76.4-50.1c-0.5-12.9,1.8-25.2,8.7-36.4
				c11.5-18.8,32.6-27.4,56.3-23.3c20.4,3.6,36.1,19.6,40.9,41.6C-22.7-149.7-22.3-144.5-22.2-137.1z M-46.2-139.2
				c0-7.7-1.1-15.3-4.8-22.2c-5.4-10.2-14.1-15.2-25.6-15c-11.3,0.2-19.9,5.3-24.6,15.6c-6.4,14-6.4,28.5,0,42.5
				c4.7,10.3,13.3,15.5,24.6,15.7c11.5,0.2,20.2-4.8,25.6-15C-47.3-124.3-46.2-131.7-46.2-139.2z"/>
			<path class="st5" d="M267.4-149c11.2-13.6,22.6-27,33.5-40.8c3.5-4.4,7-6.2,12.6-5.8c6.5,0.5,13,0.1,19.4,0.1
				c1,1.7-0.5,2.2-1.2,3c-11.1,12.8-22.2,25.7-33.5,38.3c-2.2,2.4-2.3,4-0.6,6.8c12.1,19.5,24.1,39.1,36.1,58.6
				c0.9,1.4,1.7,2.8,3,5.1c-9,0-17.3,0-25.7,0c-2.1,0-2.4-2.1-3.2-3.5c-8.3-14-16.7-28-24.8-42.1c-2.1-3.7-3-2.9-5.8-0.5
				c-9.2,7.8-12.4,17.2-11,29c0.6,5.5,2.5,12.9-0.9,16.3c-3.2,3.2-10.5,0.4-15.9,1c-4.9,0.5-6.4-0.9-6.3-6.1
				c0.3-33.3,0.3-66.6,0-99.8c0-5.2,1.5-6.6,6.4-6.1c3.8,0.4,7.7,0.4,11.5,0c4.2-0.4,5.7,0.7,5.6,5.3c-0.4,12-0.1,24-0.1,35.9
				c0,1.6,0,3.3,0,4.9C266.7-149.2,267-149.1,267.4-149z"/>
			<path class="st5" d="M129.6-155.8c0-11.8,0.1-23.6-0.1-35.5c-0.1-3.4,0.7-4.8,4.4-4.6c4.5,0.3,9,0.3,13.5,0
				c4.1-0.3,5.4,0.9,5.3,5.2c-0.2,21.5-0.1,42.9-0.1,64.4c0,11.5,5.1,19.4,14.2,22.3c14.1,4.4,31.7-1.4,31.5-22.7
				c-0.2-21.5,0-42.9-0.1-64.4c0-3.6,0.8-5.1,4.7-4.8c4.8,0.3,9.7,0.2,14.5,0c3.1-0.1,3.9,1.1,3.9,4c-0.1,23.6,0.1,47.3-0.1,70.9
				c-0.2,19.6-15.4,35.4-35.6,38.3c-10.8,1.5-21.3,1-31.3-3.3c-15.6-6.6-24.2-18.4-24.6-35.5C129.4-132.8,129.6-144.3,129.6-155.8
				C129.6-155.8,129.6-155.8,129.6-155.8z"/>
			<path class="st6" d="M34-112.7c4.3-17.1,8.4-33.4,12.6-49.8c2.4-9.7,4.9-19.3,7.2-29c0.7-2.9,1.8-4.1,5-4c7,0.3,14,0.1,21.7,0.1
				c-2.2,8-4.3,15.6-6.4,23.1c-7.9,28-15.9,56-23.7,84c-1,3.7-2.6,5-6.4,4.8c-7.6-0.3-15.3-0.2-23,0c-2.6,0.1-3.7-0.8-4.4-3.4
				C6.8-121.8-3.1-156.7-13-191.5c-0.8-3-0.6-4.2,2.9-4c6,0.3,12,0.3,18,0c3.4-0.2,4.5,1.3,5.2,4.3c6,24,12.2,48,18.4,72
				C32.1-117.3,32.2-115,34-112.7z"/>
			<path class="st6" d="M112.3-96.1c0,7.8-7,14.6-14.8,14.4c-7.8-0.2-14.2-6.7-14.3-14.4c0-7.9,6.8-14.5,14.8-14.4
				C105.7-110.4,112.3-103.7,112.3-96.1z"/>
			<path class="st7" d="M-46.2-139.2c0,7.6-1.2,14.9-4.8,21.7c-5.5,10.2-14.2,15.2-25.6,15c-11.3-0.2-19.9-5.4-24.6-15.7
				c-6.4-14-6.4-28.5,0-42.5c4.7-10.3,13.4-15.4,24.6-15.6c11.5-0.2,20.2,4.8,25.6,15C-47.3-154.5-46.2-147-46.2-139.2z"/>
		</g>
	</g>
	<rect x="67.6" y="31.9" class="st8" width="110.2" height="23.3"/>
	<text transform="matrix(1 0 0 1 67.6487 54.5573)" class="st3 st9 st10">GOV.UK</text>
	
		<image style="display:inline;overflow:visible;" width="621" height="158" xlink:href="3C116F47.jpg"  transform="matrix(1 0 0 1 -268.5 -443.3315)">
	</image>
</g>
</svg>
