<?xml version="1.0" encoding="utf-8"?>
<!-- Generator: Adobe Illustrator 25.2.0, SVG Export Plug-In . SVG Version: 6.00 Build 0)  -->
<svg version="1.1" id="Layer_2_1_" xmlns="http://www.w3.org/2000/svg" xmlns:xlink="http://www.w3.org/1999/xlink" x="0px" y="0px"
	 viewBox="0 0 180 75" style="enable-background:new 0 0 180 75;" xml:space="preserve">
<style type="text/css">
	.st0{fill:#FFFFFF;}
</style>
<g>
	<path class="st0" d="M91.1,29.2c-1.5-0.9-3.2-1.4-5.1-1.4c-1.5,0-2.9,0.3-4.2,0.9c-1.2,0.6-2.3,1.5-3.2,2.6
		c-0.1,0.2-0.2,0.3-0.2,0.4v-3.5h-3.1v29.1h3.1V45.2c0.1,0.2,0.2,0.2,0.2,0.4c0.8,1.2,1.8,2,3.1,2.6s2.7,0.9,4.2,0.9
		c1.9,0,3.6-0.5,5.1-1.4c1.5-0.9,2.7-2.2,3.6-3.8c0.8-1.6,1.3-3.4,1.3-5.4s-0.5-3.8-1.3-5.5C93.8,31.4,92.5,30.2,91.1,29.2z
		 M91.8,42.5c-0.6,1.2-1.5,2.1-2.6,2.8c-1.1,0.6-2.4,1-3.8,1s-2.7-0.3-3.8-1c-1.1-0.7-1.9-1.5-2.5-2.8c-0.6-1.2-0.9-2.5-0.9-4
		c0-1.5,0.3-2.9,0.9-4.1c0.6-1.2,1.5-2.1,2.5-2.8s2.3-1,3.8-1c1.4,0,2.7,0.3,3.8,1s2,1.6,2.6,2.8s0.9,2.5,0.9,4.1
		C92.8,40,92.4,41.3,91.8,42.5z"/>
	<rect x="114" y="28.3" class="st0" width="3.1" height="20.4"/>
	<polygon class="st0" points="105.6,28.3 105.6,19.7 102.5,19.7 102.5,28.3 97.4,28.3 97.4,31 102.5,31 102.5,48.7 105.6,48.7 
		105.6,31 110.7,31 110.7,28.3 110.7,28.3 	"/>
	<polygon class="st0" points="139.9,48.7 132,38.1 139.6,28.3 136,28.3 130.2,36 124.3,28.3 120.5,28.3 128.2,38.2 120.1,48.7 
		123.7,48.7 130,40.3 136.2,48.7 	"/>
	<path class="st0" d="M115.4,19.5c-0.6,0-1.1,0.2-1.5,0.6c-0.4,0.4-0.6,0.9-0.6,1.5s0.2,1.1,0.6,1.5c0.4,0.4,0.9,0.6,1.5,0.6
		c0.6,0,1.2-0.2,1.5-0.6c0.4-0.4,0.6-0.9,0.6-1.5c0-0.6-0.2-1.2-0.6-1.5C116.6,19.7,116.1,19.5,115.4,19.5z"/>
	<path class="st0" d="M55.9,17.7c-2.8,0-5.5,0.7-8,2.2c-2.5,1.4-4.4,3.4-5.8,5.9C40.6,28.3,40,31,40,33.9c0,4.4,1.5,8.1,4.7,11.3
		c3.2,3.1,6.9,4.7,11.5,4.7c4.5,0,8.3-1.5,11.4-4.7c3.2-3.2,4.7-6.9,4.7-11.4c0-4.5-1.5-8.3-4.7-11.5C64.5,19.2,60.6,17.7,55.9,17.7
		z M67.4,40.3c-1.2,2-2.7,3.6-4.8,4.8c-2,1.2-4.2,1.7-6.6,1.7c-3.5,0-6.6-1.2-9.1-3.8c-2.5-2.5-3.8-5.6-3.8-9.2
		c0-2.5,0.5-4.7,1.7-6.7c1.2-2,2.7-3.6,4.8-4.8c2-1.2,4.2-1.8,6.5-1.8c2.3,0,4.5,0.6,6.5,1.8s3.7,2.8,4.8,4.7c1.2,2,1.7,4.2,1.7,6.6
		C69.1,36.2,68.5,38.3,67.4,40.3z"/>
	<path class="st0" d="M56.2,27.4c-0.4,0-0.8,0.1-1.2,0.1v0.1c0,2.6-2.2,4.8-4.8,4.8c-0.1,0-0.2,0-0.2,0c-0.1,0.5-0.2,0.9-0.2,1.5
		c0,3.5,2.8,6.3,6.3,6.3s6.3-2.8,6.3-6.3C62.5,30.3,59.6,27.4,56.2,27.4z"/>
</g>
</svg>
