<?xml version="1.0" encoding="utf-8"?>
<!-- Generator: Adobe Illustrator 25.2.0, SVG Export Plug-In . SVG Version: 6.00 Build 0)  -->
<svg version="1.1" id="Layer_1" xmlns="http://www.w3.org/2000/svg" xmlns:xlink="http://www.w3.org/1999/xlink" x="0px" y="0px"
	 viewBox="0 0 180 75" style="enable-background:new 0 0 180 75;" xml:space="preserve">
<style type="text/css">
	.st0{fill:#FFFFFF;}
	.st1{display:none;}
	.st2{display:inline;fill:none;stroke:#FFFFFF;stroke-miterlimit:10;}
</style>
<g id="logo">
	<path class="st0" d="M35,14.6v45.9h110V14.6H35z M60.3,55.6l-7.4-24.7h-0.3l-4.9,24.7h-9.1l7.7-35.7h12.1l7.2,24.7h0.3l4.9-24.7
		h9.1l-7.7,35.7H60.3z M96.9,55.6l3-15.4H88.6l-3.3,15.4H76l7.2-35.7h9.9l-2.7,13.5h11l3-13.5h9.6l-7.4,35.7H96.9z M139.2,27.9
		c-1.9-0.8-4.4-1.7-8-1.7c-3.8,0-6.9,0.6-6.9,3.6c0,4.9,14,3.3,14,14c0,9.9-9.1,12.4-17.6,12.4c-3.6,0-8-0.8-11-1.9l2.2-7.4
		c1.9,1.1,5.8,1.9,8.8,1.9c3,0,7.7-0.6,7.7-4.1c0-5.8-14-3.6-14-13.8c0-9.3,8-12.1,16-12.1c4.4,0,8.5,0.5,11,1.6L139.2,27.9z"/>
</g>
<g id="outline" class="st1">
	<rect x="25" y="10.4" class="st2" width="130" height="54.2"/>
</g>
</svg>
