<?xml version="1.0" encoding="utf-8"?>
<!-- Generator: Adobe Illustrator 25.2.0, SVG Export Plug-In . SVG Version: 6.00 Build 0)  -->
<svg version="1.1" xmlns="http://www.w3.org/2000/svg" xmlns:xlink="http://www.w3.org/1999/xlink" x="0px" y="0px"
	 viewBox="0 0 180 75" style="enable-background:new 0 0 180 75;" xml:space="preserve">
<style type="text/css">
	.st0{fill:#FFFFFF;}
	.st1{display:none;}
	.st2{display:inline;fill-rule:evenodd;clip-rule:evenodd;fill:none;stroke:#FFFFFF;stroke-miterlimit:10;}
</style>
<g id="logo">
	<path class="st0" d="M25,10.4v54.2h130V10.4H25z M54.9,58.9l-8.8-29.2h-0.3l-5.8,29.2H29.2l9.1-42.2h14.3l8.5,29.2h0.3l5.8-29.2H78
		l-9.1,42.2H54.9z M98.1,58.9l3.6-18.2H88.4l-3.9,18.2h-11l8.5-42.2h11.7l-3.2,15.9h13l3.6-15.9h11.4l-8.8,42.2H98.1z M148.2,26.1
		c-2.3-1-5.2-2-9.4-2c-4.5,0-8.1,0.7-8.1,4.2c0,5.8,16.6,3.9,16.6,16.6c0,11.7-10.7,14.6-20.8,14.6c-4.2,0-9.4-1-13-2.3l2.6-8.8
		c2.3,1.3,6.8,2.3,10.4,2.3c3.6,0,9.1-0.7,9.1-4.9c0-6.8-16.6-4.2-16.6-16.3c0-11,9.4-14.3,18.9-14.3c5.2,0,10.1,0.6,13,1.9
		L148.2,26.1z"/>
</g>
<g id="outline" class="st1">
	<rect x="25" y="10.4" class="st2" width="130" height="54.2"/>
</g>
</svg>
