<?xml version="1.0" encoding="utf-8"?>
<!-- Generator: Adobe Illustrator 25.2.0, SVG Export Plug-In . SVG Version: 6.00 Build 0)  -->
<svg version="1.1" id="Layer_1" xmlns="http://www.w3.org/2000/svg" xmlns:xlink="http://www.w3.org/1999/xlink" x="0px" y="0px"
	 viewBox="0 0 180 75" style="enable-background:new 0 0 180 75;" xml:space="preserve">
<style type="text/css">
	.st0{display:none;}
	.st1{display:inline;fill:none;stroke:#FFFFFF;stroke-miterlimit:10;}
	.st2{fill:#FFFFFF;}
</style>
<g id="outline" class="st0">
	<rect x="25" y="10.4" class="st1" width="130" height="54.2"/>
</g>
<g>
	<path class="st2" d="M140,30c0,0.7-0.5,1.2-1.1,1.2c-0.7,0-1.2-0.5-1.2-1.1c0-0.7,0.5-1.2,1.1-1.2c0,0,0,0,0.1,0
		C139.4,28.8,140,29.3,140,30C140,29.9,140,29.9,140,30z M137.9,30c0,0.5,0.4,0.9,0.9,0.9c0.5,0,0.9-0.4,0.9-0.9
		c0.1-0.5-0.2-1-0.7-1.1s-1,0.2-1.1,0.7C137.9,29.7,137.9,29.8,137.9,30z M138.6,30.6h-0.3v-1.1h0.4l0.4,0.1
		c0.1,0.1,0.1,0.2,0.1,0.2c0,0.1-0.1,0.3-0.2,0.3l0,0c0.1,0.1,0.2,0.2,0.2,0.3c0,0.1,0.1,0.2,0.1,0.3h-0.2c-0.1-0.1-0.1-0.2-0.1-0.3
		c0-0.1-0.1-0.2-0.2-0.2c0,0,0,0-0.1,0h-0.2V30.6L138.6,30.6z M138.6,29.9h0.2c0.2,0,0.3-0.1,0.3-0.2c0-0.2-0.1-0.2-0.2-0.2h-0.2
		L138.6,29.9L138.6,29.9L138.6,29.9z M134.1,32.5v10.1h2V30.5l0,0C135,30.5,134.1,31.4,134.1,32.5L134.1,32.5z M100.5,32.5v10.1h2
		V30.5l0,0C101.4,30.5,100.5,31.4,100.5,32.5z M75.3,33.6c-0.9,0-1.8,0.4-2.4,1.2v-4.3l0,0c-1.1,0-2,0.9-2,2l0,0v10.2h2v-4.5
		c0.1-1.8,0.6-2.6,2-2.6c1.4,0,1.9,1.1,1.9,3.2v3.9h2.1v-5.2C78.9,35,77.6,33.6,75.3,33.6z M97.7,33.8h1.9v7.4c0,3.2-1.8,5-4.7,5
		c-2.9,0-3.7-1.1-4.3-3h2c0.5,0.8,1.3,1.3,2.3,1.3c1.6,0,2.8-1.1,2.8-2.9v-0.1c-0.8,0.8-1.9,1.3-3.1,1.3c-1.2,0-2.3-0.4-3.1-1.2
		c-0.9-0.9-1.4-2.1-1.4-3.3c0-2.7,1.9-4.7,4.6-4.7c1.2,0,2.3,0.5,3.1,1.3L97.7,33.8L97.7,33.8z M97.5,38.2c0-1.5-1.2-2.7-2.7-2.8
		c-1.5,0-2.7,1.2-2.7,2.7s1.2,2.7,2.7,2.7C96.3,40.8,97.5,39.6,97.5,38.2z M131.1,33.8h2v8.9h-2v-1.1c-0.5,0.9-1.4,1.3-2.8,1.3
		c-2.5,0-4.6-2-4.7-4.6c0-0.1,0-0.1,0-0.2c0-1.2,0.5-2.4,1.3-3.3c0.9-0.9,2.1-1.4,3.3-1.4c1.3,0,2.2,0.4,2.9,1.3V33.8L131.1,33.8
		L131.1,33.8z M130.8,38.3c0-1.4-1.1-2.6-2.5-2.7c-1.4,0-2.6,1.2-2.6,2.6c0,1.4,1.1,2.6,2.5,2.6S130.9,39.7,130.8,38.3L130.8,38.3
		L130.8,38.3z M84.2,33.6c-1-0.1-1.9,0.4-2.4,1.2v-4.3l0,0c-1.1,0-2,0.9-2,2l0,0v10.2h2v-4.5c0.1-1.7,0.6-2.6,2-2.6
		c1.4,0,1.9,1.1,1.9,3.2v3.9h2.1v-5.1C87.6,35,86.4,33.6,84.2,33.6z M118.4,33.5c-1,0-1.9,0.3-2.7,0.8v-0.6l0,0v-3.2l0,0
		c-1.1,0-2,0.9-2,2l0,0v3.8L110,40l-0.2,0.2c-1,1.1-2.7,1.1-3.8,0c-1.1-1-1.1-2.7,0-3.8c1-1.1,2.7-1.1,3.8,0
		c0.5,0.5,0.8,1.2,0.8,1.9l1.7-1.7c-0.2-0.6-0.6-1.2-1.1-1.6c-1.8-1.9-4.8-1.9-6.6-0.1c-1.9,1.8-1.9,4.8-0.1,6.6
		c1.8,1.9,4.8,1.9,6.6,0.1l0,0l0,0l2-2l3.2-3.2c1-1.1,2.7-1.1,3.8,0c1.1,1,1.1,2.7,0,3.8c-1,1.1-2.7,1.1-3.8,0
		c-0.5-0.5-0.8-1.2-0.8-1.9l0,0L114,40c1,2.4,3.7,3.6,6.1,2.6c2.4-1,3.6-3.7,2.6-6.1C122,34.7,120.3,33.5,118.4,33.5L118.4,33.5z"/>
	<path class="st2" d="M54.4,37.6c1.3,0,2.3,1,2.3,2.3l0,0c0,0.3-0.1,0.7-0.2,1c-1.2-1.2-3-1.5-4.5-0.8c0-0.1,0-0.2,0-0.2
		C52.1,38.6,53.1,37.6,54.4,37.6z M48.3,33.6c0.3,0,0.5-0.2,0.5-0.5c0-0.3-0.2-0.5-0.5-0.5c-0.3,0-0.5,0.2-0.5,0.5
		C47.8,33.4,48,33.6,48.3,33.6z M47.1,35.2c-0.2,0-0.4-0.1-0.6-0.2c0.6,0.7,1.6,0.9,2.3,0.4c0.1-0.1,0.1-0.1,0.2-0.2
		c-0.1-0.2-0.2-0.4-0.4-0.6C48.3,35,47.7,35.2,47.1,35.2z M54.4,32c0-0.6-0.2-1.1-0.6-1.6c0.6,1.2,0.1,2.7-1.1,3.3
		c-0.3,0.2-0.7,0.3-1.1,0.3c-0.5,0-1.1-0.2-1.5-0.5c0.8,1,2.3,1.2,3.3,0.4C54.1,33.4,54.4,32.7,54.4,32z M53.7,41
		c-1.6,0-2.9,1.3-2.9,2.9c0,1.6,1.3,2.9,2.9,2.9s2.9-1.3,2.9-2.9c0,0,0,0,0-0.1C56.6,42.3,55.3,41,53.7,41z M65.2,37.5
		c0,7-5.7,12.6-12.6,12.6S40,44.5,40,37.5s5.6-12.6,12.6-12.6c0,0,0,0,0.1,0C59.6,24.9,65.2,30.5,65.2,37.5z M61.4,32.9
		c-0.4-0.5-1-0.7-1.7-0.7l-0.6,0.1c-2-3.7-6.6-5.1-10.3-3.1s-5.1,6.6-3.1,10.3c0.3,0.6,0.8,1.2,1.3,1.7l1.1-0.8
		c-0.4-0.6-0.8-1.3-1.2-2c-0.2-0.4-0.2-0.8-0.2-1.2l0,0c0.2-0.8,1-1.2,1.7-1c0.3,0.1,0.6,0.2,0.7,0.5c0.4,0.4,0.7,1.3,1.2,3.4
		c0.1,0.4,0.1,0.9,0.1,1.3c-1.4,1.7-1.2,4.2,0.5,5.6c-2.4,0.1-4,0.3-4,0.5c0,0.2,3,0.5,6.7,0.5c2.3,0,4.1-1.8,4.1-4.1
		c0-0.7-0.2-1.5-0.6-2.1c2.7-2.1,3.6-5.8,2.3-8.9C60.1,32.7,60.8,32.7,61.4,32.9z"/>
</g>
</svg>
