<?xml version="1.0" encoding="utf-8"?>
<!-- Generator: Adobe Illustrator 25.2.0, SVG Export Plug-In . SVG Version: 6.00 Build 0)  -->
<svg version="1.2" baseProfile="tiny" xmlns="http://www.w3.org/2000/svg" xmlns:xlink="http://www.w3.org/1999/xlink" x="0px"
	 y="0px" viewBox="0 0 180 75" overflow="visible" xml:space="preserve">
<g id="logo">
	<g id="Layer_1_1_" display="none">
	</g>
	<g id="Layer_2_1_">
		<g>
			<path id="path35166" fill="#FFFFFF" d="M25,16.7L25,16.7h0.6V34H25V16.7z"/>
			<path id="path35176" fill="#FFFFFF" d="M30,16.7L30,16.7h5.2V34H30C30,34,30,16.7,30,16.7z"/>
			<path id="path35186" fill="#FFFFFF" d="M39.1,16.7L39.1,16.7h2.6V34h-2.6V16.7z"/>
			<path id="path35196" fill="#FFFFFF" d="M99.1,29.9L99.1,29.9c-3.7,0-5.1,1.6-5.6,2.2l-0.9-1.7h-6.9V34h1.6v24.3h5.4V49
				c1.1,1,2.9,1.7,5,1.7c7.1,0,10-5.2,10-10.9C107.7,33.9,104.1,29.9,99.1,29.9L99.1,29.9z M102.3,40L102.3,40c0,4.1-2,6.5-5.2,6.5
				s-4.6-2-4.6-6.2c0-4.4,1.5-6.3,4.8-6.3C100.3,34,102.3,36.4,102.3,40L102.3,40z M148.4,41.3L148.4,41.3v0.3
				c0,2.5-0.5,5.4-4.6,5.4c-2,0-3.2-1.1-3.2-2.9c0-1.5,0.6-2.9,4.9-2.9C145.5,41.3,148.4,41.3,148.4,41.3z M153.7,46.5L153.7,46.5
				V36.4c0-4.4-2.9-6.6-8.7-6.6c-1.5,0-3.9,0.2-4.6,0.3v4c0,0,2.9-0.2,4.4-0.2c2.4,0,3.5,0.9,3.5,2.7v1.3h-3.4
				c-6.5,0-9.9,2.3-9.9,6.7c0,3,1.8,6.2,7.1,6.2c4.2,0,5.8-1.3,6.3-1.9l0.8,1.6l5.7-0.1v-3.8C155,46.5,153.7,46.5,153.7,46.5z
				 M43.1,38.1L43.1,38.1c0,5.3,2.4,8.5,6.5,8.5c2.5,0,4.3-1,5.4-3.6h6c-1.1,3.8-4,7.9-11.5,7.9c-7.7,0-12.3-4.7-12.3-12.7
				c0-3.6,1.1-6.8,3.3-9.1c2.3-2.5,5.5-3.8,9.3-3.8c8.9,0,11.4,6.3,11.4,8.7h-5.9c-0.5-2.2-1.8-4.3-5.6-4.3
				C45.7,29.7,43.1,32.9,43.1,38.1z M76.4,41.3L76.4,41.3v0.3c0,2.5-0.5,5.4-4.6,5.4c-2,0-3.3-1.1-3.3-2.9c0-1.5,0.6-2.9,4.9-2.9
				C73.4,41.3,76.4,41.3,76.4,41.3z M81.7,46.5L81.7,46.5V36.4c0-4.4-2.9-6.6-8.7-6.6c-1.5,0-3.9,0.2-4.6,0.3v4c0,0,2.9-0.2,4.4-0.2
				c2.4,0,3.5,0.9,3.5,2.7v1.3h-3.4c-6.5,0-9.9,2.3-9.9,6.7c0,3,1.8,6.2,7.1,6.2c4.2,0,5.8-1.3,6.3-1.9l0.8,1.6l5.7-0.1v-3.8
				C83,46.5,81.7,46.5,81.7,46.5z M128.7,30.2L128.7,30.2h4.3V34h-4.3v10.3c0,1.6,0.3,2.4,2.3,2.4c0.7,0,1.1-0.1,1.4-0.1v3.6
				c-1,0.3-2.3,0.4-3.6,0.4c-3.8,0-5.4-1.7-5.4-5.7V34h-1.6v-3.8h1.6v-3.4h5.4L128.7,30.2L128.7,30.2z M111.8,21.7L111.8,21.7h5.4
				v5.7h-5.4V21.7z M110.4,30.2L110.4,30.2h6.8v20.2h-5.4V34h-1.5L110.4,30.2L110.4,30.2z"/>
		</g>
	</g>
</g>
<g id="outline" display="none">
	
		<rect x="25" y="10.4" display="inline" fill-rule="evenodd" fill="none" stroke="#FFFFFF" stroke-miterlimit="10" width="130" height="54.2"/>
</g>
</svg>
