<?xml version="1.0" encoding="utf-8"?>
<!-- Generator: Adobe Illustrator 25.2.0, SVG Export Plug-In . SVG Version: 6.00 Build 0)  -->
<svg version="1.1" id="Layer_1" xmlns="http://www.w3.org/2000/svg" xmlns:xlink="http://www.w3.org/1999/xlink" x="0px" y="0px"
	 viewBox="0 0 180 75" style="enable-background:new 0 0 180 75;" xml:space="preserve">
<style type="text/css">
	.st0{display:none;}
	.st1{display:inline;fill:none;stroke:#FFFFFF;stroke-miterlimit:10;}
	.st2{fill:#FFFFFF;}
</style>
<g id="outline" class="st0">
	<rect x="25" y="10.4" class="st1" width="130" height="54.2"/>
</g>
<g>
	<path class="st2" d="M55.5,37.5c0-3.1,0-6.3,0-9.4c0-0.7,0.1-1.5,0.4-2.1c0.7-1.7,2.3-2.5,4.1-2.3c1.6,0.2,3,1.6,3.3,3.3
		c0.1,0.3,0.1,0.6,0.1,0.9c0,6.4,0,12.9,0,19.3c0,0.6-0.2,1.3-0.4,1.9c-0.7,1.7-2.3,2.5-4,2.4c-1.5-0.2-3-1.5-3.4-3.2
		c-0.1-0.4-0.1-0.9-0.1-1.4C55.5,43.7,55.5,40.6,55.5,37.5z M61,37.5c0-0.5,0-1,0-1.5c0-2.7,0-5.3,0-8c0-1-0.7-1.7-1.6-1.7
		c-0.9,0-1.5,0.7-1.5,1.8c0,6.3,0,12.5,0,18.8c0,0.2,0,0.5,0.1,0.7c0.2,0.7,0.8,1.1,1.5,1.1c0.9,0,1.5-0.7,1.5-1.7
		C61,43.8,61,40.6,61,37.5z"/>
	<path class="st2" d="M72.6,37.5c0,3.2,0,6.3,0,9.5c0,0.7-0.2,1.4-0.4,2.1c-0.7,1.7-2.3,2.5-4,2.3c-1.6-0.2-3-1.6-3.3-3.3
		c-0.1-0.3-0.1-0.6-0.1-1c0-6.4,0-12.8,0-19.2c0-0.6,0.2-1.3,0.4-1.9c0.7-1.6,2.3-2.5,4-2.3c1.5,0.2,3,1.5,3.3,3.2
		c0.1,0.4,0.1,0.9,0.1,1.3C72.6,31.3,72.6,34.4,72.6,37.5z M67.2,37.5c0,2.9,0,5.8,0,8.8c0,0.4,0,0.8,0,1.1c0.1,0.8,0.7,1.3,1.5,1.4
		c0.8,0,1.4-0.5,1.5-1.3c0-0.3,0.1-0.5,0.1-0.8c0-6.1,0-12.3,0-18.4c0-0.3,0-0.6-0.1-0.9c-0.1-0.7-0.8-1.2-1.5-1.2
		c-0.9,0-1.5,0.7-1.5,1.7C67.2,31.1,67.2,34.3,67.2,37.5z"/>
	<path class="st2" d="M132.8,50.8c0,0.5,0,1,0,1.5c-0.3,0-0.5,0-0.8,0c-17.7,0-35.4,0-53.1,0c-0.4,0-0.8,0.1-1.1,0.4
		c-4.7,3.2-9.9,4.6-15.6,4.2c-4.5-0.3-8.6-1.7-12.2-4.3c-0.2-0.1-0.4-0.2-0.6-0.2c-1.2,0-2.3,0-3.5,0c0-0.5,0-1,0-1.5
		c1.4,0,2.9,0,4.3,0c0.1,0,0.3,0.1,0.4,0.2c8,5.8,18.9,5.8,26.9,0c0.2-0.1,0.5-0.2,0.7-0.2c18,0,36.1,0,54.1,0
		C132.5,50.8,132.6,50.8,132.8,50.8z"/>
	<path class="st2" d="M122.4,48.5c0-1.5,0-3,0-4.5c-1,0-2,0-3.1,0c0,1.5,0,3,0,4.5c-0.8,0-1.6,0-2.4,0c0-1.5,0-3,0-4.5
		c-0.5,0-1,0-1.5,0c0-0.8,0-1.6,0-2.4c0.5,0,0.9,0,1.5,0c0-0.2,0-0.5,0-0.7c0-2.8,0-5.6,0-8.3c0-2.7,1.2-4.9,3.5-6.4
		c0.4-0.3,0.7-0.3,1.1,0c2.1,1.5,3.4,3.5,3.4,6.1c0.1,5.3,0,10.7,0,16c0,0.1,0,0.2,0,0.3C124,48.5,123.2,48.5,122.4,48.5z
		 M120.8,28.8c-1,1.1-1.6,2.2-1.6,3.6c0,2.9,0,5.7,0,8.6c0,0.2,0,0.3,0,0.5c1,0,2,0,3,0c0-0.1,0-0.1,0-0.2c0-3.1,0-6.2,0-9.3
		C122.3,30.7,121.7,29.7,120.8,28.8z"/>
	<path class="st2" d="M45.9,24.2c0-0.5,0-1,0-1.5c1.1,0,2.1,0,3.2,0c0.5,0,0.9-0.1,1.3-0.4c4.7-3.2,9.9-4.5,15.5-4.2
		c4.5,0.3,8.6,1.7,12.3,4.3c0.2,0.1,0.5,0.2,0.8,0.2c11.8,0,23.5,0,35.3,0c3.1,0,6.2,0,9.3,0c-0.2,0.5-0.3,1-0.5,1.5
		c-0.1,0-0.3,0-0.5,0c-14.7,0-29.5,0-44.2,0c-0.3,0-0.6-0.1-0.9-0.3c-4.5-3.2-9.4-4.6-14.9-4.2c-4.5,0.3-8.5,1.7-12.1,4.4
		c-0.1,0.1-0.3,0.2-0.4,0.2C48.7,24.2,47.3,24.2,45.9,24.2z"/>
	<path class="st2" d="M74,24.6c3.7,1.8,8.3,6.5,8.3,12.9c0,6.3-4.6,11.1-8.3,12.8C74,41.8,74,33.2,74,24.6z M76.4,45.6
		c2.2-2,3.9-5.6,3.4-9.3c-0.3-2.6-1.5-4.9-3.4-6.9C76.4,34.8,76.4,40.2,76.4,45.6z"/>
	<path class="st2" d="M51.8,45.5c0-2.6,0-5.3,0-8c0.8,0,1.6,0,2.4,0c0,4.3,0,8.5,0,12.8c-3.3-1.5-7.7-5.9-8.3-11.6
		c-0.5-5.6,3.2-12,8.3-14.1c0,0.9,0,1.8,0,2.6c0,0.2-0.3,0.3-0.4,0.4c-2.4,1.7-4.2,3.9-5,6.8c-1.2,4.3,0,7.9,2.9,11.1
		C51.7,45.5,51.7,45.5,51.8,45.5z"/>
	<path class="st2" d="M92.9,26.5c2.4,0,4.7,0,7,0c0,0.7-0.3,1.3-0.8,1.7c-0.5,0.4-1,0.7-1.6,0.7c-0.7,0-1.4,0-2.2,0
		c0,4.2,0,8.4,0,12.6c1,0,2.1,0,3.1,0c0.1,1.5-0.9,2.3-3.1,2.5c0,0.5-0.1,1,0,1.5c0.1,0.4,0.4,0.6,0.9,0.6c1.2,0,2.3,0,3.5,0
		c0,0.8,0,1.6,0,2.4c-0.1,0-0.2,0-0.4,0c-1.3,0-2.6,0-3.9,0c-1.5,0-2.5-1-2.6-2.5c0-0.7,0-1.3,0-2c-0.5,0-1,0-1.5,0
		c0-0.4,0-0.8,0-1.2c0-0.4,0-0.8,0-1.2c0.5,0,1,0,1.5,0C92.9,36.5,92.9,31.5,92.9,26.5z"/>
	<path class="st2" d="M86.9,28.9c0,4.2,0,8.4,0,12.6c1,0,2.1,0,3.1,0c0.1,1.5-0.9,2.3-3.1,2.5c0,0.2,0,0.5,0,0.7c0,1.1,0,2.2,0,3.4
		c0,0.3-0.1,0.5-0.5,0.5c-0.6,0-1.3,0-1.9,0c0-1.5,0-3,0-4.5c-0.5,0-1,0-1.5,0c0-0.8,0-1.6,0-2.4c0.5,0,0.9,0,1.5,0c0-5,0-10,0-15.1
		c2.4,0,4.7,0,7,0c0.1,1.2-0.9,2.3-2.3,2.4C88.4,28.9,87.7,28.9,86.9,28.9z"/>
	<path class="st2" d="M107.8,46.1c0-0.3,0-0.5,0-0.7c0-6.1,0-12.2,0-18.3c0-0.1,0-0.3,0-0.4c0-0.1,0.1-0.2,0.1-0.2
		c0.1,0.1,0.2,0.2,0.2,0.2c0,0.2,0,0.3,0,0.5c0,6.1,0,12.2,0,18.3c0,1.1,0.2,2,1.1,2.8c0,0-0.1,0.1-0.1,0.1c-0.3-0.3-0.7-0.6-1.1-1
		c0,0.3,0,0.7-0.1,1.1c-0.1,0-0.2,0.1-0.4,0.1c-1.4,0-2.7,0-4.1,0c-1.4,0-2.5-1-2.5-2.4c0-6.5,0-12.9,0-19.4c0-0.1,0-0.1,0-0.2
		c0.8,0,1.5,0,2.4,0c0,0.2,0,0.4,0,0.6c0,5.9,0,11.9,0,17.8c0,1,0.2,1.2,1.2,1.2C105.7,46.1,106.7,46.1,107.8,46.1z"/>
	<path class="st2" d="M108.7,26.5c0.8,0,1.5,0,2.4,0c0,0.2,0,0.4,0,0.6c0,5.9,0,11.8,0,17.8c0,1,0.2,1.2,1.2,1.2c1.1,0,2.1,0,3.2,0
		c0,0.8,0,1.6,0,2.4c-0.1,0-0.2,0-0.4,0c-1.3,0-2.6,0-4,0c-1.5,0-2.5-1-2.5-2.5c0-6.4,0-12.8,0-19.2
		C108.6,26.8,108.7,26.6,108.7,26.5z"/>
	<path class="st2" d="M132.8,26.5c-0.2,0.2-0.2,0.3-0.3,0.4c-2.7,2.9-3.4,6.6-1.7,10.2c0.6,1.4,1.3,2.8,1.5,4.3
		c0.3,2.4,0,4.7-1.1,6.8c-0.1,0.2-0.3,0.3-0.5,0.3c-0.8,0-1.6,0-2.5,0c0.1-0.2,0.1-0.3,0.2-0.4c1.9-2.9,2.2-5.9,0.7-9.1
		c-0.6-1.4-1.3-2.7-1.5-4.2c-0.4-2.9,0.2-5.7,1.8-8.1c0.1-0.1,0.2-0.3,0.3-0.3C130.7,26.5,131.7,26.5,132.8,26.5z"/>
	<path class="st2" d="M126.2,28.4c-0.5-0.3-0.9-0.6-1.4-0.9c0.4-0.6,0.7-1.1,1.1-1.7c-0.5-0.4-0.8-0.9-0.8-1.6
		c0-0.7,0.5-1.3,1.1-1.5c0.7-0.2,1.4,0,1.8,0.5c0.4,0.5,0.5,1.3,0.2,1.9C127.6,26.3,126.9,27.3,126.2,28.4z"/>
	<path class="st2" d="M73.2,24.2c0.1,0.1,0.2,0.2,0.3,0.4c0,0.1,0,0.2,0,0.3c0,8.4,0,16.9,0,25.3c0,0.3,0.1,0.6-0.4,0.6
		c0-8.9,0-17.7,0-26.6C73.1,24.2,73.2,24.2,73.2,24.2z"/>
	<path class="st2" d="M64.9,49.6c-0.6-0.8-1-1.6-1-2.6c0-6.3,0-12.6,0-18.9c0-1,0.4-1.9,1-2.7c0,0,0.1,0.1,0.1,0.1
		c-0.6,1-0.7,2-0.7,3.1c0,5.8,0,11.6,0,17.4C64.3,47.3,64.2,48.5,64.9,49.6z"/>
	<path class="st2" d="M101.8,48.4c-1-0.4-1.5-1.2-1.5-2.2c0-6.5,0-13,0-19.6c0-0.1,0-0.1,0.1-0.3c0.2,0.2,0.3,0.3,0.3,0.4
		c0,0.1,0,0.3,0,0.4c0,6.1,0,12.2,0,18.3C100.6,46.6,100.8,47.6,101.8,48.4z"/>
	<path class="st2" d="M128.9,26.5c-0.4,0.9-1,1.9-1.3,2.8c-1,3-0.9,6,0.5,8.9c0.5,1.1,1,2.2,1.3,3.4c0.5,2.5-0.1,4.8-1.7,6.8
		c-0.1,0.1-0.3,0.2-0.6,0.3c0.5-0.9,1.1-1.7,1.4-2.6c0.8-2.1,0.8-4.2-0.1-6.3c-0.6-1.4-1.3-2.8-1.6-4.2c-0.7-3.1-0.1-6.1,1.6-8.8
		C128.5,26.6,128.7,26.5,128.9,26.5C128.9,26.4,128.9,26.4,128.9,26.5z"/>
	<path class="st2" d="M49.9,27.1c-5.8,5.7-6.2,14.6,0,20.8c-2.1-1-4.6-5.8-4.9-9.3C44.7,33.3,47.1,29.2,49.9,27.1z"/>
	<path class="st2" d="M55.6,25.5c-0.7,1.3-0.6,2.7-0.6,4.1c0,5.4,0,10.9,0,16.3c0,1.3,0,2.6,0.7,3.8c-0.6-0.5-1-1.4-1.1-2.2
		c0-0.2,0-0.5,0-0.7c0-6.2,0-12.4,0-18.6C54.6,27.2,54.9,26.3,55.6,25.5z"/>
	<path class="st2" d="M119.8,25.8c-1.6,1.2-2.7,2.6-3.2,4.5c-0.2,0.6-0.3,1.3-0.3,2c0,2.7,0,5.5,0,8.2c0,0.1,0,0.3,0,0.4
		c0,0.1-0.1,0.2-0.2,0.2c-0.1,0-0.2-0.1-0.2-0.2c0-0.1,0-0.2,0-0.4c0-2.6,0-5.3,0-7.9c0-1.9,0.5-3.6,1.6-5.1
		C118.2,26.8,119,26.2,119.8,25.8z"/>
	<path class="st2" d="M83.6,33.8c0-2.3,0-4.6,0-6.9c0-0.2,0.1-0.3,0.2-0.5c0.1,0.2,0.2,0.3,0.2,0.5c0,4.6,0,9.2,0,13.8
		c0,0.1-0.1,0.3-0.2,0.4c-0.1-0.2-0.2-0.3-0.2-0.5C83.6,38.4,83.6,36.1,83.6,33.8z"/>
	<path class="st2" d="M129.8,24.2c-0.2-0.5-0.3-1-0.5-1.5c1.1,0,2.3,0,3.4,0c0,0.5,0,1,0,1.5C131.8,24.2,130.8,24.2,129.8,24.2z"/>
	<path class="st2" d="M92.1,33.8c0-2.2,0-4.4,0-6.6c0-0.1,0-0.3,0-0.4c0-0.1,0.1-0.2,0.2-0.4c0.1,0.1,0.1,0.2,0.2,0.3
		c0,0.1,0,0.1,0,0.2c0,4.5,0,9.1,0,13.6c0,0.1,0,0.2,0,0.3c0,0.1-0.1,0.2-0.2,0.3c-0.1-0.1-0.2-0.2-0.2-0.3c0-0.1,0-0.2,0-0.4
		C92.1,38.3,92.1,36,92.1,33.8z"/>
	<path class="st2" d="M116,44.8c-0.5,0-1,0-1.5,0c0-1.1,0-2.2,0-3.3c0.1,0,0.1,0,0.2-0.1c0.1,0.1,0.2,0.3,0.2,0.4c0,0.8,0,1.6,0,2.5
		c0.5,0,1,0,1.5,0c0,1.4,0,2.8,0,4.1c-0.1,0-0.1,0-0.2,0.1c-0.1-0.1-0.2-0.3-0.2-0.4c0-0.9,0-1.8,0-2.7C116,45.3,116,45.1,116,44.8z
		"/>
	<path class="st2" d="M83.7,48.5c0-1.2,0-2.4,0-3.7c-0.5,0-1,0-1.5,0c0-1.1,0-2.1,0-3.1c0-0.1,0.1-0.2,0.2-0.2
		c0.1,0.1,0.1,0.2,0.1,0.3c0,0.7,0,1.3,0,2c0,0.2,0,0.4,0,0.6c0.5,0,1,0,1.6,0c0,0.8,0,1.5,0,2.2c0,0.5,0,1,0,1.5
		c0,0.1-0.1,0.3-0.2,0.4C83.8,48.6,83.7,48.5,83.7,48.5z"/>
	<path class="st2" d="M93.5,48.4c-1.5-0.7-1.5-2.1-1.5-3.6c-0.5,0-1,0-1.6,0c0-1.1,0-2.1,0-3.1c0-0.1,0.1-0.1,0.2-0.2
		c0.1,0.1,0.2,0.2,0.2,0.3c0,0.6,0,1.2,0,1.8c0,0.2,0,0.5,0,0.8c0.5,0,1,0,1.5,0C92.4,45.9,92.2,47.4,93.5,48.4z"/>
	<path class="st2" d="M51.1,44.5c-0.1-0.2-0.2-0.4-0.2-0.7c0-2,0-3.9,0-5.9c0-0.1,0.1-0.3,0.2-0.4c0.1,0.1,0.2,0.3,0.2,0.4
		c0,2.1,0,4.2,0,6.2c0,0.1,0,0.2,0,0.2C51.3,44.4,51.2,44.4,51.1,44.5z"/>
	<path class="st2" d="M121.5,44.8c-0.7,0-1.3,0-1.9,0c0,0-0.1-0.1-0.1-0.1c0.1-0.1,0.2-0.2,0.3-0.2c0.7,0,1.3,0,2,0
		c0,0.2,0,0.4,0,0.5c0,1,0,2,0,3c0,0.2-0.1,0.4-0.2,0.6c-0.1-0.2-0.2-0.4-0.2-0.6C121.5,46.9,121.5,45.9,121.5,44.8z"/>
	<path class="st2" d="M125.4,22.8c-0.9,1.1-0.9,2,0,3.2c-0.3,0.4-0.6,0.9-0.8,1.3c-0.1,0-0.1,0-0.2,0c0-0.1-0.1-0.3,0-0.4
		c0.5-0.6,0.5-1,0.1-1.7C123.9,24.2,124.5,23,125.4,22.8z"/>
	<path class="st2" d="M134.2,52.2c0-0.1,0-0.3,0-0.6c0.2,0.1,0.3,0.2,0.4,0.3c0.1-0.1,0.2-0.2,0.4-0.3c0,0.3,0,0.5,0,0.7
		C134.7,52.2,134.5,52.2,134.2,52.2z"/>
	<path class="st2" d="M59.8,48.1c0.1-0.5,0.3-1,0.3-1.5c0-6.1,0-12.1,0-18.2c0-0.5-0.2-1.1-0.3-1.6c0.1,0.2,0.4,0.3,0.5,0.6
		c0.1,0.2,0.1,0.5,0.1,0.8c0,6.2,0,12.5,0,18.7C60.5,47.6,60.3,47.9,59.8,48.1z"/>
	<path class="st2" d="M68.9,26.8c0.5,0.1,0.7,0.4,0.8,0.9c0,0.1,0,0.2,0,0.3c0,6.4,0,12.7,0,19.1c0,0.7-0.2,1-0.9,1.2
		c0.5-0.6,0.5-1.3,0.5-1.9c0-5.8,0-11.7,0-17.5C69.4,28,69.4,27.3,68.9,26.8z"/>
	<path class="st2" d="M120.9,29.7c0.7,0.7,1,1.6,1,2.5c0,2.8,0,5.7,0,8.5c0,0.1-0.1,0.3-0.2,0.4c-0.1-0.2-0.2-0.3-0.2-0.5
		c0-2.6,0-5.2,0-7.8c0-1-0.2-2-0.6-3C120.9,29.9,120.9,29.8,120.9,29.7z"/>
	<path class="st2" d="M77,44.1c2.6-4.4,2.6-8.8,0-13.2C79.8,34,80.5,39.9,77,44.1z"/>
</g>
</svg>
