<?xml version="1.0" encoding="utf-8"?>
<!-- Generator: Adobe Illustrator 16.0.0, SVG Export Plug-In . SVG Version: 6.00 Build 0)  -->
<!DOCTYPE svg PUBLIC "-//W3C//DTD SVG 1.1//EN" "http://www.w3.org/Graphics/SVG/1.1/DTD/svg11.dtd">
<svg version="1.1" id="Layer_1" xmlns="http://www.w3.org/2000/svg" xmlns:xlink="http://www.w3.org/1999/xlink" x="0px" y="0px"
	 width="138.751px" height="55.105px" viewBox="0 0 138.751 55.105" enable-background="new 0 0 138.751 55.105"
	 xml:space="preserve">
<g>
	<path fill="#005A98" d="M138.267,14.717h-5.018l-8.707,11.608l2.419,3.084L138.267,14.717z M116.259,43.132l9.311-12.455
		l-2.357-3.143l-11.971,15.598H116.259z M138.751,43.132l-12.094-16.082l-0.846-0.726l-8.826-11.608h-5.26l11.426,14.751
		l0.908,0.727l9.491,12.938H138.751z M106.888,7.673c0.545-0.584,0.816-1.279,0.816-2.086c0-0.846-0.271-1.551-0.816-2.116
		c-0.544-0.563-1.26-0.847-2.146-0.847c-0.807,0-1.491,0.283-2.055,0.847c-0.565,0.565-0.848,1.271-0.848,2.116
		c0,0.807,0.282,1.502,0.848,2.086c0.563,0.585,1.248,0.877,2.055,0.877C105.628,8.55,106.344,8.258,106.888,7.673 M106.918,14.717
		h-4.293v28.417h4.293V14.717z M98.183,14.717H79.621v3.809h18.563V14.717z M91.047,2.745h-4.231v40.387h4.231V2.745z
		 M53.314,55.105V35.818l-0.846-6.953l0.846-6.893v-7.255h-4.232v40.388H53.314z M57.85,38.328
		c-1.492-0.908-2.661-2.178-3.507-3.811c-0.847-1.633-1.27-3.496-1.27-5.592c0-2.136,0.423-4.01,1.27-5.624
		c0.846-1.612,2.025-2.881,3.537-3.809c1.511-0.928,3.254-1.392,5.23-1.392c1.974,0,3.728,0.464,5.26,1.392
		c1.531,0.928,2.729,2.196,3.597,3.809c0.867,1.613,1.301,3.487,1.301,5.624c0,2.096-0.434,3.959-1.301,5.592
		s-2.066,2.902-3.597,3.811c-1.532,0.906-3.306,1.359-5.321,1.359C61.073,39.687,59.339,39.234,57.85,38.328 M70.878,41.773
		c2.116-1.309,3.779-3.072,4.988-5.291c1.209-2.217,1.813-4.715,1.813-7.498c0-2.819-0.614-5.349-1.844-7.586
		c-1.229-2.236-2.894-4.011-4.988-5.32c-2.097-1.31-4.455-1.966-7.074-1.966c-2.096,0-4.021,0.424-5.774,1.271
		c-1.754,0.846-3.195,2.046-4.323,3.597c-1.129,1.553-1.814,3.377-2.056,5.473v8.888c0.242,2.055,0.916,3.859,2.026,5.41
		c1.108,1.553,2.529,2.771,4.262,3.658c1.733,0.887,3.688,1.33,5.865,1.33C66.394,43.738,68.762,43.083,70.878,41.773"/>
	<path fill="#005A98" d="M22.12,0c6.438,0,11.826,2.148,16.163,6.444c4.338,4.296,6.507,9.584,6.507,15.863
		c0,6.223-2.164,11.5-6.492,15.834c-4.328,4.336-9.605,6.502-15.831,6.502c-6.303,0-11.624-2.156-15.961-6.473
		C2.168,33.857,0,28.636,0,22.51c0-4.084,0.988-7.869,2.963-11.355c1.976-3.486,4.67-6.218,8.082-8.192S18.149,0,22.12,0
		 M22.308,4.132c-3.145,0-6.127,0.82-8.944,2.459c-2.817,1.64-5.017,3.846-6.599,6.622s-2.373,5.871-2.373,9.283
		c0,5.051,1.751,9.318,5.253,12.796c3.502,3.48,7.723,5.221,12.663,5.221c3.299,0,6.353-0.801,9.16-2.4
		c2.808-1.6,4.998-3.789,6.57-6.564c1.573-2.775,2.359-5.862,2.359-9.254c0-3.374-0.786-6.425-2.359-9.153
		c-1.572-2.728-3.787-4.91-6.642-6.55C28.54,4.952,25.511,4.132,22.308,4.132"/>
	<path d="M20.819,13.707l0.002,0.054c0,3.641-2.951,6.594-6.592,6.594c-0.124,0-0.242-0.012-0.364-0.02
		c-0.149,0.64-0.235,1.303-0.235,1.987c0,4.84,3.924,8.763,8.764,8.763s8.765-3.923,8.765-8.763s-3.925-8.764-8.765-8.764
		C21.856,13.559,21.331,13.614,20.819,13.707"/>
</g>
</svg>
